# MagicaVoxel @ Ephtracy

# group
o 

# material
mtllib pole 2.mtl
usemtl palette

# normals
vn -1 0 0
vn 1 0 0
vn 0 0 1
vn 0 0 -1
vn 0 -1 0
vn 0 1 0

# texcoords
vt 0.166016 0.5
vt 0.783203 0.5
vt 0.982422 0.5
vt 0.990234 0.5

# verts
v -1.1 0 0.4
v -1.1 0 -0.4
v -1.1 0.3 0.4
v -1.1 0.3 -0.4
v -1.1 1.8 0.4
v -1.1 1.8 -0.4
v -1.1 2.4 0.4
v -1.1 2.4 0.3
v -1.1 3 0.3
v -1.1 3 0.2
v -1.1 3 -0.3
v -1.1 3 -0.4
v -1.1 6.2 0.2
v -1.1 6.2 -0.3
v -0.9 6.2 0.2
v -0.9 6.2 -0.3
v -0.9 6.4 0.2
v -0.9 6.4 -0.3
v 0.6 6.2 0.2
v 0.6 6.2 -0.3
v 0.6 6.3 0.2
v 0.6 6.3 -0.3
v 0.6 6.4 0.2
v 0.6 6.4 -0.3
v 0.6 6.5 0.2
v 0.6 6.5 -0.3
v -0.9 2.4 0.3
v -0.9 2.4 0.2
v -0.9 2.4 -0.3
v -0.9 2.4 -0.4
v -0.9 3 0.3
v -0.9 3 0.2
v -0.9 3 -0.3
v -0.9 3 -0.4
v -0.7 2.3 0.4
v -0.7 2.3 -0.4
v -0.7 2.4 0.4
v -0.7 2.4 0.2
v -0.7 2.4 -0.3
v -0.7 2.4 -0.4
v -0.7 6.3 0.2
v -0.7 6.3 -0.3
v -0.6 0 0.4
v -0.6 0 -0.4
v -0.6 0.3 0.4
v -0.6 0.3 -0.4
v -0.6 1.8 0.4
v -0.6 1.8 -0.4
v -0.6 2.3 0.4
v -0.6 2.3 -0.4
v 1.5 6.2 0.2
v 1.5 6.2 -0.3
v 1.5 6.5 0.2
v 1.5 6.5 -0.3
v -1.1 0 0.4
v -1.1 0.3 0.4
v -1.1 1.8 0.4
v -1.1 2.4 0.4
v -0.7 2.3 0.4
v -0.7 2.4 0.4
v -0.6 0 0.4
v -0.6 0.3 0.4
v -0.6 1.8 0.4
v -0.6 2.3 0.4
v -1.1 2.4 0.3
v -1.1 3 0.3
v -0.9 2.4 0.3
v -0.9 3 0.3
v -1.1 3 0.2
v -1.1 6.2 0.2
v -0.9 2.4 0.2
v -0.9 3 0.2
v -0.9 6.2 0.2
v -0.9 6.4 0.2
v -0.7 2.4 0.2
v -0.7 6.3 0.2
v 0.6 6.2 0.2
v 0.6 6.3 0.2
v 0.6 6.4 0.2
v 0.6 6.5 0.2
v 1.5 6.2 0.2
v 1.5 6.5 0.2
v -1.1 3 -0.3
v -1.1 6.2 -0.3
v -0.9 2.4 -0.3
v -0.9 3 -0.3
v -0.9 6.2 -0.3
v -0.9 6.4 -0.3
v -0.7 2.4 -0.3
v -0.7 6.3 -0.3
v 0.6 6.2 -0.3
v 0.6 6.3 -0.3
v 0.6 6.4 -0.3
v 0.6 6.5 -0.3
v 1.5 6.2 -0.3
v 1.5 6.5 -0.3
v -1.1 0 -0.4
v -1.1 0.3 -0.4
v -1.1 1.8 -0.4
v -1.1 3 -0.4
v -0.9 2.4 -0.4
v -0.9 3 -0.4
v -0.7 2.3 -0.4
v -0.7 2.4 -0.4
v -0.6 0 -0.4
v -0.6 0.3 -0.4
v -0.6 1.8 -0.4
v -0.6 2.3 -0.4
v -1.1 0 0.4
v -0.6 0 0.4
v -1.1 0 -0.4
v -0.6 0 -0.4
v 0.6 6.2 0.2
v 1.5 6.2 0.2
v 0.6 6.2 -0.3
v 1.5 6.2 -0.3
v -0.7 6.3 0.2
v 0.6 6.3 0.2
v -0.7 6.3 -0.3
v 0.6 6.3 -0.3
v -0.7 2.3 0.4
v -0.6 2.3 0.4
v -0.7 2.3 -0.4
v -0.6 2.3 -0.4
v -1.1 2.4 0.4
v -0.7 2.4 0.4
v -1.1 2.4 0.3
v -0.9 2.4 0.3
v -0.9 2.4 0.2
v -0.7 2.4 0.2
v -0.9 2.4 -0.3
v -0.7 2.4 -0.3
v -0.9 2.4 -0.4
v -0.7 2.4 -0.4
v -1.1 3 0.3
v -0.9 3 0.3
v -1.1 3 0.2
v -0.9 3 0.2
v -1.1 3 -0.3
v -0.9 3 -0.3
v -1.1 3 -0.4
v -0.9 3 -0.4
v -1.1 6.2 0.2
v -0.9 6.2 0.2
v -1.1 6.2 -0.3
v -0.9 6.2 -0.3
v -0.9 6.4 0.2
v 0.6 6.4 0.2
v -0.9 6.4 -0.3
v 0.6 6.4 -0.3
v 0.6 6.5 0.2
v 1.5 6.5 0.2
v 0.6 6.5 -0.3
v 1.5 6.5 -0.3

# faces
f 3/4/1 2/4/1 1/4/1
f 4/4/1 2/4/1 3/4/1
f 5/2/1 4/2/1 3/2/1
f 6/2/1 4/2/1 5/2/1
f 7/4/1 6/4/1 5/4/1
f 8/4/1 6/4/1 7/4/1
f 9/4/1 6/4/1 8/4/1
f 10/4/1 6/4/1 9/4/1
f 11/4/1 6/4/1 10/4/1
f 12/4/1 6/4/1 11/4/1
f 13/3/1 11/3/1 10/3/1
f 14/3/1 11/3/1 13/3/1
f 17/3/1 16/3/1 15/3/1
f 18/3/1 16/3/1 17/3/1
f 21/1/1 20/1/1 19/1/1
f 22/1/1 20/1/1 21/1/1
f 25/1/1 24/1/1 23/1/1
f 26/1/1 24/1/1 25/1/1
f 27/4/2 28/4/2 31/4/2
f 31/4/2 28/4/2 32/4/2
f 29/4/2 30/4/2 33/4/2
f 33/4/2 30/4/2 34/4/2
f 35/4/2 36/4/2 37/4/2
f 37/4/2 36/4/2 38/4/2
f 38/4/2 36/4/2 39/4/2
f 39/4/2 36/4/2 40/4/2
f 38/3/2 39/3/2 41/3/2
f 41/3/2 39/3/2 42/3/2
f 43/4/2 44/4/2 45/4/2
f 45/4/2 44/4/2 46/4/2
f 45/2/2 46/2/2 47/2/2
f 47/2/2 46/2/2 48/2/2
f 47/4/2 48/4/2 49/4/2
f 49/4/2 48/4/2 50/4/2
f 51/1/2 52/1/2 53/1/2
f 53/1/2 52/1/2 54/1/2
f 59/4/3 58/4/3 57/4/3
f 60/4/3 58/4/3 59/4/3
f 61/4/3 56/4/3 55/4/3
f 62/2/3 57/2/3 56/2/3
f 62/4/3 56/4/3 61/4/3
f 63/4/3 59/4/3 57/4/3
f 63/2/3 57/2/3 62/2/3
f 64/4/3 59/4/3 63/4/3
f 67/4/3 66/4/3 65/4/3
f 68/4/3 66/4/3 67/4/3
f 72/3/3 70/3/3 69/3/3
f 73/3/3 70/3/3 72/3/3
f 75/3/3 72/3/3 71/3/3
f 75/3/3 74/3/3 73/3/3
f 75/3/3 73/3/3 72/3/3
f 76/3/3 74/3/3 75/3/3
f 78/3/3 74/3/3 76/3/3
f 79/3/3 74/3/3 78/3/3
f 81/1/3 78/1/3 77/1/3
f 81/1/3 80/1/3 79/1/3
f 81/1/3 79/1/3 78/1/3
f 82/1/3 80/1/3 81/1/3
f 83/3/4 84/3/4 86/3/4
f 86/3/4 84/3/4 87/3/4
f 85/3/4 86/3/4 89/3/4
f 87/3/4 88/3/4 89/3/4
f 86/3/4 87/3/4 89/3/4
f 89/3/4 88/3/4 90/3/4
f 90/3/4 88/3/4 92/3/4
f 92/3/4 88/3/4 93/3/4
f 91/1/4 92/1/4 95/1/4
f 93/1/4 94/1/4 95/1/4
f 92/1/4 93/1/4 95/1/4
f 95/1/4 94/1/4 96/1/4
f 99/4/4 100/4/4 101/4/4
f 101/4/4 100/4/4 102/4/4
f 99/4/4 101/4/4 103/4/4
f 103/4/4 101/4/4 104/4/4
f 97/4/4 98/4/4 105/4/4
f 98/2/4 99/2/4 106/2/4
f 105/4/4 98/4/4 106/4/4
f 99/4/4 103/4/4 107/4/4
f 106/2/4 99/2/4 107/2/4
f 107/4/4 103/4/4 108/4/4
f 111/4/5 110/4/5 109/4/5
f 112/4/5 110/4/5 111/4/5
f 115/1/5 114/1/5 113/1/5
f 116/1/5 114/1/5 115/1/5
f 119/3/5 118/3/5 117/3/5
f 120/3/5 118/3/5 119/3/5
f 121/4/6 122/4/6 123/4/6
f 123/4/6 122/4/6 124/4/6
f 125/4/6 126/4/6 127/4/6
f 127/4/6 126/4/6 128/4/6
f 128/4/6 126/4/6 129/4/6
f 129/4/6 126/4/6 130/4/6
f 131/4/6 132/4/6 133/4/6
f 133/4/6 132/4/6 134/4/6
f 135/4/6 136/4/6 137/4/6
f 137/4/6 136/4/6 138/4/6
f 139/4/6 140/4/6 141/4/6
f 141/4/6 140/4/6 142/4/6
f 143/3/6 144/3/6 145/3/6
f 145/3/6 144/3/6 146/3/6
f 147/3/6 148/3/6 149/3/6
f 149/3/6 148/3/6 150/3/6
f 151/1/6 152/1/6 153/1/6
f 153/1/6 152/1/6 154/1/6
