# MagicaVoxel @ Ephtracy

# group
o 

# material
mtllib lower arm modeling.mtl
usemtl palette

# normals
vn -1 0 0
vn 1 0 0
vn 0 0 1
vn 0 0 -1
vn 0 -1 0
vn 0 1 0

# texcoords
vt 0.978516 0.5
vt 0.982422 0.5
vt 0.986328 0.5
vt 0.990234 0.5

# verts
v 1.3 3.6 0.2
v 1.3 3.6 0.1
v 1.3 3.7 0.3
v 1.3 3.7 0.2
v 1.3 3.7 0.1
v 1.3 3.7 0
v 1.3 3.8 0.4
v 1.3 3.8 0.3
v 1.3 3.8 0
v 1.3 3.8 -0.1
v 1.3 3.9 0.4
v 1.3 3.9 0.3
v 1.3 3.9 0
v 1.3 3.9 -0.1
v 1.3 4 0.3
v 1.3 4 0.2
v 1.3 4 0.1
v 1.3 4 0
v 1.3 4.1 0.2
v 1.3 4.1 0.1
v 1.8 3.6 0.2
v 1.8 3.6 0.1
v 1.8 3.7 0.3
v 1.8 3.7 0.2
v 1.8 3.7 0.1
v 1.8 3.7 0
v 1.8 3.8 0.4
v 1.8 3.8 0.3
v 1.8 3.8 0
v 1.8 3.8 -0.1
v 1.8 3.9 0.4
v 1.8 3.9 0.3
v 1.8 3.9 0
v 1.8 3.9 -0.1
v 1.8 4 0.3
v 1.8 4 0.2
v 1.8 4 0.1
v 1.8 4 0
v 1.8 4.1 0.2
v 1.8 4.1 0.1
v 1.3 3.8 0.4
v 1.3 3.9 0.4
v 1.7 3.8 0.4
v 1.7 3.9 0.4
v 1.8 3.8 0.4
v 1.8 3.9 0.4
v 1.3 3.7 0.3
v 1.3 3.8 0.3
v 1.3 3.9 0.3
v 1.3 4 0.3
v 1.7 3.7 0.3
v 1.7 3.8 0.3
v 1.7 3.9 0.3
v 1.7 4 0.3
v 1.8 3.7 0.3
v 1.8 3.8 0.3
v 1.8 3.9 0.3
v 1.8 4 0.3
v 1.3 3.6 0.2
v 1.3 3.7 0.2
v 1.3 4 0.2
v 1.3 4.1 0.2
v 1.4 4 0.2
v 1.4 4.1 0.2
v 1.5 4 0.2
v 1.5 4.1 0.2
v 1.7 3.6 0.2
v 1.7 3.7 0.2
v 1.7 4 0.2
v 1.7 4.1 0.2
v 1.8 3.6 0.2
v 1.8 3.7 0.2
v 1.8 4 0.2
v 1.8 4.1 0.2
v 1.3 3.6 0.1
v 1.3 3.7 0.1
v 1.3 4 0.1
v 1.3 4.1 0.1
v 1.4 4 0.1
v 1.4 4.1 0.1
v 1.5 4 0.1
v 1.5 4.1 0.1
v 1.7 3.6 0.1
v 1.7 3.7 0.1
v 1.7 4 0.1
v 1.7 4.1 0.1
v 1.8 3.6 0.1
v 1.8 3.7 0.1
v 1.8 4 0.1
v 1.8 4.1 0.1
v 1.3 3.7 0
v 1.3 3.8 0
v 1.3 3.9 0
v 1.3 4 0
v 1.7 3.7 0
v 1.7 3.8 0
v 1.7 3.9 0
v 1.7 4 0
v 1.8 3.7 0
v 1.8 3.8 0
v 1.8 3.9 0
v 1.8 4 0
v 1.3 3.8 -0.1
v 1.3 3.9 -0.1
v 1.7 3.8 -0.1
v 1.7 3.9 -0.1
v 1.8 3.8 -0.1
v 1.8 3.9 -0.1
v 1.3 3.6 0.2
v 1.7 3.6 0.2
v 1.8 3.6 0.2
v 1.3 3.6 0.1
v 1.7 3.6 0.1
v 1.8 3.6 0.1
v 1.3 3.7 0.3
v 1.7 3.7 0.3
v 1.8 3.7 0.3
v 1.3 3.7 0.2
v 1.7 3.7 0.2
v 1.8 3.7 0.2
v 1.3 3.7 0.1
v 1.7 3.7 0.1
v 1.8 3.7 0.1
v 1.3 3.7 0
v 1.7 3.7 0
v 1.8 3.7 0
v 1.3 3.8 0.4
v 1.7 3.8 0.4
v 1.8 3.8 0.4
v 1.3 3.8 0.3
v 1.7 3.8 0.3
v 1.8 3.8 0.3
v 1.3 3.8 0
v 1.7 3.8 0
v 1.8 3.8 0
v 1.3 3.8 -0.1
v 1.7 3.8 -0.1
v 1.8 3.8 -0.1
v 1.3 3.9 0.4
v 1.7 3.9 0.4
v 1.8 3.9 0.4
v 1.3 3.9 0.3
v 1.7 3.9 0.3
v 1.8 3.9 0.3
v 1.3 3.9 0
v 1.7 3.9 0
v 1.8 3.9 0
v 1.3 3.9 -0.1
v 1.7 3.9 -0.1
v 1.8 3.9 -0.1
v 1.3 4 0.3
v 1.7 4 0.3
v 1.8 4 0.3
v 1.3 4 0.2
v 1.4 4 0.2
v 1.5 4 0.2
v 1.7 4 0.2
v 1.8 4 0.2
v 1.3 4 0.1
v 1.4 4 0.1
v 1.5 4 0.1
v 1.7 4 0.1
v 1.8 4 0.1
v 1.3 4 0
v 1.7 4 0
v 1.8 4 0
v 1.3 4.1 0.2
v 1.4 4.1 0.2
v 1.5 4.1 0.2
v 1.7 4.1 0.2
v 1.8 4.1 0.2
v 1.3 4.1 0.1
v 1.4 4.1 0.1
v 1.5 4.1 0.1
v 1.7 4.1 0.1
v 1.8 4.1 0.1

# faces
f 4/2/1 2/2/1 1/2/1
f 5/2/1 2/2/1 4/2/1
f 8/2/1 4/2/1 3/2/1
f 8/2/1 6/2/1 5/2/1
f 8/2/1 5/2/1 4/2/1
f 9/2/1 6/2/1 8/2/1
f 11/2/1 8/2/1 7/2/1
f 11/2/1 10/2/1 9/2/1
f 11/2/1 9/2/1 8/2/1
f 12/2/1 10/2/1 11/2/1
f 13/2/1 10/2/1 12/2/1
f 14/2/1 10/2/1 13/2/1
f 15/2/1 13/2/1 12/2/1
f 16/2/1 13/2/1 15/2/1
f 17/2/1 13/2/1 16/2/1
f 18/2/1 13/2/1 17/2/1
f 19/1/1 17/1/1 16/1/1
f 20/1/1 17/1/1 19/1/1
f 21/3/2 22/3/2 24/3/2
f 24/3/2 22/3/2 25/3/2
f 23/3/2 24/3/2 28/3/2
f 25/3/2 26/3/2 28/3/2
f 24/3/2 25/3/2 28/3/2
f 28/3/2 26/3/2 29/3/2
f 27/3/2 28/3/2 31/3/2
f 29/3/2 30/3/2 31/3/2
f 28/3/2 29/3/2 31/3/2
f 31/3/2 30/3/2 32/3/2
f 32/3/2 30/3/2 33/3/2
f 33/3/2 30/3/2 34/3/2
f 32/3/2 33/3/2 35/3/2
f 35/3/2 33/3/2 36/3/2
f 36/3/2 33/3/2 37/3/2
f 37/3/2 33/3/2 38/3/2
f 36/3/2 37/3/2 39/3/2
f 39/3/2 37/3/2 40/3/2
f 43/2/3 42/2/3 41/2/3
f 44/2/3 42/2/3 43/2/3
f 45/3/3 44/3/3 43/3/3
f 46/3/3 44/3/3 45/3/3
f 51/2/3 48/2/3 47/2/3
f 52/2/3 48/2/3 51/2/3
f 53/2/3 50/2/3 49/2/3
f 54/2/3 50/2/3 53/2/3
f 55/3/3 52/3/3 51/3/3
f 56/3/3 52/3/3 55/3/3
f 57/3/3 54/3/3 53/3/3
f 58/3/3 54/3/3 57/3/3
f 63/1/3 62/1/3 61/1/3
f 64/1/3 62/1/3 63/1/3
f 65/4/3 64/4/3 63/4/3
f 66/4/3 64/4/3 65/4/3
f 67/2/3 60/2/3 59/2/3
f 68/2/3 60/2/3 67/2/3
f 69/2/3 66/2/3 65/2/3
f 70/2/3 66/2/3 69/2/3
f 71/3/3 68/3/3 67/3/3
f 72/3/3 68/3/3 71/3/3
f 73/3/3 70/3/3 69/3/3
f 74/3/3 70/3/3 73/3/3
f 77/1/4 78/1/4 79/1/4
f 79/1/4 78/1/4 80/1/4
f 79/4/4 80/4/4 81/4/4
f 81/4/4 80/4/4 82/4/4
f 75/2/4 76/2/4 83/2/4
f 83/2/4 76/2/4 84/2/4
f 81/2/4 82/2/4 85/2/4
f 85/2/4 82/2/4 86/2/4
f 83/3/4 84/3/4 87/3/4
f 87/3/4 84/3/4 88/3/4
f 85/3/4 86/3/4 89/3/4
f 89/3/4 86/3/4 90/3/4
f 91/2/4 92/2/4 95/2/4
f 95/2/4 92/2/4 96/2/4
f 93/2/4 94/2/4 97/2/4
f 97/2/4 94/2/4 98/2/4
f 95/3/4 96/3/4 99/3/4
f 99/3/4 96/3/4 100/3/4
f 97/3/4 98/3/4 101/3/4
f 101/3/4 98/3/4 102/3/4
f 103/2/4 104/2/4 105/2/4
f 105/2/4 104/2/4 106/2/4
f 105/3/4 106/3/4 107/3/4
f 107/3/4 106/3/4 108/3/4
f 112/2/5 110/2/5 109/2/5
f 113/3/5 111/3/5 110/3/5
f 113/2/5 110/2/5 112/2/5
f 114/3/5 111/3/5 113/3/5
f 118/2/5 116/2/5 115/2/5
f 119/3/5 117/3/5 116/3/5
f 119/2/5 116/2/5 118/2/5
f 120/3/5 117/3/5 119/3/5
f 124/2/5 122/2/5 121/2/5
f 125/3/5 123/3/5 122/3/5
f 125/2/5 122/2/5 124/2/5
f 126/3/5 123/3/5 125/3/5
f 130/2/5 128/2/5 127/2/5
f 131/3/5 129/3/5 128/3/5
f 131/2/5 128/2/5 130/2/5
f 132/3/5 129/3/5 131/3/5
f 136/2/5 134/2/5 133/2/5
f 137/3/5 135/3/5 134/3/5
f 137/2/5 134/2/5 136/2/5
f 138/3/5 135/3/5 137/3/5
f 139/2/6 140/2/6 142/2/6
f 140/3/6 141/3/6 143/3/6
f 142/2/6 140/2/6 143/2/6
f 143/3/6 141/3/6 144/3/6
f 145/2/6 146/2/6 148/2/6
f 146/3/6 147/3/6 149/3/6
f 148/2/6 146/2/6 149/2/6
f 149/3/6 147/3/6 150/3/6
f 151/2/6 152/2/6 154/2/6
f 154/2/6 152/2/6 155/2/6
f 155/2/6 152/2/6 156/2/6
f 152/3/6 153/3/6 157/3/6
f 156/2/6 152/2/6 157/2/6
f 157/3/6 153/3/6 158/3/6
f 159/2/6 160/2/6 164/2/6
f 160/2/6 161/2/6 164/2/6
f 161/2/6 162/2/6 164/2/6
f 162/3/6 163/3/6 165/3/6
f 164/2/6 162/2/6 165/2/6
f 165/3/6 163/3/6 166/3/6
f 167/1/6 168/1/6 172/1/6
f 168/4/6 169/4/6 173/4/6
f 172/1/6 168/1/6 173/1/6
f 169/2/6 170/2/6 174/2/6
f 173/4/6 169/4/6 174/4/6
f 170/3/6 171/3/6 175/3/6
f 174/2/6 170/2/6 175/2/6
f 175/3/6 171/3/6 176/3/6
