# MagicaVoxel @ Ephtracy

# group
o 

# material
mtllib pole.mtl
usemtl palette

# normals
vn -1 0 0
vn 1 0 0
vn 0 0 1
vn 0 0 -1
vn 0 -1 0
vn 0 1 0

# texcoords
vt 0.783203 0.5
vt 0.849609 0.5
vt 0.986328 0.5
vt 0.990234 0.5
vt 0.994141 0.5

# verts
v -0.7 3.5 0.3
v -0.7 3.5 0
v -0.7 3.7 0.4
v -0.7 3.7 0.3
v -0.7 4.1 0.4
v -0.7 4.1 0.3
v -0.7 4.3 0.3
v -0.7 4.3 0
v -0.6 3.4 0.3
v -0.6 3.4 0
v -0.6 3.5 0.3
v -0.6 3.5 0
v -0.6 4.3 0.3
v -0.6 4.3 0
v -0.6 4.4 0.3
v -0.6 4.4 0
v -0.5 3.3 0.3
v -0.5 3.3 0
v -0.5 3.4 0.3
v -0.5 3.4 0
v -0.5 4.4 0.3
v -0.5 4.4 0
v -0.5 4.5 0.3
v -0.5 4.5 0
v -0.4 4.5 0.2
v -0.4 4.5 0.1
v -0.4 4.6 0.2
v -0.4 4.6 0.1
v -0.3 0.1 0.4
v -0.3 0.1 -0.3
v -0.3 0.3 0.4
v -0.3 0.3 -0.3
v -0.3 1.9 0.3
v -0.3 1.9 0
v -0.3 2 0.3
v -0.3 2 0.2
v -0.3 2 0
v -0.3 2 -0.1
v -0.3 2.5 0.2
v -0.3 2.5 0
v -0.3 2.5 -0.1
v -0.2 0.3 0.3
v -0.2 0.3 -0.2
v -0.2 1.9 0.3
v -0.2 1.9 0
v -0.2 2 0
v -0.2 2 -0.1
v -0.2 2 -0.2
v 5.96046e-08 2.5 0.2
v 5.96046e-08 2.5 0
v 5.96046e-08 3.1 0.2
v 5.96046e-08 3.1 0
v 0.1 2.5 0
v 0.1 2.5 -0.1
v 0.1 2.8 0
v 0.1 2.8 -0.1
v 0.1 4.2 0.1
v 0.1 4.2 0
v 0.1 4.3 0.1
v 0.1 4.3 0
v 0.3 3.1 0.2
v 0.3 3.1 0
v 0.3 3.4 0.2
v 0.3 3.4 0
v 0.5 3.4 0.2
v 0.5 3.4 0
v 0.5 4.2 0.2
v 0.5 4.2 0
v 0.5 4.3 0.3
v 0.5 4.3 0.2
v 0.5 4.3 0
v 0.5 4.3 -0.1
v 0.5 4.5 0.3
v 0.5 4.5 -0.1
v -0.1 4.5 0.2
v -0.1 4.5 0.1
v -0.1 4.6 0.2
v -0.1 4.6 0.1
v 5.96046e-08 3.3 0.3
v 5.96046e-08 3.3 0
v 5.96046e-08 3.4 0.3
v 5.96046e-08 3.4 0
v 5.96046e-08 4.2 0.1
v 5.96046e-08 4.2 0
v 5.96046e-08 4.3 0.1
v 5.96046e-08 4.3 0
v 5.96046e-08 4.4 0.3
v 5.96046e-08 4.4 0
v 5.96046e-08 4.5 0.3
v 5.96046e-08 4.5 0
v 0.1 3.4 0.3
v 0.1 3.4 0
v 0.1 3.5 0.3
v 0.1 3.5 0
v 0.2 0.3 0.3
v 0.2 0.3 -0.2
v 0.2 1.9 0.3
v 0.2 1.9 0
v 0.2 2 0
v 0.2 2 -0.1
v 0.2 2 -0.2
v 0.2 3.5 0.3
v 0.2 3.5 0
v 0.2 3.7 0.4
v 0.2 3.7 0.3
v 0.2 4.1 0.4
v 0.2 4.1 0.3
v 0.2 4.2 0.2
v 0.2 4.2 0
v 0.2 4.3 0.2
v 0.2 4.3 0
v 0.2 4.4 0.3
v 0.2 4.4 0
v 0.3 0.1 0.4
v 0.3 0.1 -0.3
v 0.3 0.3 0.4
v 0.3 0.3 -0.3
v 0.3 1.9 0.3
v 0.3 1.9 0
v 0.3 2 0.3
v 0.3 2 0.2
v 0.3 2 0
v 0.3 2 -0.1
v 0.3 2.8 0
v 0.3 2.8 -0.1
v 0.3 3 0.2
v 0.3 3 0
v 0.5 3 0.2
v 0.5 3 0
v 0.5 3.3 0.2
v 0.5 3.3 0
v 0.7 3.3 0.2
v 0.7 3.3 0
v 0.7 4.3 0.3
v 0.7 4.3 0.2
v 0.7 4.3 0
v 0.7 4.3 -0.1
v 0.7 4.5 0.3
v 0.7 4.5 -0.1
v -0.7 3.7 0.4
v -0.7 4.1 0.4
v -0.3 0.1 0.4
v -0.3 0.3 0.4
v 0.2 3.7 0.4
v 0.2 4.1 0.4
v 0.3 0.1 0.4
v 0.3 0.3 0.4
v -0.7 3.5 0.3
v -0.7 3.7 0.3
v -0.7 4.1 0.3
v -0.7 4.3 0.3
v -0.6 3.4 0.3
v -0.6 3.5 0.3
v -0.6 4.3 0.3
v -0.6 4.4 0.3
v -0.5 3.3 0.3
v -0.5 3.4 0.3
v -0.5 4.4 0.3
v -0.5 4.5 0.3
v -0.3 1.9 0.3
v -0.3 2 0.3
v -0.2 0.3 0.3
v -0.2 1.9 0.3
v 5.96046e-08 3.3 0.3
v 5.96046e-08 3.4 0.3
v 5.96046e-08 4.4 0.3
v 5.96046e-08 4.5 0.3
v 0.1 3.4 0.3
v 0.1 3.5 0.3
v 0.2 0.3 0.3
v 0.2 1.9 0.3
v 0.2 3.5 0.3
v 0.2 3.7 0.3
v 0.2 4.1 0.3
v 0.2 4.4 0.3
v 0.3 1.9 0.3
v 0.3 2 0.3
v 0.5 4.3 0.3
v 0.5 4.5 0.3
v 0.7 4.3 0.3
v 0.7 4.5 0.3
v -0.4 4.5 0.2
v -0.4 4.6 0.2
v -0.3 2 0.2
v -0.3 2.5 0.2
v -0.1 4.5 0.2
v -0.1 4.6 0.2
v 5.96046e-08 2.5 0.2
v 5.96046e-08 3.1 0.2
v 0.2 4.2 0.2
v 0.2 4.3 0.2
v 0.3 2 0.2
v 0.3 3 0.2
v 0.3 3.1 0.2
v 0.3 3.4 0.2
v 0.5 3 0.2
v 0.5 3.3 0.2
v 0.5 3.4 0.2
v 0.5 4.2 0.2
v 0.5 4.3 0.2
v 0.7 3.3 0.2
v 0.7 4.3 0.2
v -0.4 4.5 0.1
v -0.4 4.6 0.1
v -0.1 4.5 0.1
v -0.1 4.6 0.1
v 5.96046e-08 4.2 0.1
v 5.96046e-08 4.3 0.1
v 0.1 4.2 0.1
v 0.1 4.3 0.1
v -0.7 3.5 0
v -0.7 4.3 0
v -0.6 3.4 0
v -0.6 3.5 0
v -0.6 4.3 0
v -0.6 4.4 0
v -0.5 3.3 0
v -0.5 3.4 0
v -0.5 3.5 0
v -0.5 4.3 0
v -0.5 4.4 0
v -0.5 4.5 0
v -0.4 3.5 0
v -0.4 3.6 0
v -0.4 3.7 0
v -0.4 4 0
v -0.4 4.2 0
v -0.4 4.3 0
v -0.3 1.9 0
v -0.3 2 0
v -0.3 3.8 0
v -0.3 3.9 0
v -0.3 4.1 0
v -0.3 4.2 0
v -0.3 4.3 0
v -0.3 4.4 0
v -0.2 1.9 0
v -0.2 2 0
v -0.2 3.6 0
v -0.2 3.7 0
v -0.2 4.1 0
v -0.2 4.2 0
v -0.2 4.3 0
v -0.2 4.4 0
v -0.1 3.5 0
v -0.1 3.8 0
v -0.1 3.9 0
v -0.1 4 0
v -0.1 4.2 0
v -0.1 4.3 0
v 5.96046e-08 2.5 0
v 5.96046e-08 3.1 0
v 5.96046e-08 3.3 0
v 5.96046e-08 3.4 0
v 5.96046e-08 3.5 0
v 5.96046e-08 4.2 0
v 5.96046e-08 4.3 0
v 5.96046e-08 4.4 0
v 5.96046e-08 4.5 0
v 0.1 2.5 0
v 0.1 2.8 0
v 0.1 3.4 0
v 0.1 3.5 0
v 0.1 4.2 0
v 0.1 4.3 0
v 0.2 1.9 0
v 0.2 2 0
v 0.2 3.5 0
v 0.2 4.2 0
v 0.2 4.3 0
v 0.2 4.4 0
v 0.3 1.9 0
v 0.3 2 0
v 0.3 2.8 0
v 0.3 3 0
v 0.3 3.1 0
v 0.3 3.4 0
v 0.5 3 0
v 0.5 3.3 0
v 0.5 3.4 0
v 0.5 4.2 0
v 0.5 4.3 0
v 0.7 3.3 0
v 0.7 4.3 0
v -0.3 2 -0.1
v -0.3 2.5 -0.1
v -0.2 2 -0.1
v 0.1 2.5 -0.1
v 0.1 2.8 -0.1
v 0.2 2 -0.1
v 0.3 2 -0.1
v 0.3 2.8 -0.1
v 0.5 4.3 -0.1
v 0.5 4.5 -0.1
v 0.7 4.3 -0.1
v 0.7 4.5 -0.1
v -0.2 0.3 -0.2
v -0.2 2 -0.2
v 0.2 0.3 -0.2
v 0.2 2 -0.2
v -0.3 0.1 -0.3
v -0.3 0.3 -0.3
v 0.3 0.1 -0.3
v 0.3 0.3 -0.3
v -0.3 0.1 0.4
v 0.3 0.1 0.4
v -0.3 0.1 -0.3
v 0.3 0.1 -0.3
v -0.3 1.9 0.3
v -0.2 1.9 0.3
v 0.2 1.9 0.3
v 0.3 1.9 0.3
v -0.3 1.9 0
v -0.2 1.9 0
v 0.2 1.9 0
v 0.3 1.9 0
v -0.3 2 0
v -0.2 2 0
v 0.2 2 0
v 0.3 2 0
v -0.3 2 -0.1
v -0.2 2 -0.1
v 0.2 2 -0.1
v 0.3 2 -0.1
v 0.3 3 0.2
v 0.5 3 0.2
v 0.3 3 0
v 0.5 3 0
v -0.5 3.3 0.3
v 5.96046e-08 3.3 0.3
v 0.5 3.3 0.2
v 0.7 3.3 0.2
v -0.5 3.3 0
v 5.96046e-08 3.3 0
v 0.5 3.3 0
v 0.7 3.3 0
v -0.6 3.4 0.3
v -0.5 3.4 0.3
v 5.96046e-08 3.4 0.3
v 0.1 3.4 0.3
v -0.6 3.4 0
v -0.5 3.4 0
v 5.96046e-08 3.4 0
v 0.1 3.4 0
v -0.7 3.5 0.3
v -0.6 3.5 0.3
v 0.1 3.5 0.3
v 0.2 3.5 0.3
v -0.7 3.5 0
v -0.6 3.5 0
v 0.1 3.5 0
v 0.2 3.5 0
v -0.7 3.7 0.4
v 0.2 3.7 0.4
v -0.7 3.7 0.3
v 0.2 3.7 0.3
v 0.2 4.2 0.2
v 0.5 4.2 0.2
v 0.2 4.2 0
v 0.5 4.2 0
v 0.5 4.3 0.3
v 0.7 4.3 0.3
v 0.5 4.3 0.2
v 0.7 4.3 0.2
v 5.96046e-08 4.3 0.1
v 0.1 4.3 0.1
v 5.96046e-08 4.3 0
v 0.1 4.3 0
v 0.5 4.3 0
v 0.7 4.3 0
v 0.5 4.3 -0.1
v 0.7 4.3 -0.1
v -0.3 0.3 0.4
v 0.3 0.3 0.4
v -0.2 0.3 0.3
v 0.2 0.3 0.3
v -0.2 0.3 -0.2
v 0.2 0.3 -0.2
v -0.3 0.3 -0.3
v 0.3 0.3 -0.3
v -0.3 2 0.3
v 0.3 2 0.3
v -0.3 2 0.2
v 0.3 2 0.2
v -0.2 2 -0.1
v 0.2 2 -0.1
v -0.2 2 -0.2
v 0.2 2 -0.2
v -0.3 2.5 0.2
v 5.96046e-08 2.5 0.2
v -0.3 2.5 0
v 5.96046e-08 2.5 0
v 0.1 2.5 0
v -0.3 2.5 -0.1
v 0.1 2.5 -0.1
v 0.1 2.8 0
v 0.3 2.8 0
v 0.1 2.8 -0.1
v 0.3 2.8 -0.1
v 5.96046e-08 3.1 0.2
v 0.3 3.1 0.2
v 5.96046e-08 3.1 0
v 0.3 3.1 0
v 0.3 3.4 0.2
v 0.5 3.4 0.2
v 0.3 3.4 0
v 0.5 3.4 0
v -0.7 4.1 0.4
v 0.2 4.1 0.4
v -0.7 4.1 0.3
v 0.2 4.1 0.3
v 5.96046e-08 4.2 0.1
v 0.1 4.2 0.1
v 5.96046e-08 4.2 0
v 0.1 4.2 0
v -0.7 4.3 0.3
v -0.6 4.3 0.3
v 0.2 4.3 0.2
v 0.5 4.3 0.2
v -0.7 4.3 0
v -0.6 4.3 0
v 0.2 4.3 0
v 0.5 4.3 0
v -0.6 4.4 0.3
v -0.5 4.4 0.3
v 5.96046e-08 4.4 0.3
v 0.2 4.4 0.3
v -0.6 4.4 0
v -0.5 4.4 0
v 5.96046e-08 4.4 0
v 0.2 4.4 0
v -0.5 4.5 0.3
v 5.96046e-08 4.5 0.3
v 0.5 4.5 0.3
v 0.7 4.5 0.3
v -0.4 4.5 0.2
v -0.1 4.5 0.2
v -0.4 4.5 0.1
v -0.1 4.5 0.1
v -0.5 4.5 0
v 5.96046e-08 4.5 0
v 0.5 4.5 -0.1
v 0.7 4.5 -0.1
v -0.4 4.6 0.2
v -0.1 4.6 0.2
v -0.4 4.6 0.1
v -0.1 4.6 0.1

# faces
f 4/4/1 2/4/1 1/4/1
f 5/5/1 4/5/1 3/5/1
f 6/4/1 2/4/1 4/4/1
f 6/5/1 4/5/1 5/5/1
f 7/4/1 2/4/1 6/4/1
f 8/4/1 2/4/1 7/4/1
f 11/4/1 10/4/1 9/4/1
f 12/4/1 10/4/1 11/4/1
f 15/4/1 14/4/1 13/4/1
f 16/4/1 14/4/1 15/4/1
f 19/4/1 18/4/1 17/4/1
f 20/4/1 18/4/1 19/4/1
f 23/4/1 22/4/1 21/4/1
f 24/4/1 22/4/1 23/4/1
f 27/4/1 26/4/1 25/4/1
f 28/4/1 26/4/1 27/4/1
f 31/1/1 30/1/1 29/1/1
f 32/1/1 30/1/1 31/1/1
f 35/3/1 34/3/1 33/3/1
f 36/3/1 34/3/1 35/3/1
f 37/3/1 34/3/1 36/3/1
f 39/3/1 37/3/1 36/3/1
f 40/4/1 38/4/1 37/4/1
f 40/3/1 37/3/1 39/3/1
f 41/4/1 38/4/1 40/4/1
f 44/1/1 43/1/1 42/1/1
f 45/1/1 43/1/1 44/1/1
f 46/1/1 43/1/1 45/1/1
f 47/1/1 43/1/1 46/1/1
f 48/1/1 43/1/1 47/1/1
f 51/3/1 50/3/1 49/3/1
f 52/3/1 50/3/1 51/3/1
f 55/4/1 54/4/1 53/4/1
f 56/4/1 54/4/1 55/4/1
f 59/4/1 58/4/1 57/4/1
f 60/4/1 58/4/1 59/4/1
f 63/3/1 62/3/1 61/3/1
f 64/3/1 62/3/1 63/3/1
f 67/3/1 66/3/1 65/3/1
f 68/3/1 66/3/1 67/3/1
f 73/1/1 71/1/1 70/1/1
f 73/1/1 72/1/1 71/1/1
f 73/1/1 70/1/1 69/1/1
f 74/1/1 72/1/1 73/1/1
f 75/4/2 76/4/2 77/4/2
f 77/4/2 76/4/2 78/4/2
f 79/4/2 80/4/2 81/4/2
f 81/4/2 80/4/2 82/4/2
f 83/5/2 84/5/2 85/5/2
f 85/5/2 84/5/2 86/5/2
f 87/4/2 88/4/2 89/4/2
f 89/4/2 88/4/2 90/4/2
f 91/4/2 92/4/2 93/4/2
f 93/4/2 92/4/2 94/4/2
f 95/1/2 96/1/2 97/1/2
f 97/1/2 96/1/2 98/1/2
f 98/1/2 96/1/2 99/1/2
f 99/1/2 96/1/2 100/1/2
f 100/1/2 96/1/2 101/1/2
f 102/4/2 103/4/2 105/4/2
f 104/5/2 105/5/2 106/5/2
f 105/4/2 103/4/2 107/4/2
f 106/5/2 105/5/2 107/5/2
f 107/4/2 103/4/2 108/4/2
f 108/4/2 103/4/2 109/4/2
f 107/4/2 108/4/2 110/4/2
f 107/4/2 110/4/2 112/4/2
f 110/4/2 111/4/2 112/4/2
f 112/4/2 111/4/2 113/4/2
f 114/1/2 115/1/2 116/1/2
f 116/1/2 115/1/2 117/1/2
f 118/3/2 119/3/2 120/3/2
f 120/3/2 119/3/2 121/3/2
f 121/3/2 119/3/2 122/3/2
f 122/4/2 123/4/2 124/4/2
f 121/3/2 122/3/2 124/3/2
f 124/4/2 123/4/2 125/4/2
f 121/3/2 124/3/2 126/3/2
f 126/3/2 124/3/2 127/3/2
f 128/3/2 129/3/2 130/3/2
f 130/3/2 129/3/2 131/3/2
f 132/3/2 133/3/2 135/3/2
f 135/3/2 133/3/2 136/3/2
f 134/1/2 135/1/2 138/1/2
f 136/1/2 137/1/2 138/1/2
f 135/1/2 136/1/2 138/1/2
f 138/1/2 137/1/2 139/1/2
f 144/5/3 141/5/3 140/5/3
f 145/5/3 141/5/3 144/5/3
f 146/1/3 143/1/3 142/1/3
f 147/1/3 143/1/3 146/1/3
f 153/4/3 149/4/3 148/4/3
f 154/4/3 151/4/3 150/4/3
f 157/4/3 153/4/3 152/4/3
f 158/4/3 155/4/3 154/4/3
f 163/3/3 161/3/3 160/3/3
f 164/4/3 157/4/3 156/4/3
f 165/4/3 153/4/3 157/4/3
f 165/4/3 157/4/3 164/4/3
f 166/4/3 158/4/3 154/4/3
f 166/4/3 159/4/3 158/4/3
f 167/4/3 159/4/3 166/4/3
f 168/4/3 153/4/3 165/4/3
f 169/4/3 149/4/3 153/4/3
f 169/4/3 153/4/3 168/4/3
f 170/1/3 163/1/3 162/1/3
f 171/3/3 161/3/3 163/3/3
f 171/1/3 163/1/3 170/1/3
f 172/4/3 149/4/3 169/4/3
f 173/4/3 149/4/3 172/4/3
f 174/4/3 154/4/3 150/4/3
f 174/4/3 166/4/3 154/4/3
f 175/4/3 166/4/3 174/4/3
f 176/3/3 161/3/3 171/3/3
f 177/3/3 161/3/3 176/3/3
f 180/1/3 179/1/3 178/1/3
f 181/1/3 179/1/3 180/1/3
f 186/4/3 183/4/3 182/4/3
f 187/4/3 183/4/3 186/4/3
f 188/3/3 185/3/3 184/3/3
f 192/3/3 188/3/3 184/3/3
f 192/3/3 189/3/3 188/3/3
f 193/3/3 189/3/3 192/3/3
f 194/3/3 189/3/3 193/3/3
f 196/3/3 195/3/3 194/3/3
f 196/3/3 194/3/3 193/3/3
f 197/3/3 195/3/3 196/3/3
f 198/3/3 195/3/3 197/3/3
f 199/3/3 191/3/3 190/3/3
f 200/3/3 191/3/3 199/3/3
f 201/3/3 198/3/3 197/3/3
f 201/3/3 200/3/3 199/3/3
f 201/3/3 199/3/3 198/3/3
f 202/3/3 200/3/3 201/3/3
f 203/4/4 204/4/4 205/4/4
f 205/4/4 204/4/4 206/4/4
f 207/5/4 208/5/4 209/5/4
f 209/5/4 208/5/4 210/5/4
f 211/4/4 212/4/4 214/4/4
f 214/4/4 212/4/4 215/4/4
f 213/4/4 214/4/4 218/4/4
f 214/5/4 215/5/4 219/5/4
f 218/4/4 214/4/4 219/4/4
f 215/4/4 216/4/4 220/4/4
f 219/5/4 215/5/4 220/5/4
f 220/4/4 216/4/4 221/4/4
f 218/5/4 219/5/4 223/5/4
f 219/5/4 220/5/4 223/5/4
f 220/5/4 221/5/4 223/5/4
f 223/5/4 221/5/4 224/5/4
f 224/5/4 221/5/4 225/5/4
f 225/5/4 221/5/4 226/5/4
f 226/5/4 221/5/4 227/5/4
f 227/5/4 221/5/4 228/5/4
f 225/2/4 226/2/4 231/2/4
f 231/2/4 226/2/4 232/2/4
f 226/5/4 227/5/4 233/5/4
f 227/2/4 228/2/4 234/2/4
f 233/5/4 227/5/4 234/5/4
f 228/5/4 221/5/4 235/5/4
f 234/2/4 228/2/4 235/2/4
f 221/4/4 222/4/4 236/4/4
f 235/5/4 221/5/4 236/5/4
f 229/3/4 230/3/4 237/3/4
f 237/3/4 230/3/4 238/3/4
f 223/2/4 224/2/4 239/2/4
f 224/5/4 225/5/4 239/5/4
f 225/2/4 231/2/4 240/2/4
f 239/5/4 225/5/4 240/5/4
f 234/2/4 235/2/4 241/2/4
f 226/5/4 233/5/4 241/5/4
f 233/2/4 234/2/4 241/2/4
f 235/2/4 236/2/4 241/2/4
f 241/2/4 236/2/4 242/2/4
f 242/2/4 236/2/4 243/2/4
f 236/4/4 222/4/4 244/4/4
f 243/2/4 236/2/4 244/2/4
f 218/5/4 223/5/4 245/5/4
f 239/2/4 240/2/4 245/2/4
f 223/2/4 239/2/4 245/2/4
f 240/2/4 231/2/4 246/2/4
f 245/2/4 240/2/4 246/2/4
f 231/5/4 232/5/4 246/5/4
f 232/2/4 226/2/4 247/2/4
f 246/5/4 232/5/4 247/5/4
f 241/5/4 242/5/4 248/5/4
f 247/2/4 226/2/4 248/2/4
f 226/5/4 241/5/4 248/5/4
f 242/2/4 243/2/4 249/2/4
f 248/5/4 242/5/4 249/5/4
f 243/5/4 244/5/4 250/5/4
f 249/2/4 243/2/4 250/2/4
f 217/4/4 218/4/4 253/4/4
f 218/5/4 245/5/4 254/5/4
f 253/4/4 218/4/4 254/4/4
f 248/5/4 249/5/4 254/5/4
f 247/5/4 248/5/4 254/5/4
f 249/5/4 250/5/4 254/5/4
f 246/5/4 247/5/4 254/5/4
f 245/5/4 246/5/4 254/5/4
f 254/5/4 250/5/4 255/5/4
f 255/5/4 250/5/4 256/5/4
f 250/5/4 244/5/4 257/5/4
f 256/5/4 250/5/4 257/5/4
f 244/4/4 222/4/4 258/4/4
f 257/5/4 244/5/4 258/5/4
f 258/4/4 222/4/4 259/4/4
f 251/3/4 252/3/4 260/3/4
f 260/3/4 252/3/4 261/3/4
f 254/4/4 255/4/4 262/4/4
f 255/5/4 256/5/4 263/5/4
f 262/4/4 255/4/4 263/4/4
f 263/5/4 256/5/4 264/5/4
f 257/4/4 258/4/4 265/4/4
f 263/4/4 264/4/4 268/4/4
f 264/4/4 265/4/4 268/4/4
f 268/4/4 265/4/4 269/4/4
f 265/4/4 258/4/4 270/4/4
f 269/4/4 265/4/4 270/4/4
f 270/4/4 258/4/4 271/4/4
f 266/3/4 267/3/4 272/3/4
f 272/3/4 267/3/4 273/3/4
f 261/3/4 252/3/4 274/3/4
f 274/3/4 252/3/4 275/3/4
f 275/3/4 252/3/4 276/3/4
f 276/3/4 277/3/4 278/3/4
f 275/3/4 276/3/4 278/3/4
f 278/3/4 277/3/4 279/3/4
f 279/3/4 277/3/4 280/3/4
f 269/3/4 270/3/4 281/3/4
f 281/3/4 270/3/4 282/3/4
f 279/3/4 280/3/4 283/3/4
f 281/3/4 282/3/4 283/3/4
f 280/3/4 281/3/4 283/3/4
f 283/3/4 282/3/4 284/3/4
f 285/4/4 286/4/4 287/4/4
f 287/4/4 286/4/4 288/4/4
f 287/4/4 288/4/4 290/4/4
f 288/4/4 289/4/4 290/4/4
f 290/4/4 289/4/4 291/4/4
f 291/4/4 289/4/4 292/4/4
f 293/1/4 294/1/4 295/1/4
f 295/1/4 294/1/4 296/1/4
f 297/1/4 298/1/4 299/1/4
f 299/1/4 298/1/4 300/1/4
f 301/1/4 302/1/4 303/1/4
f 303/1/4 302/1/4 304/1/4
f 307/1/5 306/1/5 305/1/5
f 308/1/5 306/1/5 307/1/5
f 313/3/5 310/3/5 309/3/5
f 314/3/5 310/3/5 313/3/5
f 315/3/5 312/3/5 311/3/5
f 316/3/5 312/3/5 315/3/5
f 321/4/5 318/4/5 317/4/5
f 322/4/5 318/4/5 321/4/5
f 323/4/5 320/4/5 319/4/5
f 324/4/5 320/4/5 323/4/5
f 327/3/5 326/3/5 325/3/5
f 328/3/5 326/3/5 327/3/5
f 333/4/5 330/4/5 329/4/5
f 334/4/5 330/4/5 333/4/5
f 335/3/5 332/3/5 331/3/5
f 336/3/5 332/3/5 335/3/5
f 341/4/5 338/4/5 337/4/5
f 342/4/5 338/4/5 341/4/5
f 343/4/5 340/4/5 339/4/5
f 344/4/5 340/4/5 343/4/5
f 349/4/5 346/4/5 345/4/5
f 350/4/5 346/4/5 349/4/5
f 351/4/5 348/4/5 347/4/5
f 352/4/5 348/4/5 351/4/5
f 355/5/5 354/5/5 353/5/5
f 356/5/5 354/5/5 355/5/5
f 359/3/5 358/3/5 357/3/5
f 360/3/5 358/3/5 359/3/5
f 363/1/5 362/1/5 361/1/5
f 364/1/5 362/1/5 363/1/5
f 367/4/5 366/4/5 365/4/5
f 368/4/5 366/4/5 367/4/5
f 371/1/5 370/1/5 369/1/5
f 372/1/5 370/1/5 371/1/5
f 373/1/6 374/1/6 375/1/6
f 375/1/6 374/1/6 376/1/6
f 373/1/6 375/1/6 377/1/6
f 376/1/6 374/1/6 378/1/6
f 373/1/6 377/1/6 379/1/6
f 377/1/6 378/1/6 379/1/6
f 378/1/6 374/1/6 380/1/6
f 379/1/6 378/1/6 380/1/6
f 381/3/6 382/3/6 383/3/6
f 383/3/6 382/3/6 384/3/6
f 385/1/6 386/1/6 387/1/6
f 387/1/6 386/1/6 388/1/6
f 389/3/6 390/3/6 391/3/6
f 391/3/6 390/3/6 392/3/6
f 391/4/6 392/4/6 394/4/6
f 392/4/6 393/4/6 394/4/6
f 394/4/6 393/4/6 395/4/6
f 396/4/6 397/4/6 398/4/6
f 398/4/6 397/4/6 399/4/6
f 400/3/6 401/3/6 402/3/6
f 402/3/6 401/3/6 403/3/6
f 404/3/6 405/3/6 406/3/6
f 406/3/6 405/3/6 407/3/6
f 408/5/6 409/5/6 410/5/6
f 410/5/6 409/5/6 411/5/6
f 412/5/6 413/5/6 414/5/6
f 414/5/6 413/5/6 415/5/6
f 416/4/6 417/4/6 420/4/6
f 420/4/6 417/4/6 421/4/6
f 418/3/6 419/3/6 422/3/6
f 422/3/6 419/3/6 423/3/6
f 424/4/6 425/4/6 428/4/6
f 428/4/6 425/4/6 429/4/6
f 426/4/6 427/4/6 430/4/6
f 430/4/6 427/4/6 431/4/6
f 432/4/6 433/4/6 436/4/6
f 436/4/6 433/4/6 437/4/6
f 432/4/6 436/4/6 438/4/6
f 437/4/6 433/4/6 439/4/6
f 432/4/6 438/4/6 440/4/6
f 438/4/6 439/4/6 440/4/6
f 439/4/6 433/4/6 441/4/6
f 440/4/6 439/4/6 441/4/6
f 434/1/6 435/1/6 442/1/6
f 442/1/6 435/1/6 443/1/6
f 444/4/6 445/4/6 446/4/6
f 446/4/6 445/4/6 447/4/6
