# MagicaVoxel @ Ephtracy

# group
o 

# material
mtllib belly modeling.mtl
usemtl palette

# normals
vn -1 0 0
vn 1 0 0
vn 0 0 1
vn 0 0 -1
vn 0 -1 0
vn 0 1 0

# texcoords
vt 0.958984 0.5
vt 0.978516 0.5
vt 0.982422 0.5
vt 0.986328 0.5
vt 0.990234 0.5
vt 0.994141 0.5

# verts
v -0.6 2.7 0.4
v -0.6 2.7 -0.1
v -0.6 3.4 0.4
v -0.6 3.4 -0.1
v -0.5 2.6 0.4
v -0.5 2.6 -0.1
v -0.5 2.7 0.5
v -0.5 2.7 0.4
v -0.5 2.7 -0.1
v -0.5 2.7 -0.2
v -0.5 3 0.5
v -0.5 3 0.4
v -0.5 3.2 0.5
v -0.5 3.2 0.4
v -0.5 3.4 0.5
v -0.5 3.4 0.4
v -0.5 3.4 -0.1
v -0.5 3.4 -0.2
v -0.4 2.4 0.5
v -0.4 2.4 0.4
v -0.4 2.5 0.5
v -0.4 2.5 0.4
v -0.4 2.6 0.4
v -0.4 2.7 0.5
v -0.4 2.7 0.4
v 0.3 2.6 0.4
v 0.3 2.6 0.3
v 0.3 2.7 0.5
v 0.3 2.7 0.4
v 0.3 2.7 0.3
v 0.3 2.8 0.3
v 0.3 3 0.5
v 0.3 3 0.4
v 0.3 3.1 0.3
v 0.3 3.2 0.5
v 0.3 3.2 0.4
v 0.3 3.2 0.3
v 0.3 3.3 0.3
v 0.3 3.4 0.5
v 0.3 3.4 0.3
v 0.4 2.4 0.5
v 0.4 2.4 0.4
v 0.4 2.5 0.5
v 0.4 2.5 0.4
v 0.4 2.6 0.4
v 0.4 2.7 0.5
v 0.4 2.7 0.4
v -0.2 2.4 0.5
v -0.2 2.4 0.4
v -0.2 2.5 0.5
v -0.2 2.5 0.4
v -0.2 2.6 0.4
v -0.2 2.7 0.5
v -0.2 2.7 0.4
v -0.1 2.6 0.4
v -0.1 2.6 0.3
v -0.1 2.7 0.5
v -0.1 2.7 0.4
v -0.1 2.7 0.3
v -0.1 2.8 0.3
v -0.1 3 0.5
v -0.1 3 0.4
v -0.1 3.1 0.3
v -0.1 3.2 0.5
v -0.1 3.2 0.4
v -0.1 3.2 0.3
v -0.1 3.3 0.3
v -0.1 3.4 0.5
v -0.1 3.4 0.3
v 0.6 2.4 0.5
v 0.6 2.4 0.4
v 0.6 2.5 0.5
v 0.6 2.5 0.4
v 0.6 2.6 0.4
v 0.6 2.7 0.5
v 0.6 2.7 0.4
v 0.7 2.6 0.4
v 0.7 2.6 -0.1
v 0.7 2.7 0.5
v 0.7 2.7 0.4
v 0.7 2.7 -0.1
v 0.7 2.7 -0.2
v 0.7 3 0.5
v 0.7 3 0.4
v 0.7 3.2 0.5
v 0.7 3.2 0.4
v 0.7 3.4 0.5
v 0.7 3.4 0.4
v 0.7 3.4 -0.1
v 0.7 3.4 -0.2
v 0.8 2.7 0.4
v 0.8 2.7 -0.1
v 0.8 3.4 0.4
v 0.8 3.4 -0.1
v -0.5 2.7 0.5
v -0.5 3 0.5
v -0.5 3.2 0.5
v -0.5 3.4 0.5
v -0.4 2.4 0.5
v -0.4 2.5 0.5
v -0.4 2.7 0.5
v -0.4 3 0.5
v -0.4 3.1 0.5
v -0.2 2.4 0.5
v -0.2 2.5 0.5
v -0.2 2.7 0.5
v -0.2 3 0.5
v -0.2 3.1 0.5
v -0.1 2.7 0.5
v -0.1 3 0.5
v -0.1 3.2 0.5
v -0.1 3.4 0.5
v 0.3 2.7 0.5
v 0.3 3 0.5
v 0.3 3.2 0.5
v 0.3 3.4 0.5
v 0.4 2.4 0.5
v 0.4 2.5 0.5
v 0.4 2.7 0.5
v 0.4 3 0.5
v 0.4 3.1 0.5
v 0.6 2.4 0.5
v 0.6 2.5 0.5
v 0.6 2.7 0.5
v 0.6 3 0.5
v 0.6 3.1 0.5
v 0.7 2.7 0.5
v 0.7 3 0.5
v 0.7 3.2 0.5
v 0.7 3.4 0.5
v -0.6 2.7 0.4
v -0.6 3.4 0.4
v -0.5 2.6 0.4
v -0.5 2.7 0.4
v -0.5 3 0.4
v -0.5 3.2 0.4
v -0.5 3.4 0.4
v -0.4 2.6 0.4
v -0.4 2.7 0.4
v -0.2 2.6 0.4
v -0.2 2.7 0.4
v -0.1 2.6 0.4
v -0.1 2.7 0.4
v 0.3 2.6 0.4
v 0.3 2.7 0.4
v 0.4 2.6 0.4
v 0.4 2.7 0.4
v 0.6 2.6 0.4
v 0.6 2.7 0.4
v 0.7 2.6 0.4
v 0.7 2.7 0.4
v 0.7 3 0.4
v 0.7 3.2 0.4
v 0.7 3.4 0.4
v 0.8 2.7 0.4
v 0.8 3.4 0.4
v -0.1 2.6 0.3
v -0.1 2.7 0.3
v -0.1 2.8 0.3
v -0.1 3.1 0.3
v -0.1 3.2 0.3
v -0.1 3.3 0.3
v -0.1 3.4 0.3
v 0.3 2.6 0.3
v 0.3 2.7 0.3
v 0.3 2.8 0.3
v 0.3 3.1 0.3
v 0.3 3.2 0.3
v 0.3 3.3 0.3
v 0.3 3.4 0.3
v -0.4 2.4 0.4
v -0.4 2.5 0.4
v -0.4 2.6 0.4
v -0.2 2.4 0.4
v -0.2 2.5 0.4
v -0.2 2.6 0.4
v 0.4 2.4 0.4
v 0.4 2.5 0.4
v 0.4 2.6 0.4
v 0.6 2.4 0.4
v 0.6 2.5 0.4
v 0.6 2.6 0.4
v -0.6 2.7 -0.1
v -0.6 3.4 -0.1
v -0.5 2.6 -0.1
v -0.5 2.7 -0.1
v -0.5 3.4 -0.1
v 0.7 2.6 -0.1
v 0.7 2.7 -0.1
v 0.7 3.4 -0.1
v 0.8 2.7 -0.1
v 0.8 3.4 -0.1
v -0.5 2.7 -0.2
v -0.5 3.4 -0.2
v 0.7 2.7 -0.2
v 0.7 3.4 -0.2
v -0.4 2.4 0.5
v -0.2 2.4 0.5
v 0.4 2.4 0.5
v 0.6 2.4 0.5
v -0.4 2.4 0.4
v -0.2 2.4 0.4
v 0.4 2.4 0.4
v 0.6 2.4 0.4
v -0.5 2.6 0.4
v -0.4 2.6 0.4
v -0.2 2.6 0.4
v -0.1 2.6 0.4
v 0.3 2.6 0.4
v 0.4 2.6 0.4
v 0.6 2.6 0.4
v 0.7 2.6 0.4
v -0.4 2.6 0.3
v -0.1 2.6 0.3
v 0.3 2.6 0.3
v 0.6 2.6 0.3
v -0.4 2.6 -1.19209e-07
v 0.6 2.6 -1.19209e-07
v -0.5 2.6 -0.1
v 0.7 2.6 -0.1
v -0.5 2.7 0.5
v -0.4 2.7 0.5
v -0.2 2.7 0.5
v -0.1 2.7 0.5
v 0.3 2.7 0.5
v 0.4 2.7 0.5
v 0.6 2.7 0.5
v 0.7 2.7 0.5
v -0.6 2.7 0.4
v -0.5 2.7 0.4
v -0.4 2.7 0.4
v -0.2 2.7 0.4
v -0.1 2.7 0.4
v 0.3 2.7 0.4
v 0.4 2.7 0.4
v 0.6 2.7 0.4
v 0.7 2.7 0.4
v 0.8 2.7 0.4
v -0.6 2.7 -0.1
v -0.5 2.7 -0.1
v 0.7 2.7 -0.1
v 0.8 2.7 -0.1
v -0.5 2.7 -0.2
v 0.7 2.7 -0.2
v -0.5 3.4 0.5
v -0.1 3.4 0.5
v 0.3 3.4 0.5
v 0.7 3.4 0.5
v -0.6 3.4 0.4
v -0.5 3.4 0.4
v 0.7 3.4 0.4
v 0.8 3.4 0.4
v -0.4 3.4 0.3
v -0.1 3.4 0.3
v 0.3 3.4 0.3
v 0.6 3.4 0.3
v -0.1 3.4 0.2
v 0.3 3.4 0.2
v -0.4 3.4 -1.19209e-07
v 0.6 3.4 -1.19209e-07
v -0.6 3.4 -0.1
v -0.5 3.4 -0.1
v 0.7 3.4 -0.1
v 0.8 3.4 -0.1
v -0.5 3.4 -0.2
v 0.7 3.4 -0.2

# faces
f 3/3/1 2/3/1 1/3/1
f 4/3/1 2/3/1 3/3/1
f 8/4/1 6/4/1 5/4/1
f 9/4/1 6/4/1 8/4/1
f 11/3/1 8/3/1 7/3/1
f 12/3/1 8/3/1 11/3/1
f 13/4/1 12/4/1 11/4/1
f 14/4/1 12/4/1 13/4/1
f 15/3/1 14/3/1 13/3/1
f 16/3/1 14/3/1 15/3/1
f 17/3/1 10/3/1 9/3/1
f 18/3/1 10/3/1 17/3/1
f 21/5/1 20/5/1 19/5/1
f 22/5/1 20/5/1 21/5/1
f 23/2/1 22/2/1 21/2/1
f 24/2/1 23/2/1 21/2/1
f 25/2/1 23/2/1 24/2/1
f 29/4/1 27/4/1 26/4/1
f 30/4/1 27/4/1 29/4/1
f 31/3/1 29/3/1 28/3/1
f 31/3/1 30/3/1 29/3/1
f 32/3/1 31/3/1 28/3/1
f 33/3/1 31/3/1 32/3/1
f 34/3/1 31/3/1 33/3/1
f 35/4/1 33/4/1 32/4/1
f 36/3/1 34/3/1 33/3/1
f 36/4/1 33/4/1 35/4/1
f 37/3/1 34/3/1 36/3/1
f 38/3/1 36/3/1 35/3/1
f 38/3/1 37/3/1 36/3/1
f 39/3/1 38/3/1 35/3/1
f 40/3/1 38/3/1 39/3/1
f 43/5/1 42/5/1 41/5/1
f 44/5/1 42/5/1 43/5/1
f 45/2/1 44/2/1 43/2/1
f 46/2/1 45/2/1 43/2/1
f 47/2/1 45/2/1 46/2/1
f 48/5/2 49/5/2 50/5/2
f 50/5/2 49/5/2 51/5/2
f 50/2/2 51/2/2 52/2/2
f 50/2/2 52/2/2 53/2/2
f 53/2/2 52/2/2 54/2/2
f 55/4/2 56/4/2 58/4/2
f 58/4/2 56/4/2 59/4/2
f 57/3/2 58/3/2 60/3/2
f 58/3/2 59/3/2 60/3/2
f 57/3/2 60/3/2 61/3/2
f 61/3/2 60/3/2 62/3/2
f 62/3/2 60/3/2 63/3/2
f 61/4/2 62/4/2 64/4/2
f 62/3/2 63/3/2 65/3/2
f 64/4/2 62/4/2 65/4/2
f 65/3/2 63/3/2 66/3/2
f 64/3/2 65/3/2 67/3/2
f 65/3/2 66/3/2 67/3/2
f 64/3/2 67/3/2 68/3/2
f 68/3/2 67/3/2 69/3/2
f 70/5/2 71/5/2 72/5/2
f 72/5/2 71/5/2 73/5/2
f 72/2/2 73/2/2 74/2/2
f 72/2/2 74/2/2 75/2/2
f 75/2/2 74/2/2 76/2/2
f 77/4/2 78/4/2 80/4/2
f 80/4/2 78/4/2 81/4/2
f 79/3/2 80/3/2 83/3/2
f 83/3/2 80/3/2 84/3/2
f 83/4/2 84/4/2 85/4/2
f 85/4/2 84/4/2 86/4/2
f 85/3/2 86/3/2 87/3/2
f 87/3/2 86/3/2 88/3/2
f 81/3/2 82/3/2 89/3/2
f 89/3/2 82/3/2 90/3/2
f 91/3/2 92/3/2 93/3/2
f 93/3/2 92/3/2 94/3/2
f 101/3/3 96/3/3 95/3/3
f 102/4/3 97/4/3 96/4/3
f 102/3/3 96/3/3 101/3/3
f 103/4/3 97/4/3 102/4/3
f 104/5/3 100/5/3 99/5/3
f 105/2/3 101/2/3 100/2/3
f 105/5/3 100/5/3 104/5/3
f 105/2/3 102/2/3 101/2/3
f 106/2/3 102/2/3 105/2/3
f 107/5/3 103/5/3 102/5/3
f 107/2/3 102/2/3 106/2/3
f 108/4/3 97/4/3 103/4/3
f 108/5/3 103/5/3 107/5/3
f 109/3/3 107/3/3 106/3/3
f 110/4/3 108/4/3 107/4/3
f 110/3/3 107/3/3 109/3/3
f 111/4/3 97/4/3 108/4/3
f 111/4/3 108/4/3 110/4/3
f 111/3/3 98/3/3 97/3/3
f 112/3/3 98/3/3 111/3/3
f 119/3/3 114/3/3 113/3/3
f 120/4/3 115/4/3 114/4/3
f 120/3/3 114/3/3 119/3/3
f 121/4/3 115/4/3 120/4/3
f 122/5/3 118/5/3 117/5/3
f 123/2/3 119/2/3 118/2/3
f 123/5/3 118/5/3 122/5/3
f 123/2/3 120/2/3 119/2/3
f 124/2/3 120/2/3 123/2/3
f 125/5/3 121/5/3 120/5/3
f 125/2/3 120/2/3 124/2/3
f 126/4/3 115/4/3 121/4/3
f 126/5/3 121/5/3 125/5/3
f 127/3/3 125/3/3 124/3/3
f 128/4/3 126/4/3 125/4/3
f 128/3/3 125/3/3 127/3/3
f 129/4/3 115/4/3 126/4/3
f 129/4/3 126/4/3 128/4/3
f 129/3/3 116/3/3 115/3/3
f 130/3/3 116/3/3 129/3/3
f 134/3/3 132/3/3 131/3/3
f 135/3/3 132/3/3 134/3/3
f 136/3/3 132/3/3 135/3/3
f 137/3/3 132/3/3 136/3/3
f 138/4/3 134/4/3 133/4/3
f 139/4/3 134/4/3 138/4/3
f 142/4/3 141/4/3 140/4/3
f 143/4/3 141/4/3 142/4/3
f 146/4/3 145/4/3 144/4/3
f 147/4/3 145/4/3 146/4/3
f 150/4/3 149/4/3 148/4/3
f 151/4/3 149/4/3 150/4/3
f 155/3/3 154/3/3 153/3/3
f 155/3/3 153/3/3 152/3/3
f 155/3/3 152/3/3 151/3/3
f 156/3/3 154/3/3 155/3/3
f 164/6/3 158/6/3 157/6/3
f 164/6/3 159/6/3 158/6/3
f 165/6/3 159/6/3 164/6/3
f 166/1/3 160/1/3 159/1/3
f 166/6/3 159/6/3 165/6/3
f 167/6/3 161/6/3 160/6/3
f 167/1/3 160/1/3 166/1/3
f 168/1/3 162/1/3 161/1/3
f 168/6/3 161/6/3 167/6/3
f 169/6/3 163/6/3 162/6/3
f 169/1/3 162/1/3 168/1/3
f 170/6/3 163/6/3 169/6/3
f 171/5/4 172/5/4 174/5/4
f 172/2/4 173/2/4 175/2/4
f 174/5/4 172/5/4 175/5/4
f 175/2/4 173/2/4 176/2/4
f 177/5/4 178/5/4 180/5/4
f 178/2/4 179/2/4 181/2/4
f 180/5/4 178/5/4 181/5/4
f 181/2/4 179/2/4 182/2/4
f 183/3/4 184/3/4 186/3/4
f 186/3/4 184/3/4 187/3/4
f 185/4/4 186/4/4 188/4/4
f 188/4/4 186/4/4 189/4/4
f 189/3/4 190/3/4 191/3/4
f 191/3/4 190/3/4 192/3/4
f 193/3/4 194/3/4 195/3/4
f 195/3/4 194/3/4 196/3/4
f 201/5/5 198/5/5 197/5/5
f 202/5/5 198/5/5 201/5/5
f 203/5/5 200/5/5 199/5/5
f 204/5/5 200/5/5 203/5/5
f 213/4/5 206/4/5 205/4/5
f 213/4/5 207/4/5 206/4/5
f 213/4/5 208/4/5 207/4/5
f 214/4/5 208/4/5 213/4/5
f 215/4/5 212/4/5 211/4/5
f 215/4/5 211/4/5 210/4/5
f 215/4/5 210/4/5 209/4/5
f 216/4/5 212/4/5 215/4/5
f 217/6/5 214/6/5 213/6/5
f 217/4/5 213/4/5 205/4/5
f 217/6/5 216/6/5 215/6/5
f 217/6/5 215/6/5 214/6/5
f 218/4/5 212/4/5 216/4/5
f 218/6/5 216/6/5 217/6/5
f 219/4/5 217/4/5 205/4/5
f 219/4/5 218/4/5 217/4/5
f 220/4/5 212/4/5 218/4/5
f 220/4/5 218/4/5 219/4/5
f 230/3/5 222/3/5 221/3/5
f 231/3/5 222/3/5 230/3/5
f 232/3/5 224/3/5 223/3/5
f 233/3/5 224/3/5 232/3/5
f 234/3/5 226/3/5 225/3/5
f 235/3/5 226/3/5 234/3/5
f 236/3/5 228/3/5 227/3/5
f 237/3/5 228/3/5 236/3/5
f 239/3/5 230/3/5 229/3/5
f 240/3/5 230/3/5 239/3/5
f 241/3/5 238/3/5 237/3/5
f 242/3/5 238/3/5 241/3/5
f 243/3/5 241/3/5 240/3/5
f 244/3/5 241/3/5 243/3/5
f 245/3/6 246/3/6 250/3/6
f 247/3/6 248/3/6 251/3/6
f 249/3/6 250/3/6 253/3/6
f 250/3/6 246/3/6 253/3/6
f 253/3/6 246/3/6 254/3/6
f 251/3/6 252/3/6 255/3/6
f 247/3/6 251/3/6 255/3/6
f 255/3/6 252/3/6 256/3/6
f 253/1/6 254/1/6 257/1/6
f 254/6/6 255/6/6 257/6/6
f 255/1/6 256/1/6 258/1/6
f 257/6/6 255/6/6 258/6/6
f 249/3/6 253/3/6 259/3/6
f 253/1/6 257/1/6 259/1/6
f 257/1/6 258/1/6 259/1/6
f 256/3/6 252/3/6 260/3/6
f 259/1/6 258/1/6 260/1/6
f 258/1/6 256/1/6 260/1/6
f 249/3/6 259/3/6 261/3/6
f 259/3/6 260/3/6 261/3/6
f 261/3/6 260/3/6 262/3/6
f 260/3/6 252/3/6 263/3/6
f 262/3/6 260/3/6 263/3/6
f 263/3/6 252/3/6 264/3/6
f 262/3/6 263/3/6 265/3/6
f 265/3/6 263/3/6 266/3/6
