# MagicaVoxel @ Ephtracy

# group
o 

# material
mtllib upper arm modeling.mtl
usemtl palette

# normals
vn -1 0 0
vn 1 0 0
vn 0 0 1
vn 0 0 -1
vn 0 -1 0
vn 0 1 0

# texcoords
vt 0.978516 0.5
vt 0.982422 0.5
vt 0.986328 0.5
vt 0.990234 0.5

# verts
v 0.8 3.6 0.2
v 0.8 3.6 0.1
v 0.8 3.7 0.3
v 0.8 3.7 0.2
v 0.8 3.7 0.1
v 0.8 3.7 0
v 0.8 3.8 0.4
v 0.8 3.8 0.3
v 0.8 3.8 0
v 0.8 3.8 -0.1
v 0.8 3.9 0.4
v 0.8 3.9 0.3
v 0.8 3.9 0
v 0.8 3.9 -0.1
v 0.8 4 0.3
v 0.8 4 0.2
v 0.8 4 0.1
v 0.8 4 0
v 0.8 4.1 0.2
v 0.8 4.1 0.1
v 1.3 3.6 0.2
v 1.3 3.6 0.1
v 1.3 3.7 0.3
v 1.3 3.7 0.2
v 1.3 3.7 0.1
v 1.3 3.7 0
v 1.3 3.8 0.4
v 1.3 3.8 0.3
v 1.3 3.8 0
v 1.3 3.8 -0.1
v 1.3 3.9 0.4
v 1.3 3.9 0.3
v 1.3 3.9 0
v 1.3 3.9 -0.1
v 1.3 4 0.3
v 1.3 4 0.2
v 1.3 4 0.1
v 1.3 4 0
v 1.3 4.1 0.2
v 1.3 4.1 0.1
v 0.8 3.8 0.4
v 0.8 3.9 0.4
v 1.3 3.8 0.4
v 1.3 3.9 0.4
v 0.8 3.7 0.3
v 0.8 3.8 0.3
v 0.8 3.9 0.3
v 0.8 4 0.3
v 1 3.9 0.3
v 1 4 0.3
v 1.2 3.9 0.3
v 1.2 4 0.3
v 1.3 3.7 0.3
v 1.3 3.8 0.3
v 1.3 3.9 0.3
v 1.3 4 0.3
v 0.8 3.6 0.2
v 0.8 3.7 0.2
v 0.8 4 0.2
v 0.8 4.1 0.2
v 1 4 0.2
v 1 4.1 0.2
v 1.1 4 0.2
v 1.1 4.1 0.2
v 1.2 4 0.2
v 1.2 4.1 0.2
v 1.3 3.6 0.2
v 1.3 3.7 0.2
v 1.3 4 0.2
v 1.3 4.1 0.2
v 0.8 3.6 0.1
v 0.8 3.7 0.1
v 0.8 4 0.1
v 0.8 4.1 0.1
v 1 4 0.1
v 1 4.1 0.1
v 1.1 4 0.1
v 1.1 4.1 0.1
v 1.2 4 0.1
v 1.2 4.1 0.1
v 1.3 3.6 0.1
v 1.3 3.7 0.1
v 1.3 4 0.1
v 1.3 4.1 0.1
v 0.8 3.7 0
v 0.8 3.8 0
v 0.8 3.9 0
v 0.8 4 0
v 1 3.9 0
v 1 4 0
v 1.2 3.9 0
v 1.2 4 0
v 1.3 3.7 0
v 1.3 3.8 0
v 1.3 3.9 0
v 1.3 4 0
v 0.8 3.8 -0.1
v 0.8 3.9 -0.1
v 1.3 3.8 -0.1
v 1.3 3.9 -0.1
v 0.8 3.6 0.2
v 1.3 3.6 0.2
v 0.8 3.6 0.1
v 1.3 3.6 0.1
v 0.8 3.7 0.3
v 1.3 3.7 0.3
v 0.8 3.7 0.2
v 1.3 3.7 0.2
v 0.8 3.7 0.1
v 1.3 3.7 0.1
v 0.8 3.7 0
v 1.3 3.7 0
v 0.8 3.8 0.4
v 1.3 3.8 0.4
v 0.8 3.8 0.3
v 1.3 3.8 0.3
v 0.8 3.8 0
v 1.3 3.8 0
v 0.8 3.8 -0.1
v 1.3 3.8 -0.1
v 0.8 3.9 0.4
v 1.3 3.9 0.4
v 0.8 3.9 0.3
v 1 3.9 0.3
v 1.2 3.9 0.3
v 1.3 3.9 0.3
v 0.8 3.9 0
v 1 3.9 0
v 1.2 3.9 0
v 1.3 3.9 0
v 0.8 3.9 -0.1
v 1.3 3.9 -0.1
v 0.8 4 0.3
v 1 4 0.3
v 1.2 4 0.3
v 1.3 4 0.3
v 0.8 4 0.2
v 1 4 0.2
v 1.1 4 0.2
v 1.2 4 0.2
v 1.3 4 0.2
v 0.8 4 0.1
v 1 4 0.1
v 1.1 4 0.1
v 1.2 4 0.1
v 1.3 4 0.1
v 0.8 4 0
v 1 4 0
v 1.2 4 0
v 1.3 4 0
v 0.8 4.1 0.2
v 1 4.1 0.2
v 1.1 4.1 0.2
v 1.2 4.1 0.2
v 1.3 4.1 0.2
v 0.8 4.1 0.1
v 1 4.1 0.1
v 1.1 4.1 0.1
v 1.2 4.1 0.1
v 1.3 4.1 0.1

# faces
f 4/2/1 2/2/1 1/2/1
f 5/2/1 2/2/1 4/2/1
f 8/2/1 4/2/1 3/2/1
f 8/2/1 6/2/1 5/2/1
f 8/2/1 5/2/1 4/2/1
f 9/2/1 6/2/1 8/2/1
f 11/2/1 8/2/1 7/2/1
f 11/2/1 10/2/1 9/2/1
f 11/2/1 9/2/1 8/2/1
f 12/2/1 10/2/1 11/2/1
f 13/2/1 10/2/1 12/2/1
f 14/2/1 10/2/1 13/2/1
f 15/2/1 13/2/1 12/2/1
f 16/2/1 13/2/1 15/2/1
f 17/2/1 13/2/1 16/2/1
f 18/2/1 13/2/1 17/2/1
f 19/2/1 17/2/1 16/2/1
f 20/2/1 17/2/1 19/2/1
f 21/2/2 22/2/2 24/2/2
f 24/2/2 22/2/2 25/2/2
f 23/2/2 24/2/2 28/2/2
f 25/2/2 26/2/2 28/2/2
f 24/2/2 25/2/2 28/2/2
f 28/2/2 26/2/2 29/2/2
f 27/2/2 28/2/2 31/2/2
f 29/2/2 30/2/2 31/2/2
f 28/2/2 29/2/2 31/2/2
f 31/2/2 30/2/2 32/2/2
f 32/2/2 30/2/2 33/2/2
f 33/2/2 30/2/2 34/2/2
f 32/2/2 33/2/2 35/2/2
f 35/2/2 33/2/2 36/2/2
f 36/2/2 33/2/2 37/2/2
f 37/2/2 33/2/2 38/2/2
f 36/1/2 37/1/2 39/1/2
f 39/1/2 37/1/2 40/1/2
f 43/2/3 42/2/3 41/2/3
f 44/2/3 42/2/3 43/2/3
f 49/2/3 48/2/3 47/2/3
f 50/2/3 48/2/3 49/2/3
f 51/3/3 50/3/3 49/3/3
f 52/3/3 50/3/3 51/3/3
f 53/2/3 46/2/3 45/2/3
f 54/2/3 46/2/3 53/2/3
f 55/2/3 52/2/3 51/2/3
f 56/2/3 52/2/3 55/2/3
f 61/2/3 60/2/3 59/2/3
f 62/2/3 60/2/3 61/2/3
f 63/3/3 62/3/3 61/3/3
f 64/3/3 62/3/3 63/3/3
f 65/4/3 64/4/3 63/4/3
f 66/4/3 64/4/3 65/4/3
f 67/2/3 58/2/3 57/2/3
f 68/2/3 58/2/3 67/2/3
f 69/1/3 66/1/3 65/1/3
f 70/1/3 66/1/3 69/1/3
f 73/2/4 74/2/4 75/2/4
f 75/2/4 74/2/4 76/2/4
f 75/3/4 76/3/4 77/3/4
f 77/3/4 76/3/4 78/3/4
f 77/4/4 78/4/4 79/4/4
f 79/4/4 78/4/4 80/4/4
f 71/2/4 72/2/4 81/2/4
f 81/2/4 72/2/4 82/2/4
f 79/1/4 80/1/4 83/1/4
f 83/1/4 80/1/4 84/1/4
f 87/2/4 88/2/4 89/2/4
f 89/2/4 88/2/4 90/2/4
f 89/3/4 90/3/4 91/3/4
f 91/3/4 90/3/4 92/3/4
f 85/2/4 86/2/4 93/2/4
f 93/2/4 86/2/4 94/2/4
f 91/2/4 92/2/4 95/2/4
f 95/2/4 92/2/4 96/2/4
f 97/2/4 98/2/4 99/2/4
f 99/2/4 98/2/4 100/2/4
f 103/2/5 102/2/5 101/2/5
f 104/2/5 102/2/5 103/2/5
f 107/2/5 106/2/5 105/2/5
f 108/2/5 106/2/5 107/2/5
f 111/2/5 110/2/5 109/2/5
f 112/2/5 110/2/5 111/2/5
f 115/2/5 114/2/5 113/2/5
f 116/2/5 114/2/5 115/2/5
f 119/2/5 118/2/5 117/2/5
f 120/2/5 118/2/5 119/2/5
f 121/2/6 122/2/6 123/2/6
f 123/2/6 122/2/6 124/2/6
f 124/2/6 122/2/6 125/2/6
f 125/2/6 122/2/6 126/2/6
f 127/2/6 128/2/6 131/2/6
f 129/2/6 130/2/6 131/2/6
f 128/2/6 129/2/6 131/2/6
f 131/2/6 130/2/6 132/2/6
f 133/2/6 134/2/6 137/2/6
f 134/3/6 135/3/6 138/3/6
f 137/2/6 134/2/6 138/2/6
f 138/3/6 135/3/6 139/3/6
f 135/2/6 136/2/6 140/2/6
f 139/3/6 135/3/6 140/3/6
f 140/2/6 136/2/6 141/2/6
f 142/2/6 143/2/6 147/2/6
f 143/3/6 144/3/6 148/3/6
f 147/2/6 143/2/6 148/2/6
f 144/3/6 145/3/6 148/3/6
f 145/2/6 146/2/6 149/2/6
f 148/3/6 145/3/6 149/3/6
f 149/2/6 146/2/6 150/2/6
f 151/2/6 152/2/6 156/2/6
f 152/3/6 153/3/6 157/3/6
f 156/2/6 152/2/6 157/2/6
f 153/4/6 154/4/6 158/4/6
f 157/3/6 153/3/6 158/3/6
f 154/1/6 155/1/6 159/1/6
f 158/4/6 154/4/6 159/4/6
f 159/1/6 155/1/6 160/1/6
