# MagicaVoxel @ Ephtracy

# group
o 

# material
mtllib Tunnel_4.mtl
usemtl palette

# normals
vn -1 0 0
vn 1 0 0
vn 0 0 1
vn 0 0 -1
vn 0 -1 0
vn 0 1 0

# texcoords
vt 0.982422 0.5
vt 0.986328 0.5
vt 0.990234 0.5

# verts
v -6.3 0.1 6.1
v -6.3 0.1 6
v -6.3 4.8 6.1
v -6.3 4.8 6
v -6.2 4.8 6.1
v -6.2 4.8 6
v -6.2 4.9 6.1
v -6.2 4.9 6
v -6.1 0 6
v -6.1 0 -6.3
v -6.1 0.1 6
v -6.1 4.7 6
v -6.1 4.7 -6.3
v -5.5 0 6.2
v -5.5 0 6
v -5.5 0.1 6.1
v -5.5 0.1 6
v -5.5 4.9 6.2
v -5.5 4.9 6.1
v -5.1 4.9 6.1
v -5.1 4.9 6
v -5.1 7.2 6.1
v -5.1 7.2 6
v -5 4.7 5.9
v -5 4.7 -6.3
v -5 4.9 6
v -5 4.9 5.9
v -5 7.1 6
v -5 7.1 -6.3
v -5 7.2 6.1
v -5 7.2 6
v -5 7.3 6.1
v -5 7.3 6
v -4.9 0 6.3
v -4.9 0 6.2
v -4.9 4.9 6.3
v -4.9 4.9 6.2
v -4.7 7.3 6.1
v -4.7 7.3 6
v -4.7 8.1 6.1
v -4.7 8.1 6
v -4.6 7.1 6
v -4.6 7.1 -6.3
v -4.6 8 6
v -4.6 8 -6.3
v -4.6 8.1 6.1
v -4.6 8.1 6
v -4.6 8.2 6.1
v -4.6 8.2 6
v -4.1 4.9 6.3
v -4.1 4.9 6.1
v -4.1 7.1 6.3
v -4.1 7.1 6.1
v -4.1 8.2 6.1
v -4.1 8.2 6
v -4.1 8.9 6.1
v -4.1 8.9 6
v -4 8 6
v -4 8 -6.3
v -4 8.7 6
v -4 8.7 -6.3
v -3.9 8.9 6.1
v -3.9 8.9 6
v -3.9 9.1 6.1
v -3.9 9.1 6
v -3.6 7.1 6.3
v -3.6 7.1 6.1
v -3.6 8 6.1
v -3.6 8.1 6.3
v -3.6 8.1 6.1
v -2.7 8.1 6.3
v -2.7 8.1 6.1
v -2.7 8.8 6.3
v -2.7 8.8 6.1
v 2.4 7.9 6.3
v 2.4 7.9 6
v 2.4 8 6
v 2.4 8 5.9
v 2.4 8.5 6.3
v 2.4 8.5 6
v 2.4 8.7 6
v 2.4 8.7 5.9
v 3.2 6.9 6.3
v 3.2 6.9 6
v 3.2 7 5.9
v 3.2 7 -6.3
v 3.2 7.9 6.3
v 3.2 7.9 6
v 3.2 7.9 5.9
v 3.2 8 6
v 3.2 8 -6.3
v 3.8 4.7 6.3
v 3.8 4.7 6
v 3.8 6.2 5.9
v 3.8 6.2 -6.3
v 3.8 6.9 6.3
v 3.8 6.9 6
v 3.8 7 5.9
v 3.8 7 -6.3
v 3.9 4.9 6
v 3.9 4.9 -6.3
v 3.9 6.2 5.9
v 3.9 6.2 -6.3
v 3.9 7.1 6
v 3.9 7.1 5.9
v 4 7.1 6
v 4 7.1 5.9
v 4 7.9 6
v 4 7.9 5.9
v 4.6 0 6.3
v 4.6 0 6
v 4.6 4.7 6.3
v 4.6 4.7 6
v 4.9 0 6
v 4.9 0 -6.3
v 4.9 4.7 6
v 4.9 4.7 5.9
v 4.9 4.9 5.9
v 4.9 4.9 -6.3
v -4.9 0 6
v -4.9 0 -6.3
v -4.9 4.7 6
v -4.9 4.7 5.9
v -4.9 4.9 5.9
v -4.9 4.9 -6.3
v -4.6 0 6.3
v -4.6 0 6
v -4.6 4.7 6.3
v -4.6 4.7 6
v -4 7.1 6
v -4 7.1 5.9
v -4 7.9 6
v -4 7.9 5.9
v -3.9 4.9 6
v -3.9 4.9 -6.3
v -3.9 6.2 5.9
v -3.9 6.2 -6.3
v -3.9 7.1 6
v -3.9 7.1 5.9
v -3.8 4.7 6.3
v -3.8 4.7 6
v -3.8 6.2 5.9
v -3.8 6.2 -6.3
v -3.8 6.9 6.3
v -3.8 6.9 6
v -3.8 7 5.9
v -3.8 7 -6.3
v -3.2 6.9 6.3
v -3.2 6.9 6
v -3.2 7 5.9
v -3.2 7 -6.3
v -3.2 7.9 6.3
v -3.2 7.9 6
v -3.2 7.9 5.9
v -3.2 8 6
v -3.2 8 -6.3
v -2.4 7.9 6.3
v -2.4 7.9 6
v -2.4 8 6
v -2.4 8 5.9
v -2.4 8.5 6.3
v -2.4 8.5 6
v -2.4 8.7 6
v -2.4 8.7 5.9
v 2.7 8.1 6.3
v 2.7 8.1 6.1
v 2.7 8.8 6.3
v 2.7 8.8 6.1
v 3.6 7.1 6.3
v 3.6 7.1 6.1
v 3.6 8 6.1
v 3.6 8.1 6.3
v 3.6 8.1 6.1
v 3.9 8.9 6.1
v 3.9 8.9 6
v 3.9 9.1 6.1
v 3.9 9.1 6
v 4 8 6
v 4 8 -6.3
v 4 8.7 6
v 4 8.7 -6.3
v 4.1 4.9 6.3
v 4.1 4.9 6.1
v 4.1 7.1 6.3
v 4.1 7.1 6.1
v 4.1 8.2 6.1
v 4.1 8.2 6
v 4.1 8.9 6.1
v 4.1 8.9 6
v 4.6 7.1 6
v 4.6 7.1 -6.3
v 4.6 8 6
v 4.6 8 -6.3
v 4.6 8.1 6.1
v 4.6 8.1 6
v 4.6 8.2 6.1
v 4.6 8.2 6
v 4.7 7.3 6.1
v 4.7 7.3 6
v 4.7 8.1 6.1
v 4.7 8.1 6
v 4.9 0 6.3
v 4.9 0 6.2
v 4.9 4.9 6.3
v 4.9 4.9 6.2
v 5 4.7 5.9
v 5 4.7 -6.3
v 5 4.9 6
v 5 4.9 5.9
v 5 7.1 6
v 5 7.1 -6.3
v 5 7.2 6.1
v 5 7.2 6
v 5 7.3 6.1
v 5 7.3 6
v 5.1 4.9 6.1
v 5.1 4.9 6
v 5.1 7.2 6.1
v 5.1 7.2 6
v 5.5 0 6.2
v 5.5 0 6
v 5.5 0.1 6.1
v 5.5 0.1 6
v 5.5 4.9 6.2
v 5.5 4.9 6.1
v 6.1 0 6
v 6.1 0 -6.3
v 6.1 0.1 6
v 6.1 4.7 6
v 6.1 4.7 -6.3
v 6.2 4.8 6.1
v 6.2 4.8 6
v 6.2 4.9 6.1
v 6.2 4.9 6
v 6.3 0.1 6.1
v 6.3 0.1 6
v 6.3 4.8 6.1
v 6.3 4.8 6
v -4.9 0 6.3
v -4.9 4.9 6.3
v -4.6 0 6.3
v -4.6 4.7 6.3
v -4.1 4.9 6.3
v -4.1 7.1 6.3
v -3.8 4.7 6.3
v -3.8 6.9 6.3
v -3.6 7.1 6.3
v -3.6 8.1 6.3
v -3.2 6.9 6.3
v -3.2 7.9 6.3
v -2.7 8.1 6.3
v -2.7 8.8 6.3
v -2.4 7.9 6.3
v -2.4 8.5 6.3
v 2.4 7.9 6.3
v 2.4 8.5 6.3
v 2.7 8.1 6.3
v 2.7 8.8 6.3
v 3.2 6.9 6.3
v 3.2 7.9 6.3
v 3.6 7.1 6.3
v 3.6 8.1 6.3
v 3.8 4.7 6.3
v 3.8 6.9 6.3
v 4.1 4.9 6.3
v 4.1 7.1 6.3
v 4.6 0 6.3
v 4.6 4.7 6.3
v 4.9 0 6.3
v 4.9 4.9 6.3
v -5.5 0 6.2
v -5.5 4.9 6.2
v -4.9 0 6.2
v -4.9 4.9 6.2
v 4.9 0 6.2
v 4.9 4.9 6.2
v 5.5 0 6.2
v 5.5 4.9 6.2
v -6.3 0.1 6.1
v -6.3 4.8 6.1
v -6.2 4.8 6.1
v -6.2 4.9 6.1
v -5.5 0.1 6.1
v -5.5 4.9 6.1
v -5.1 4.9 6.1
v -5.1 7.2 6.1
v -5 7.2 6.1
v -5 7.3 6.1
v -4.7 7.3 6.1
v -4.7 8.1 6.1
v -4.6 8.1 6.1
v -4.6 8.2 6.1
v -4.1 4.9 6.1
v -4.1 7.1 6.1
v -4.1 8 6.1
v -4.1 8.2 6.1
v -4.1 8.9 6.1
v -3.9 8.9 6.1
v -3.9 9.1 6.1
v -3.6 7.1 6.1
v -3.6 8 6.1
v -3.6 8.1 6.1
v -2.7 8.1 6.1
v -2.7 8.8 6.1
v 2.7 8.1 6.1
v 2.7 8.8 6.1
v 3.6 7.1 6.1
v 3.6 8 6.1
v 3.6 8.1 6.1
v 3.9 8.9 6.1
v 3.9 9.1 6.1
v 4.1 4.9 6.1
v 4.1 7.1 6.1
v 4.1 8 6.1
v 4.1 8.2 6.1
v 4.1 8.9 6.1
v 4.6 8.1 6.1
v 4.6 8.2 6.1
v 4.7 7.3 6.1
v 4.7 8.1 6.1
v 5 7.2 6.1
v 5 7.3 6.1
v 5.1 4.9 6.1
v 5.1 7.2 6.1
v 5.5 0.1 6.1
v 5.5 4.9 6.1
v 6.2 4.8 6.1
v 6.2 4.9 6.1
v 6.3 0.1 6.1
v 6.3 4.8 6.1
v -6.1 0 6
v -6.1 0.1 6
v -5.5 0 6
v -5.5 0.1 6
v 5.5 0 6
v 5.5 0.1 6
v 6.1 0 6
v 6.1 0.1 6
v -5 4.7 5.9
v -5 4.9 5.9
v -4.9 4.7 5.9
v -4.9 4.9 5.9
v -4 7.1 5.9
v -4 7.9 5.9
v -3.9 6.2 5.9
v -3.9 7.1 5.9
v -3.8 6.2 5.9
v -3.8 7 5.9
v -3.2 7 5.9
v -3.2 7.9 5.9
v -2.4 8 5.9
v -2.4 8.7 5.9
v 2.4 8 5.9
v 2.4 8.7 5.9
v 3.2 7 5.9
v 3.2 7.9 5.9
v 3.8 6.2 5.9
v 3.8 7 5.9
v 3.9 6.2 5.9
v 3.9 7.1 5.9
v 4 7.1 5.9
v 4 7.9 5.9
v 4.9 4.7 5.9
v 4.9 4.9 5.9
v 5 4.7 5.9
v 5 4.9 5.9
v -6.3 0.1 6
v -6.3 4.8 6
v -6.2 4.8 6
v -6.2 4.9 6
v -6.1 0.1 6
v -6.1 4.7 6
v -5.1 4.9 6
v -5.1 7.2 6
v -5 4.9 6
v -5 7.1 6
v -5 7.2 6
v -5 7.3 6
v -4.9 0 6
v -4.9 4.7 6
v -4.7 7.3 6
v -4.7 8.1 6
v -4.6 0 6
v -4.6 4.7 6
v -4.6 7.1 6
v -4.6 8 6
v -4.6 8.1 6
v -4.6 8.2 6
v -4.1 8.2 6
v -4.1 8.9 6
v -4 7.1 6
v -4 7.9 6
v -4 8 6
v -4 8.7 6
v -3.9 4.9 6
v -3.9 7.1 6
v -3.9 8.9 6
v -3.9 9.1 6
v -3.8 4.7 6
v -3.8 6.9 6
v -3.3 7.1 6
v -3.3 7.9 6
v -3.2 6.9 6
v -3.2 7.9 6
v -3.2 8 6
v -2.4 7.9 6
v -2.4 8 6
v -2.4 8.5 6
v -2.4 8.7 6
v 2.4 7.9 6
v 2.4 8 6
v 2.4 8.5 6
v 2.4 8.7 6
v 3.2 6.9 6
v 3.2 7.9 6
v 3.2 8 6
v 3.3 7.1 6
v 3.3 7.9 6
v 3.8 4.7 6
v 3.8 6.9 6
v 3.9 4.9 6
v 3.9 7.1 6
v 3.9 8.9 6
v 3.9 9.1 6
v 4 7.1 6
v 4 7.9 6
v 4 8 6
v 4 8.7 6
v 4.1 8.2 6
v 4.1 8.9 6
v 4.6 0 6
v 4.6 4.7 6
v 4.6 7.1 6
v 4.6 8 6
v 4.6 8.1 6
v 4.6 8.2 6
v 4.7 7.3 6
v 4.7 8.1 6
v 4.9 0 6
v 4.9 4.7 6
v 5 4.9 6
v 5 7.1 6
v 5 7.2 6
v 5 7.3 6
v 5.1 4.9 6
v 5.1 7.2 6
v 6.1 0.1 6
v 6.1 4.7 6
v 6.2 4.8 6
v 6.2 4.9 6
v 6.3 0.1 6
v 6.3 4.8 6
v -6.1 0 -6.3
v -6.1 4.7 -6.3
v -5 4.7 -6.3
v -5 7.1 -6.3
v -4.9 0 -6.3
v -4.9 4.9 -6.3
v -4.6 7.1 -6.3
v -4.6 8 -6.3
v -4 8 -6.3
v -4 8.7 -6.3
v -3.9 4.9 -6.3
v -3.9 6.2 -6.3
v -3.8 6.2 -6.3
v -3.8 7 -6.3
v -3.2 7 -6.3
v -3.2 8 -6.3
v 3.2 7 -6.3
v 3.2 8 -6.3
v 3.8 6.2 -6.3
v 3.8 7 -6.3
v 3.9 4.9 -6.3
v 3.9 6.2 -6.3
v 4 8 -6.3
v 4 8.7 -6.3
v 4.6 7.1 -6.3
v 4.6 8 -6.3
v 4.9 0 -6.3
v 4.9 4.9 -6.3
v 5 4.7 -6.3
v 5 7.1 -6.3
v 6.1 0 -6.3
v 6.1 4.7 -6.3
v -4.9 0 6.3
v -4.6 0 6.3
v 4.6 0 6.3
v 4.9 0 6.3
v -5.5 0 6.2
v -4.9 0 6.2
v 4.9 0 6.2
v 5.5 0 6.2
v -6.1 0 6
v -5.5 0 6
v -4.9 0 6
v -4.6 0 6
v 4.6 0 6
v 4.9 0 6
v 5.5 0 6
v 6.1 0 6
v -6.1 0 -6.3
v -4.9 0 -6.3
v 4.9 0 -6.3
v 6.1 0 -6.3
v -6.3 0.1 6.1
v -5.5 0.1 6.1
v 5.5 0.1 6.1
v 6.3 0.1 6.1
v -6.3 0.1 6
v -6.1 0.1 6
v -5.5 0.1 6
v 5.5 0.1 6
v 6.1 0.1 6
v 6.3 0.1 6
v -4.6 4.7 6.3
v -3.8 4.7 6.3
v 3.8 4.7 6.3
v 4.6 4.7 6.3
v -4.6 4.7 6
v -3.8 4.7 6
v 3.8 4.7 6
v 4.6 4.7 6
v -5 4.9 6
v -3.9 4.9 6
v 3.9 4.9 6
v 5 4.9 6
v -5 4.9 5.9
v -4.9 4.9 5.9
v 4.9 4.9 5.9
v 5 4.9 5.9
v -4.9 4.9 -6.3
v -3.9 4.9 -6.3
v 3.9 4.9 -6.3
v 4.9 4.9 -6.3
v -3.9 6.2 5.9
v -3.8 6.2 5.9
v 3.8 6.2 5.9
v 3.9 6.2 5.9
v -3.9 6.2 -6.3
v -3.8 6.2 -6.3
v 3.8 6.2 -6.3
v 3.9 6.2 -6.3
v -3.8 6.9 6.3
v -3.2 6.9 6.3
v 3.2 6.9 6.3
v 3.8 6.9 6.3
v -3.8 6.9 6
v -3.2 6.9 6
v 3.2 6.9 6
v 3.8 6.9 6
v -3.8 7 5.9
v -3.2 7 5.9
v 3.2 7 5.9
v 3.8 7 5.9
v -3.8 7 -6.3
v -3.2 7 -6.3
v 3.2 7 -6.3
v 3.8 7 -6.3
v -3.2 7.9 6.3
v -2.4 7.9 6.3
v 2.4 7.9 6.3
v 3.2 7.9 6.3
v -4 7.9 6
v -3.3 7.9 6
v -3.2 7.9 6
v -2.4 7.9 6
v 2.4 7.9 6
v 3.2 7.9 6
v 3.3 7.9 6
v 4 7.9 6
v -4 7.9 5.9
v -3.2 7.9 5.9
v 3.2 7.9 5.9
v 4 7.9 5.9
v -3.2 8 6
v -2.4 8 6
v 2.4 8 6
v 3.2 8 6
v -2.4 8 5.9
v 2.4 8 5.9
v -3.2 8 -6.3
v 3.2 8 -6.3
v -2.4 8.5 6.3
v 2.4 8.5 6.3
v -2.4 8.5 6
v 2.4 8.5 6
v -6.1 4.7 6
v -4.9 4.7 6
v 4.9 4.7 6
v 6.1 4.7 6
v -5 4.7 5.9
v -4.9 4.7 5.9
v 4.9 4.7 5.9
v 5 4.7 5.9
v -6.1 4.7 -6.3
v -5 4.7 -6.3
v 5 4.7 -6.3
v 6.1 4.7 -6.3
v -6.3 4.8 6.1
v -6.2 4.8 6.1
v 6.2 4.8 6.1
v 6.3 4.8 6.1
v -6.3 4.8 6
v -6.2 4.8 6
v 6.2 4.8 6
v 6.3 4.8 6
v -4.9 4.9 6.3
v -4.1 4.9 6.3
v 4.1 4.9 6.3
v 4.9 4.9 6.3
v -5.5 4.9 6.2
v -4.9 4.9 6.2
v 4.9 4.9 6.2
v 5.5 4.9 6.2
v -6.2 4.9 6.1
v -5.5 4.9 6.1
v -5.1 4.9 6.1
v -4.1 4.9 6.1
v 4.1 4.9 6.1
v 5.1 4.9 6.1
v 5.5 4.9 6.1
v 6.2 4.9 6.1
v -6.2 4.9 6
v -5.1 4.9 6
v 5.1 4.9 6
v 6.2 4.9 6
v -4.1 7.1 6.3
v -3.6 7.1 6.3
v 3.6 7.1 6.3
v 4.1 7.1 6.3
v -4.1 7.1 6.1
v -3.6 7.1 6.1
v 3.6 7.1 6.1
v 4.1 7.1 6.1
v -5 7.1 6
v -4.6 7.1 6
v -4 7.1 6
v -3.9 7.1 6
v 3.9 7.1 6
v 4 7.1 6
v 4.6 7.1 6
v 5 7.1 6
v -4 7.1 5.9
v -3.9 7.1 5.9
v 3.9 7.1 5.9
v 4 7.1 5.9
v -5 7.1 -6.3
v -4.6 7.1 -6.3
v 4.6 7.1 -6.3
v 5 7.1 -6.3
v -5.1 7.2 6.1
v -5 7.2 6.1
v 5 7.2 6.1
v 5.1 7.2 6.1
v -5.1 7.2 6
v -5 7.2 6
v 5 7.2 6
v 5.1 7.2 6
v -5 7.3 6.1
v -4.7 7.3 6.1
v 4.7 7.3 6.1
v 5 7.3 6.1
v -5 7.3 6
v -4.7 7.3 6
v 4.7 7.3 6
v 5 7.3 6
v -4.6 8 6
v -4 8 6
v 4 8 6
v 4.6 8 6
v -4.6 8 -6.3
v -4 8 -6.3
v 4 8 -6.3
v 4.6 8 -6.3
v -3.6 8.1 6.3
v -2.7 8.1 6.3
v 2.7 8.1 6.3
v 3.6 8.1 6.3
v -4.7 8.1 6.1
v -4.6 8.1 6.1
v -3.6 8.1 6.1
v -2.7 8.1 6.1
v 2.7 8.1 6.1
v 3.6 8.1 6.1
v 4.6 8.1 6.1
v 4.7 8.1 6.1
v -4.7 8.1 6
v -4.6 8.1 6
v 4.6 8.1 6
v 4.7 8.1 6
v -4.6 8.2 6.1
v -4.1 8.2 6.1
v 4.1 8.2 6.1
v 4.6 8.2 6.1
v -4.6 8.2 6
v -4.1 8.2 6
v 4.1 8.2 6
v 4.6 8.2 6
v -4 8.7 6
v -2.4 8.7 6
v 2.4 8.7 6
v 4 8.7 6
v -2.4 8.7 5.9
v 2.4 8.7 5.9
v -4 8.7 -6.3
v 4 8.7 -6.3
v -2.7 8.8 6.3
v 2.7 8.8 6.3
v -2.7 8.8 6.1
v 2.7 8.8 6.1
v -4.1 8.9 6.1
v -3.9 8.9 6.1
v 3.9 8.9 6.1
v 4.1 8.9 6.1
v -4.1 8.9 6
v -3.9 8.9 6
v 3.9 8.9 6
v 4.1 8.9 6
v -3.9 9.1 6.1
v 3.9 9.1 6.1
v -3.9 9.1 6
v 3.9 9.1 6

# faces
f 3/3/1 2/3/1 1/3/1
f 4/3/1 2/3/1 3/3/1
f 7/3/1 6/3/1 5/3/1
f 8/3/1 6/3/1 7/3/1
f 11/2/1 10/2/1 9/2/1
f 12/2/1 10/2/1 11/2/1
f 13/2/1 10/2/1 12/2/1
f 16/3/1 15/3/1 14/3/1
f 17/3/1 15/3/1 16/3/1
f 18/3/1 16/3/1 14/3/1
f 19/3/1 16/3/1 18/3/1
f 22/3/1 21/3/1 20/3/1
f 23/3/1 21/3/1 22/3/1
f 27/2/1 25/2/1 24/2/1
f 28/2/1 27/2/1 26/2/1
f 29/2/1 25/2/1 27/2/1
f 29/2/1 27/2/1 28/2/1
f 32/3/1 31/3/1 30/3/1
f 33/3/1 31/3/1 32/3/1
f 36/3/1 35/3/1 34/3/1
f 37/3/1 35/3/1 36/3/1
f 40/3/1 39/3/1 38/3/1
f 41/3/1 39/3/1 40/3/1
f 44/2/1 43/2/1 42/2/1
f 45/2/1 43/2/1 44/2/1
f 48/3/1 47/3/1 46/3/1
f 49/3/1 47/3/1 48/3/1
f 52/3/1 51/3/1 50/3/1
f 53/3/1 51/3/1 52/3/1
f 56/3/1 55/3/1 54/3/1
f 57/3/1 55/3/1 56/3/1
f 60/2/1 59/2/1 58/2/1
f 61/2/1 59/2/1 60/2/1
f 64/3/1 63/3/1 62/3/1
f 65/3/1 63/3/1 64/3/1
f 68/3/1 67/3/1 66/3/1
f 69/3/1 68/3/1 66/3/1
f 70/3/1 68/3/1 69/3/1
f 73/3/1 72/3/1 71/3/1
f 74/3/1 72/3/1 73/3/1
f 77/3/1 76/3/1 75/3/1
f 79/3/1 77/3/1 75/3/1
f 80/2/1 78/2/1 77/2/1
f 80/3/1 77/3/1 79/3/1
f 81/2/1 78/2/1 80/2/1
f 82/2/1 78/2/1 81/2/1
f 87/3/1 84/3/1 83/3/1
f 88/3/1 84/3/1 87/3/1
f 89/2/1 86/2/1 85/2/1
f 90/2/1 89/2/1 88/2/1
f 91/2/1 86/2/1 89/2/1
f 91/2/1 89/2/1 90/2/1
f 96/3/1 93/3/1 92/3/1
f 97/3/1 93/3/1 96/3/1
f 98/2/1 95/2/1 94/2/1
f 99/2/1 95/2/1 98/2/1
f 102/2/1 101/2/1 100/2/1
f 103/2/1 101/2/1 102/2/1
f 104/2/1 102/2/1 100/2/1
f 105/2/1 102/2/1 104/2/1
f 108/2/1 107/2/1 106/2/1
f 109/2/1 107/2/1 108/2/1
f 112/3/1 111/3/1 110/3/1
f 113/3/1 111/3/1 112/3/1
f 116/2/1 115/2/1 114/2/1
f 117/2/1 115/2/1 116/2/1
f 118/2/1 115/2/1 117/2/1
f 119/2/1 115/2/1 118/2/1
f 120/2/2 121/2/2 122/2/2
f 122/2/2 121/2/2 123/2/2
f 123/2/2 121/2/2 124/2/2
f 124/2/2 121/2/2 125/2/2
f 126/3/2 127/3/2 128/3/2
f 128/3/2 127/3/2 129/3/2
f 130/2/2 131/2/2 132/2/2
f 132/2/2 131/2/2 133/2/2
f 134/2/2 135/2/2 136/2/2
f 136/2/2 135/2/2 137/2/2
f 134/2/2 136/2/2 138/2/2
f 138/2/2 136/2/2 139/2/2
f 140/3/2 141/3/2 144/3/2
f 144/3/2 141/3/2 145/3/2
f 142/2/2 143/2/2 146/2/2
f 146/2/2 143/2/2 147/2/2
f 148/3/2 149/3/2 152/3/2
f 152/3/2 149/3/2 153/3/2
f 150/2/2 151/2/2 154/2/2
f 153/2/2 154/2/2 155/2/2
f 154/2/2 151/2/2 156/2/2
f 155/2/2 154/2/2 156/2/2
f 157/3/2 158/3/2 159/3/2
f 157/3/2 159/3/2 161/3/2
f 159/2/2 160/2/2 162/2/2
f 161/3/2 159/3/2 162/3/2
f 162/2/2 160/2/2 163/2/2
f 163/2/2 160/2/2 164/2/2
f 165/3/2 166/3/2 167/3/2
f 167/3/2 166/3/2 168/3/2
f 169/3/2 170/3/2 171/3/2
f 169/3/2 171/3/2 172/3/2
f 172/3/2 171/3/2 173/3/2
f 174/3/2 175/3/2 176/3/2
f 176/3/2 175/3/2 177/3/2
f 178/2/2 179/2/2 180/2/2
f 180/2/2 179/2/2 181/2/2
f 182/3/2 183/3/2 184/3/2
f 184/3/2 183/3/2 185/3/2
f 186/3/2 187/3/2 188/3/2
f 188/3/2 187/3/2 189/3/2
f 190/2/2 191/2/2 192/2/2
f 192/2/2 191/2/2 193/2/2
f 194/3/2 195/3/2 196/3/2
f 196/3/2 195/3/2 197/3/2
f 198/3/2 199/3/2 200/3/2
f 200/3/2 199/3/2 201/3/2
f 202/3/2 203/3/2 204/3/2
f 204/3/2 203/3/2 205/3/2
f 206/2/2 207/2/2 209/2/2
f 208/2/2 209/2/2 210/2/2
f 209/2/2 207/2/2 211/2/2
f 210/2/2 209/2/2 211/2/2
f 212/3/2 213/3/2 214/3/2
f 214/3/2 213/3/2 215/3/2
f 216/3/2 217/3/2 218/3/2
f 218/3/2 217/3/2 219/3/2
f 220/3/2 221/3/2 222/3/2
f 222/3/2 221/3/2 223/3/2
f 220/3/2 222/3/2 224/3/2
f 224/3/2 222/3/2 225/3/2
f 226/2/2 227/2/2 228/2/2
f 228/2/2 227/2/2 229/2/2
f 229/2/2 227/2/2 230/2/2
f 231/3/2 232/3/2 233/3/2
f 233/3/2 232/3/2 234/3/2
f 235/3/2 236/3/2 237/3/2
f 237/3/2 236/3/2 238/3/2
f 241/3/3 240/3/3 239/3/3
f 242/3/3 240/3/3 241/3/3
f 243/3/3 240/3/3 242/3/3
f 245/3/3 243/3/3 242/3/3
f 245/3/3 244/3/3 243/3/3
f 246/3/3 244/3/3 245/3/3
f 247/3/3 244/3/3 246/3/3
f 249/3/3 247/3/3 246/3/3
f 249/3/3 248/3/3 247/3/3
f 250/3/3 248/3/3 249/3/3
f 251/3/3 248/3/3 250/3/3
f 253/3/3 251/3/3 250/3/3
f 253/3/3 252/3/3 251/3/3
f 254/3/3 252/3/3 253/3/3
f 256/3/3 252/3/3 254/3/3
f 257/3/3 256/3/3 255/3/3
f 258/3/3 252/3/3 256/3/3
f 258/3/3 256/3/3 257/3/3
f 260/3/3 257/3/3 255/3/3
f 261/3/3 260/3/3 259/3/3
f 262/3/3 257/3/3 260/3/3
f 262/3/3 260/3/3 261/3/3
f 264/3/3 261/3/3 259/3/3
f 265/3/3 264/3/3 263/3/3
f 266/3/3 261/3/3 264/3/3
f 266/3/3 264/3/3 265/3/3
f 268/3/3 265/3/3 263/3/3
f 269/3/3 268/3/3 267/3/3
f 270/3/3 265/3/3 268/3/3
f 270/3/3 268/3/3 269/3/3
f 273/3/3 272/3/3 271/3/3
f 274/3/3 272/3/3 273/3/3
f 277/3/3 276/3/3 275/3/3
f 278/3/3 276/3/3 277/3/3
f 281/3/3 280/3/3 279/3/3
f 283/3/3 281/3/3 279/3/3
f 283/3/3 282/3/3 281/3/3
f 284/3/3 282/3/3 283/3/3
f 287/3/3 286/3/3 285/3/3
f 289/3/3 288/3/3 287/3/3
f 291/3/3 290/3/3 289/3/3
f 293/3/3 287/3/3 285/3/3
f 293/3/3 292/3/3 291/3/3
f 293/3/3 291/3/3 289/3/3
f 293/3/3 289/3/3 287/3/3
f 294/3/3 292/3/3 293/3/3
f 295/3/3 292/3/3 294/3/3
f 296/3/3 292/3/3 295/3/3
f 298/3/3 297/3/3 296/3/3
f 298/3/3 296/3/3 295/3/3
f 300/1/3 295/1/3 294/1/3
f 301/3/3 299/3/3 298/3/3
f 301/1/3 295/1/3 300/1/3
f 301/3/3 298/3/3 295/3/3
f 302/3/3 299/3/3 301/3/3
f 303/3/3 299/3/3 302/3/3
f 304/3/3 299/3/3 303/3/3
f 306/3/3 299/3/3 304/3/3
f 309/3/3 306/3/3 305/3/3
f 310/3/3 299/3/3 306/3/3
f 310/3/3 309/3/3 308/3/3
f 310/3/3 306/3/3 309/3/3
f 311/3/3 299/3/3 310/3/3
f 313/1/3 308/1/3 307/1/3
f 314/3/3 310/3/3 308/3/3
f 314/1/3 308/1/3 313/1/3
f 315/3/3 310/3/3 314/3/3
f 316/3/3 310/3/3 315/3/3
f 317/3/3 313/3/3 312/3/3
f 317/3/3 314/3/3 313/3/3
f 317/3/3 315/3/3 314/3/3
f 318/3/3 315/3/3 317/3/3
f 319/3/3 317/3/3 312/3/3
f 320/3/3 317/3/3 319/3/3
f 321/3/3 319/3/3 312/3/3
f 322/3/3 319/3/3 321/3/3
f 323/3/3 321/3/3 312/3/3
f 324/3/3 321/3/3 323/3/3
f 327/3/3 326/3/3 325/3/3
f 328/3/3 326/3/3 327/3/3
f 329/3/3 327/3/3 325/3/3
f 330/3/3 327/3/3 329/3/3
f 333/2/3 332/2/3 331/2/3
f 334/2/3 332/2/3 333/2/3
f 337/2/3 336/2/3 335/2/3
f 338/2/3 336/2/3 337/2/3
f 341/2/3 340/2/3 339/2/3
f 342/2/3 340/2/3 341/2/3
f 346/2/3 344/2/3 343/2/3
f 347/2/3 346/2/3 345/2/3
f 348/2/3 346/2/3 347/2/3
f 349/2/3 346/2/3 348/2/3
f 350/2/3 344/2/3 346/2/3
f 350/2/3 346/2/3 349/2/3
f 353/2/3 352/2/3 351/2/3
f 354/2/3 352/2/3 353/2/3
f 358/2/3 356/2/3 355/2/3
f 359/2/3 358/2/3 357/2/3
f 360/2/3 356/2/3 358/2/3
f 360/2/3 358/2/3 359/2/3
f 361/2/3 356/2/3 360/2/3
f 362/2/3 356/2/3 361/2/3
f 365/2/3 364/2/3 363/2/3
f 366/2/3 364/2/3 365/2/3
f 367/3/4 368/3/4 369/3/4
f 367/3/4 369/3/4 371/3/4
f 369/3/4 370/3/4 371/3/4
f 371/3/4 370/3/4 372/3/4
f 372/3/4 370/3/4 373/3/4
f 372/3/4 373/3/4 375/3/4
f 373/3/4 374/3/4 375/3/4
f 375/3/4 374/3/4 376/3/4
f 376/3/4 374/3/4 377/3/4
f 372/3/4 375/3/4 380/3/4
f 376/3/4 377/3/4 381/3/4
f 377/3/4 378/3/4 381/3/4
f 379/3/4 380/3/4 383/3/4
f 380/3/4 375/3/4 384/3/4
f 383/3/4 380/3/4 384/3/4
f 381/3/4 382/3/4 385/3/4
f 376/3/4 381/3/4 385/3/4
f 385/3/4 382/3/4 386/3/4
f 386/3/4 382/3/4 387/3/4
f 387/3/4 388/3/4 389/3/4
f 386/3/4 387/3/4 389/3/4
f 386/3/4 389/3/4 393/3/4
f 389/3/4 390/3/4 393/3/4
f 393/3/4 390/3/4 394/3/4
f 384/3/4 375/3/4 395/3/4
f 391/1/4 392/1/4 396/1/4
f 394/3/4 390/3/4 397/3/4
f 395/3/4 396/3/4 399/3/4
f 384/3/4 395/3/4 399/3/4
f 399/3/4 396/3/4 400/3/4
f 396/1/4 392/1/4 401/1/4
f 400/3/4 396/3/4 401/3/4
f 401/1/4 392/1/4 402/1/4
f 400/3/4 401/3/4 403/3/4
f 401/3/4 402/3/4 403/3/4
f 403/3/4 402/3/4 404/3/4
f 404/3/4 405/3/4 406/3/4
f 406/3/4 405/3/4 407/3/4
f 397/3/4 398/3/4 409/3/4
f 394/3/4 397/3/4 409/3/4
f 408/3/4 409/3/4 412/3/4
f 409/3/4 398/3/4 413/3/4
f 412/3/4 409/3/4 413/3/4
f 410/3/4 411/3/4 415/3/4
f 415/3/4 411/3/4 416/3/4
f 414/3/4 415/3/4 417/3/4
f 417/3/4 415/3/4 418/3/4
f 414/3/4 417/3/4 420/3/4
f 419/3/4 420/3/4 421/3/4
f 417/1/4 418/1/4 422/1/4
f 421/3/4 420/3/4 422/3/4
f 420/3/4 417/3/4 422/3/4
f 413/3/4 398/3/4 423/3/4
f 423/3/4 398/3/4 424/3/4
f 422/1/4 418/1/4 425/1/4
f 425/1/4 418/1/4 426/1/4
f 413/3/4 423/3/4 428/3/4
f 427/3/4 428/3/4 429/3/4
f 428/3/4 423/3/4 430/3/4
f 429/3/4 428/3/4 430/3/4
f 419/3/4 421/3/4 432/3/4
f 427/3/4 429/3/4 434/3/4
f 434/3/4 429/3/4 435/3/4
f 435/3/4 429/3/4 436/3/4
f 433/3/4 434/3/4 437/3/4
f 434/3/4 435/3/4 437/3/4
f 437/3/4 435/3/4 438/3/4
f 431/3/4 432/3/4 439/3/4
f 432/3/4 421/3/4 440/3/4
f 439/3/4 432/3/4 440/3/4
f 440/3/4 421/3/4 441/3/4
f 433/3/4 437/3/4 442/3/4
f 442/3/4 437/3/4 443/3/4
f 443/3/4 437/3/4 444/3/4
f 440/3/4 441/3/4 445/3/4
f 441/3/4 442/3/4 445/3/4
f 442/3/4 443/3/4 445/3/4
f 445/3/4 443/3/4 446/3/4
f 440/3/4 445/3/4 448/3/4
f 448/3/4 445/3/4 449/3/4
f 447/3/4 448/3/4 449/3/4
f 449/3/4 445/3/4 450/3/4
f 447/3/4 449/3/4 451/3/4
f 451/3/4 449/3/4 452/3/4
f 453/2/4 454/2/4 455/2/4
f 453/2/4 455/2/4 457/2/4
f 455/2/4 456/2/4 457/2/4
f 457/2/4 456/2/4 458/2/4
f 458/2/4 456/2/4 459/2/4
f 459/2/4 460/2/4 461/2/4
f 458/2/4 459/2/4 463/2/4
f 461/2/4 462/2/4 463/2/4
f 459/2/4 461/2/4 463/2/4
f 463/2/4 462/2/4 464/2/4
f 464/2/4 462/2/4 465/2/4
f 465/2/4 462/2/4 466/2/4
f 466/2/4 462/2/4 467/2/4
f 467/2/4 462/2/4 468/2/4
f 468/2/4 462/2/4 470/2/4
f 469/2/4 470/2/4 472/2/4
f 471/2/4 472/2/4 474/2/4
f 470/2/4 462/2/4 475/2/4
f 473/2/4 474/2/4 475/2/4
f 474/2/4 472/2/4 475/2/4
f 472/2/4 470/2/4 475/2/4
f 475/2/4 462/2/4 476/2/4
f 473/2/4 475/2/4 477/2/4
f 477/2/4 475/2/4 478/2/4
f 473/2/4 477/2/4 480/2/4
f 479/2/4 480/2/4 481/2/4
f 480/2/4 477/2/4 482/2/4
f 481/2/4 480/2/4 482/2/4
f 479/2/4 481/2/4 483/2/4
f 483/2/4 481/2/4 484/2/4
f 490/3/5 486/3/5 485/3/5
f 491/3/5 488/3/5 487/3/5
f 494/3/5 490/3/5 489/3/5
f 495/3/5 486/3/5 490/3/5
f 495/3/5 490/3/5 494/3/5
f 496/3/5 486/3/5 495/3/5
f 497/3/5 492/3/5 491/3/5
f 497/3/5 491/3/5 487/3/5
f 498/3/5 492/3/5 497/3/5
f 499/3/5 492/3/5 498/3/5
f 501/2/5 494/2/5 493/2/5
f 501/2/5 495/2/5 494/2/5
f 502/2/5 495/2/5 501/2/5
f 503/2/5 500/2/5 499/2/5
f 503/2/5 499/2/5 498/2/5
f 504/2/5 500/2/5 503/2/5
f 509/3/5 506/3/5 505/3/5
f 510/3/5 506/3/5 509/3/5
f 511/3/5 506/3/5 510/3/5
f 512/3/5 508/3/5 507/3/5
f 513/3/5 508/3/5 512/3/5
f 514/3/5 508/3/5 513/3/5
f 519/3/5 516/3/5 515/3/5
f 520/3/5 516/3/5 519/3/5
f 521/3/5 518/3/5 517/3/5
f 522/3/5 518/3/5 521/3/5
f 527/2/5 524/2/5 523/2/5
f 528/2/5 524/2/5 527/2/5
f 529/2/5 526/2/5 525/2/5
f 530/2/5 526/2/5 529/2/5
f 531/2/5 524/2/5 528/2/5
f 532/2/5 524/2/5 531/2/5
f 533/2/5 529/2/5 525/2/5
f 534/2/5 529/2/5 533/2/5
f 539/2/5 536/2/5 535/2/5
f 540/2/5 536/2/5 539/2/5
f 541/2/5 538/2/5 537/2/5
f 542/2/5 538/2/5 541/2/5
f 547/3/5 544/3/5 543/3/5
f 548/3/5 544/3/5 547/3/5
f 549/3/5 546/3/5 545/3/5
f 550/3/5 546/3/5 549/3/5
f 555/2/5 552/2/5 551/2/5
f 556/2/5 552/2/5 555/2/5
f 557/2/5 554/2/5 553/2/5
f 558/2/5 554/2/5 557/2/5
f 565/3/5 560/3/5 559/3/5
f 566/3/5 560/3/5 565/3/5
f 567/3/5 562/3/5 561/3/5
f 568/3/5 562/3/5 567/3/5
f 571/2/5 564/2/5 563/2/5
f 571/2/5 565/2/5 564/2/5
f 572/2/5 565/2/5 571/2/5
f 573/2/5 570/2/5 569/2/5
f 573/2/5 569/2/5 568/2/5
f 574/2/5 570/2/5 573/2/5
f 579/2/5 576/2/5 575/2/5
f 580/2/5 578/2/5 577/2/5
f 581/2/5 579/2/5 575/2/5
f 581/2/5 580/2/5 579/2/5
f 582/2/5 578/2/5 580/2/5
f 582/2/5 580/2/5 581/2/5
f 585/3/5 584/3/5 583/3/5
f 586/3/5 584/3/5 585/3/5
f 587/2/6 588/2/6 591/2/6
f 591/2/6 588/2/6 592/2/6
f 589/2/6 590/2/6 593/2/6
f 593/2/6 590/2/6 594/2/6
f 587/2/6 591/2/6 595/2/6
f 595/2/6 591/2/6 596/2/6
f 594/2/6 590/2/6 597/2/6
f 597/2/6 590/2/6 598/2/6
f 599/3/6 600/3/6 603/3/6
f 603/3/6 600/3/6 604/3/6
f 601/3/6 602/3/6 605/3/6
f 605/3/6 602/3/6 606/3/6
f 607/3/6 608/3/6 612/3/6
f 609/3/6 610/3/6 613/3/6
f 611/3/6 612/3/6 616/3/6
f 616/3/6 612/3/6 617/3/6
f 612/3/6 608/3/6 618/3/6
f 617/3/6 612/3/6 618/3/6
f 613/3/6 614/3/6 619/3/6
f 609/3/6 613/3/6 619/3/6
f 619/3/6 614/3/6 620/3/6
f 620/3/6 614/3/6 621/3/6
f 616/3/6 617/3/6 623/3/6
f 615/3/6 616/3/6 623/3/6
f 623/3/6 617/3/6 624/3/6
f 621/3/6 622/3/6 625/3/6
f 620/3/6 621/3/6 625/3/6
f 625/3/6 622/3/6 626/3/6
f 627/3/6 628/3/6 631/3/6
f 631/3/6 628/3/6 632/3/6
f 629/3/6 630/3/6 633/3/6
f 633/3/6 630/3/6 634/3/6
f 637/2/6 638/2/6 643/2/6
f 643/2/6 638/2/6 644/2/6
f 639/2/6 640/2/6 645/2/6
f 645/2/6 640/2/6 646/2/6
f 635/2/6 636/2/6 647/2/6
f 647/2/6 636/2/6 648/2/6
f 641/2/6 642/2/6 649/2/6
f 649/2/6 642/2/6 650/2/6
f 651/3/6 652/3/6 655/3/6
f 655/3/6 652/3/6 656/3/6
f 653/3/6 654/3/6 657/3/6
f 657/3/6 654/3/6 658/3/6
f 659/3/6 660/3/6 663/3/6
f 663/3/6 660/3/6 664/3/6
f 661/3/6 662/3/6 665/3/6
f 665/3/6 662/3/6 666/3/6
f 667/2/6 668/2/6 671/2/6
f 671/2/6 668/2/6 672/2/6
f 669/2/6 670/2/6 673/2/6
f 673/2/6 670/2/6 674/2/6
f 675/3/6 676/3/6 681/3/6
f 681/3/6 676/3/6 682/3/6
f 677/3/6 678/3/6 683/3/6
f 683/3/6 678/3/6 684/3/6
f 679/3/6 680/3/6 687/3/6
f 687/3/6 680/3/6 688/3/6
f 685/3/6 686/3/6 689/3/6
f 689/3/6 686/3/6 690/3/6
f 691/3/6 692/3/6 695/3/6
f 695/3/6 692/3/6 696/3/6
f 693/3/6 694/3/6 697/3/6
f 697/3/6 694/3/6 698/3/6
f 699/2/6 700/2/6 703/2/6
f 701/2/6 702/2/6 704/2/6
f 699/2/6 703/2/6 705/2/6
f 703/2/6 704/2/6 705/2/6
f 704/2/6 702/2/6 706/2/6
f 705/2/6 704/2/6 706/2/6
f 707/3/6 708/3/6 709/3/6
f 709/3/6 708/3/6 710/3/6
f 711/3/6 712/3/6 715/3/6
f 715/3/6 712/3/6 716/3/6
f 713/3/6 714/3/6 717/3/6
f 717/3/6 714/3/6 718/3/6
f 719/3/6 720/3/6 721/3/6
f 721/3/6 720/3/6 722/3/6
