# MagicaVoxel @ Ephtracy

# group
o 

# material
mtllib chest modeling.mtl
usemtl palette

# normals
vn -1 0 0
vn 1 0 0
vn 0 0 1
vn 0 0 -1
vn 0 -1 0
vn 0 1 0

# texcoords
vt 0.423828 0.5
vt 0.958984 0.5
vt 0.982422 0.5
vt 0.986328 0.5
vt 0.994141 0.5

# verts
v -0.6 3.4 0.4
v -0.6 3.4 -0.1
v -0.6 4.1 0.4
v -0.6 4.1 -0.1
v -0.5 3.4 0.5
v -0.5 3.4 0.4
v -0.5 3.4 -0.1
v -0.5 3.4 -0.2
v -0.5 4.1 0.5
v -0.5 4.1 0.4
v -0.5 4.1 -0.1
v -0.5 4.1 -0.2
v -0.3 4.1 0.4
v -0.3 4.1 -0.1
v -0.3 4.2 0.4
v -0.3 4.2 -0.1
v -0.2 4.2 0.4
v -0.2 4.2 -0.1
v -0.2 4.3 0.4
v -0.2 4.3 -0.1
v 0.2 3.9 0.4
v 0.2 3.9 0.3
v 0.2 4 0.3
v 0.2 4 0.1
v 0.2 4.1 0.4
v 0.2 4.1 0.1
v 0.3 3.4 0.5
v 0.3 3.4 0.3
v 0.3 3.6 0.6
v 0.3 3.6 0.5
v 0.3 3.7 0.6
v 0.3 3.7 0.5
v 0.3 3.7 0.3
v 0.3 3.8 0.6
v 0.3 3.8 0.5
v 0.3 3.8 0.3
v 0.3 3.9 0.4
v 0.3 3.9 0.3
v 0.3 4 0.6
v 0.3 4 0.5
v 0.3 4.1 0.5
v 0.3 4.1 0.4
v 0.3 4.1 5.96046e-08
v 0.3 4.3 0.4
v 0.3 4.3 5.96046e-08
v 0.5 4 0.6
v 0.5 4 0.5
v 0.5 4.1 0.5
v 0.5 4.2 0.6
v 0.5 4.2 0.5
v -0.1 3.4 0.5
v -0.1 3.4 0.3
v -0.1 3.7 0.3
v -0.1 3.8 0.3
v -0.1 3.9 0.4
v -0.1 3.9 0.3
v -0.1 4.1 0.5
v -0.1 4.1 0.4
v -0.1 4.1 5.96046e-08
v -0.1 4.3 0.4
v -0.1 4.3 5.96046e-08
v -5.96046e-08 3.9 0.4
v -5.96046e-08 3.9 0.3
v -5.96046e-08 4 0.3
v -5.96046e-08 4 0.1
v -5.96046e-08 4.1 0.4
v -5.96046e-08 4.1 0.1
v 0.4 4.2 0.4
v 0.4 4.2 -0.1
v 0.4 4.3 0.4
v 0.4 4.3 -0.1
v 0.5 4.1 0.4
v 0.5 4.1 0.3
v 0.5 4.1 0.1
v 0.5 4.1 -0.1
v 0.5 4.2 0.4
v 0.5 4.2 -0.1
v 0.6 3.6 0.6
v 0.6 3.6 0.5
v 0.6 3.7 0.6
v 0.6 3.7 0.5
v 0.6 3.8 0.6
v 0.6 3.8 0.5
v 0.6 4 0.5
v 0.6 4.1 0.5
v 0.6 4.2 0.6
v 0.6 4.2 0.5
v 0.7 3.4 0.5
v 0.7 3.4 0.4
v 0.7 3.4 -0.1
v 0.7 3.4 -0.2
v 0.7 3.6 0.5
v 0.7 3.6 0.4
v 0.7 4 0.5
v 0.7 4 0.4
v 0.7 4.1 0.5
v 0.7 4.1 0.4
v 0.7 4.1 -0.1
v 0.7 4.1 -0.2
v 0.8 3.4 0.4
v 0.8 3.4 -0.1
v 0.8 3.6 0.5
v 0.8 3.6 0.4
v 0.8 3.8 0.5
v 0.8 3.8 0.4
v 0.8 4 0.5
v 0.8 4 0.4
v 0.8 4 0.3
v 0.8 4 0.1
v 0.8 4.1 0.4
v 0.8 4.1 0.3
v 0.8 4.1 0.1
v 0.8 4.1 -0.1
v 0.3 3.6 0.6
v 0.3 3.7 0.6
v 0.3 3.8 0.6
v 0.3 4 0.6
v 0.5 4 0.6
v 0.5 4.2 0.6
v 0.6 3.6 0.6
v 0.6 3.7 0.6
v 0.6 3.8 0.6
v 0.6 4.2 0.6
v -0.5 3.4 0.5
v -0.5 4.1 0.5
v -0.1 3.4 0.5
v -0.1 4.1 0.5
v 0.3 3.4 0.5
v 0.3 3.6 0.5
v 0.3 4 0.5
v 0.3 4.1 0.5
v 0.5 4 0.5
v 0.5 4.1 0.5
v 0.6 3.6 0.5
v 0.6 3.7 0.5
v 0.6 3.8 0.5
v 0.6 4 0.5
v 0.6 4.1 0.5
v 0.7 3.4 0.5
v 0.7 3.6 0.5
v 0.7 4 0.5
v 0.7 4.1 0.5
v 0.8 3.6 0.5
v 0.8 3.8 0.5
v 0.8 4 0.5
v -0.6 3.4 0.4
v -0.6 4.1 0.4
v -0.5 3.4 0.4
v -0.5 4.1 0.4
v -0.3 4.1 0.4
v -0.3 4.2 0.4
v -0.2 4.2 0.4
v -0.2 4.3 0.4
v -0.1 3.9 0.4
v -0.1 4.1 0.4
v -0.1 4.3 0.4
v -5.96046e-08 3.9 0.4
v -5.96046e-08 4.1 0.4
v 0.2 3.9 0.4
v 0.2 4.1 0.4
v 0.3 3.9 0.4
v 0.3 4.1 0.4
v 0.3 4.3 0.4
v 0.4 4.2 0.4
v 0.4 4.3 0.4
v 0.5 4.1 0.4
v 0.5 4.2 0.4
v 0.7 3.4 0.4
v 0.7 3.6 0.4
v 0.7 4 0.4
v 0.7 4.1 0.4
v 0.8 3.4 0.4
v 0.8 3.6 0.4
v 0.8 4 0.4
v 0.8 4.1 0.4
v -0.1 3.4 0.3
v -0.1 3.7 0.3
v -0.1 3.8 0.3
v -0.1 3.9 0.3
v -5.96046e-08 3.9 0.3
v -5.96046e-08 4 0.3
v 0.2 3.9 0.3
v 0.2 4 0.3
v 0.3 3.4 0.3
v 0.3 3.7 0.3
v 0.3 3.8 0.3
v 0.3 3.9 0.3
v -5.96046e-08 4 0.1
v -5.96046e-08 4.1 0.1
v 0.2 4 0.1
v 0.2 4.1 0.1
v -0.1 4.1 5.96046e-08
v -0.1 4.3 5.96046e-08
v 0.3 4.1 5.96046e-08
v 0.3 4.3 5.96046e-08
v 0.5 4.1 0.5
v 0.5 4.2 0.5
v 0.6 4.1 0.5
v 0.6 4.2 0.5
v -0.6 3.4 -0.1
v -0.6 4.1 -0.1
v -0.5 3.4 -0.1
v -0.5 4.1 -0.1
v -0.3 4.1 -0.1
v -0.3 4.2 -0.1
v -0.2 4.2 -0.1
v -0.2 4.3 -0.1
v 0.4 4.2 -0.1
v 0.4 4.3 -0.1
v 0.5 4.1 -0.1
v 0.5 4.2 -0.1
v 0.7 3.4 -0.1
v 0.7 4.1 -0.1
v 0.8 3.4 -0.1
v 0.8 4.1 -0.1
v -0.5 3.4 -0.2
v -0.5 4.1 -0.2
v 0.7 3.4 -0.2
v 0.7 4.1 -0.2
v -0.5 3.4 0.5
v -0.1 3.4 0.5
v 0.3 3.4 0.5
v 0.7 3.4 0.5
v -0.6 3.4 0.4
v -0.5 3.4 0.4
v 0.7 3.4 0.4
v 0.8 3.4 0.4
v -0.4 3.4 0.3
v -0.1 3.4 0.3
v 0.3 3.4 0.3
v 0.6 3.4 0.3
v -0.4 3.4 5.96046e-08
v 0.6 3.4 5.96046e-08
v -0.6 3.4 -0.1
v -0.5 3.4 -0.1
v 0.7 3.4 -0.1
v 0.8 3.4 -0.1
v -0.5 3.4 -0.2
v 0.7 3.4 -0.2
v 0.3 3.6 0.6
v 0.6 3.6 0.6
v 0.3 3.6 0.5
v 0.6 3.6 0.5
v 0.7 3.6 0.5
v 0.8 3.6 0.5
v 0.7 3.6 0.4
v 0.8 3.6 0.4
v -0.1 3.9 0.4
v -5.96046e-08 3.9 0.4
v 0.2 3.9 0.4
v 0.3 3.9 0.4
v -0.1 3.9 0.3
v -5.96046e-08 3.9 0.3
v 0.2 3.9 0.3
v 0.3 3.9 0.3
v 0.3 4 0.6
v 0.5 4 0.6
v 0.3 4 0.5
v 0.5 4 0.5
v 0.7 4 0.5
v 0.8 4 0.5
v 0.7 4 0.4
v 0.8 4 0.4
v -5.96046e-08 4 0.3
v 0.2 4 0.3
v -5.96046e-08 4 0.1
v 0.2 4 0.1
v -0.5 4.1 0.5
v -0.1 4.1 0.5
v 0.3 4.1 0.5
v 0.5 4.1 0.5
v 0.6 4.1 0.5
v 0.7 4.1 0.5
v -0.6 4.1 0.4
v -0.5 4.1 0.4
v -0.3 4.1 0.4
v -0.1 4.1 0.4
v -5.96046e-08 4.1 0.4
v 0.2 4.1 0.4
v 0.3 4.1 0.4
v 0.5 4.1 0.4
v 0.7 4.1 0.4
v 0.8 4.1 0.4
v 0.5 4.1 0.3
v 0.6 4.1 0.3
v 0.7 4.1 0.3
v 0.8 4.1 0.3
v 0.6 4.1 0.2
v 0.7 4.1 0.2
v -5.96046e-08 4.1 0.1
v 0.2 4.1 0.1
v 0.5 4.1 0.1
v 0.8 4.1 0.1
v -0.1 4.1 5.96046e-08
v 0.3 4.1 5.96046e-08
v -0.6 4.1 -0.1
v -0.5 4.1 -0.1
v -0.3 4.1 -0.1
v 0.5 4.1 -0.1
v 0.7 4.1 -0.1
v 0.8 4.1 -0.1
v -0.5 4.1 -0.2
v 0.7 4.1 -0.2
v 0.5 4.2 0.6
v 0.6 4.2 0.6
v 0.5 4.2 0.5
v 0.6 4.2 0.5
v -0.3 4.2 0.4
v -0.2 4.2 0.4
v 0.4 4.2 0.4
v 0.5 4.2 0.4
v -0.3 4.2 -0.1
v -0.2 4.2 -0.1
v 0.4 4.2 -0.1
v 0.5 4.2 -0.1
v -0.2 4.3 0.4
v -0.1 4.3 0.4
v 0.3 4.3 0.4
v 0.4 4.3 0.4
v -0.1 4.3 5.96046e-08
v 0.3 4.3 5.96046e-08
v -0.2 4.3 -0.1
v 0.4 4.3 -0.1

# faces
f 3/3/1 2/3/1 1/3/1
f 4/3/1 2/3/1 3/3/1
f 9/3/1 6/3/1 5/3/1
f 10/3/1 6/3/1 9/3/1
f 11/3/1 8/3/1 7/3/1
f 12/3/1 8/3/1 11/3/1
f 15/3/1 14/3/1 13/3/1
f 16/3/1 14/3/1 15/3/1
f 19/3/1 18/3/1 17/3/1
f 20/3/1 18/3/1 19/3/1
f 23/2/1 22/2/1 21/2/1
f 25/2/1 23/2/1 21/2/1
f 25/2/1 24/2/1 23/2/1
f 26/2/1 24/2/1 25/2/1
f 30/3/1 28/3/1 27/3/1
f 31/5/1 30/5/1 29/5/1
f 32/3/1 28/3/1 30/3/1
f 32/5/1 30/5/1 31/5/1
f 33/3/1 28/3/1 32/3/1
f 34/3/1 32/3/1 31/3/1
f 34/3/1 33/3/1 32/3/1
f 35/3/1 33/3/1 34/3/1
f 36/3/1 33/3/1 35/3/1
f 37/3/1 36/3/1 35/3/1
f 38/3/1 36/3/1 37/3/1
f 39/5/1 35/5/1 34/5/1
f 40/3/1 37/3/1 35/3/1
f 40/5/1 35/5/1 39/5/1
f 41/3/1 37/3/1 40/3/1
f 42/3/1 37/3/1 41/3/1
f 44/3/1 43/3/1 42/3/1
f 45/3/1 43/3/1 44/3/1
f 48/5/1 47/5/1 46/5/1
f 49/5/1 48/5/1 46/5/1
f 50/5/1 48/5/1 49/5/1
f 51/3/2 52/3/2 53/3/2
f 51/3/2 53/3/2 54/3/2
f 51/3/2 54/3/2 55/3/2
f 55/3/2 54/3/2 56/3/2
f 51/3/2 55/3/2 57/3/2
f 57/3/2 55/3/2 58/3/2
f 58/3/2 59/3/2 60/3/2
f 60/3/2 59/3/2 61/3/2
f 62/2/2 63/2/2 64/2/2
f 62/2/2 64/2/2 66/2/2
f 64/2/2 65/2/2 66/2/2
f 66/2/2 65/2/2 67/2/2
f 68/3/2 69/3/2 70/3/2
f 70/3/2 69/3/2 71/3/2
f 72/3/2 73/3/2 76/3/2
f 74/3/2 75/3/2 76/3/2
f 73/3/2 74/3/2 76/3/2
f 76/3/2 75/3/2 77/3/2
f 78/5/2 79/5/2 80/5/2
f 80/5/2 79/5/2 81/5/2
f 80/3/2 81/3/2 82/3/2
f 82/3/2 81/3/2 83/3/2
f 82/5/2 83/5/2 84/5/2
f 82/5/2 84/5/2 85/5/2
f 82/5/2 85/5/2 86/5/2
f 86/5/2 85/5/2 87/5/2
f 88/3/2 89/3/2 92/3/2
f 92/3/2 89/3/2 93/3/2
f 94/5/2 95/5/2 96/5/2
f 96/5/2 95/5/2 97/5/2
f 90/3/2 91/3/2 98/3/2
f 98/3/2 91/3/2 99/3/2
f 100/3/2 101/3/2 103/3/2
f 102/2/2 103/2/2 104/2/2
f 103/3/2 101/3/2 105/3/2
f 104/2/2 103/2/2 105/2/2
f 104/1/2 105/1/2 106/1/2
f 105/3/2 101/3/2 107/3/2
f 106/1/2 105/1/2 107/1/2
f 107/3/2 101/3/2 108/3/2
f 108/3/2 101/3/2 109/3/2
f 107/3/2 108/3/2 110/3/2
f 108/4/2 109/4/2 111/4/2
f 110/3/2 108/3/2 111/3/2
f 109/3/2 101/3/2 112/3/2
f 111/4/2 109/4/2 112/4/2
f 112/3/2 101/3/2 113/3/2
f 118/5/3 117/5/3 116/5/3
f 120/5/3 115/5/3 114/5/3
f 121/3/3 116/3/3 115/3/3
f 121/5/3 115/5/3 120/5/3
f 122/5/3 119/5/3 118/5/3
f 122/3/3 116/3/3 121/3/3
f 122/5/3 118/5/3 116/5/3
f 123/5/3 119/5/3 122/5/3
f 126/3/3 125/3/3 124/3/3
f 127/3/3 125/3/3 126/3/3
f 132/3/3 131/3/3 130/3/3
f 133/3/3 131/3/3 132/3/3
f 134/3/3 129/3/3 128/3/3
f 139/3/3 134/3/3 128/3/3
f 140/2/3 135/2/3 134/2/3
f 140/3/3 134/3/3 139/3/3
f 140/2/3 136/2/3 135/2/3
f 141/5/3 138/5/3 137/5/3
f 141/1/3 137/1/3 136/1/3
f 142/5/3 138/5/3 141/5/3
f 143/2/3 136/2/3 140/2/3
f 144/1/3 141/1/3 136/1/3
f 144/2/3 136/2/3 143/2/3
f 145/1/3 141/1/3 144/1/3
f 148/3/3 147/3/3 146/3/3
f 149/3/3 147/3/3 148/3/3
f 152/3/3 151/3/3 150/3/3
f 155/3/3 152/3/3 150/3/3
f 155/3/3 153/3/3 152/3/3
f 156/3/3 153/3/3 155/3/3
f 157/2/3 155/2/3 154/2/3
f 158/2/3 155/2/3 157/2/3
f 161/2/3 160/2/3 159/2/3
f 162/2/3 160/2/3 161/2/3
f 164/3/3 163/3/3 162/3/3
f 165/3/3 163/3/3 164/3/3
f 166/3/3 164/3/3 162/3/3
f 167/3/3 164/3/3 166/3/3
f 172/3/3 169/3/3 168/3/3
f 173/3/3 169/3/3 172/3/3
f 174/3/3 171/3/3 170/3/3
f 175/3/3 171/3/3 174/3/3
f 180/2/3 179/2/3 178/2/3
f 182/2/3 180/2/3 178/2/3
f 182/2/3 181/2/3 180/2/3
f 183/2/3 181/2/3 182/2/3
f 184/2/3 177/2/3 176/2/3
f 185/5/3 178/5/3 177/5/3
f 185/2/3 177/2/3 184/2/3
f 186/2/3 182/2/3 178/2/3
f 186/5/3 178/5/3 185/5/3
f 187/2/3 182/2/3 186/2/3
f 190/2/3 189/2/3 188/2/3
f 191/2/3 189/2/3 190/2/3
f 194/3/3 193/3/3 192/3/3
f 195/3/3 193/3/3 194/3/3
f 196/5/4 197/5/4 198/5/4
f 198/5/4 197/5/4 199/5/4
f 200/3/4 201/3/4 202/3/4
f 202/3/4 201/3/4 203/3/4
f 204/3/4 205/3/4 206/3/4
f 204/3/4 206/3/4 208/3/4
f 206/3/4 207/3/4 208/3/4
f 208/3/4 207/3/4 209/3/4
f 204/3/4 208/3/4 210/3/4
f 210/3/4 208/3/4 211/3/4
f 212/3/4 213/3/4 214/3/4
f 214/3/4 213/3/4 215/3/4
f 216/3/4 217/3/4 218/3/4
f 218/3/4 217/3/4 219/3/4
f 225/3/5 221/3/5 220/3/5
f 226/3/5 223/3/5 222/3/5
f 228/3/5 225/3/5 224/3/5
f 228/3/5 221/3/5 225/3/5
f 229/3/5 221/3/5 228/3/5
f 230/3/5 227/3/5 226/3/5
f 230/3/5 226/3/5 222/3/5
f 231/3/5 227/3/5 230/3/5
f 232/2/5 229/2/5 228/2/5
f 232/3/5 228/3/5 224/3/5
f 232/2/5 231/2/5 230/2/5
f 232/2/5 230/2/5 229/2/5
f 233/3/5 227/3/5 231/3/5
f 233/2/5 231/2/5 232/2/5
f 234/3/5 232/3/5 224/3/5
f 234/3/5 233/3/5 232/3/5
f 235/3/5 233/3/5 234/3/5
f 236/3/5 227/3/5 233/3/5
f 236/3/5 233/3/5 235/3/5
f 237/3/5 227/3/5 236/3/5
f 238/3/5 236/3/5 235/3/5
f 239/3/5 236/3/5 238/3/5
f 242/5/5 241/5/5 240/5/5
f 243/5/5 241/5/5 242/5/5
f 246/2/5 245/2/5 244/2/5
f 247/2/5 245/2/5 246/2/5
f 252/2/5 249/2/5 248/2/5
f 253/2/5 249/2/5 252/2/5
f 254/2/5 251/2/5 250/2/5
f 255/2/5 251/2/5 254/2/5
f 256/5/6 257/5/6 258/5/6
f 258/5/6 257/5/6 259/5/6
f 260/1/6 261/1/6 262/1/6
f 262/1/6 261/1/6 263/1/6
f 264/2/6 265/2/6 266/2/6
f 266/2/6 265/2/6 267/2/6
f 268/3/6 269/3/6 275/3/6
f 275/3/6 269/3/6 276/3/6
f 276/3/6 269/3/6 277/3/6
f 270/3/6 271/3/6 280/3/6
f 271/3/6 272/3/6 280/3/6
f 280/3/6 272/3/6 281/3/6
f 272/5/6 273/5/6 282/5/6
f 281/3/6 272/3/6 284/3/6
f 272/5/6 282/5/6 285/5/6
f 284/3/6 272/3/6 285/3/6
f 282/3/6 283/3/6 286/3/6
f 285/5/6 282/5/6 286/5/6
f 286/3/6 283/3/6 287/3/6
f 284/4/6 285/4/6 288/4/6
f 285/1/6 286/1/6 288/1/6
f 286/4/6 287/4/6 289/4/6
f 288/1/6 286/1/6 289/1/6
f 277/2/6 278/2/6 290/2/6
f 279/2/6 280/2/6 291/2/6
f 284/4/6 288/4/6 292/4/6
f 288/4/6 289/4/6 292/4/6
f 289/4/6 287/4/6 293/4/6
f 292/4/6 289/4/6 293/4/6
f 277/2/6 290/2/6 294/2/6
f 290/2/6 291/2/6 294/2/6
f 291/2/6 280/2/6 295/2/6
f 294/2/6 291/2/6 295/2/6
f 274/3/6 275/3/6 296/3/6
f 275/3/6 276/3/6 296/3/6
f 296/3/6 276/3/6 297/3/6
f 297/3/6 276/3/6 298/3/6
f 292/3/6 293/3/6 299/3/6
f 299/3/6 293/3/6 300/3/6
f 300/3/6 293/3/6 301/3/6
f 297/3/6 298/3/6 302/3/6
f 299/3/6 300/3/6 302/3/6
f 298/3/6 299/3/6 302/3/6
f 302/3/6 300/3/6 303/3/6
f 304/5/6 305/5/6 306/5/6
f 306/5/6 305/5/6 307/5/6
f 308/3/6 309/3/6 312/3/6
f 312/3/6 309/3/6 313/3/6
f 310/3/6 311/3/6 314/3/6
f 314/3/6 311/3/6 315/3/6
f 316/3/6 317/3/6 320/3/6
f 318/3/6 319/3/6 321/3/6
f 316/3/6 320/3/6 322/3/6
f 320/3/6 321/3/6 322/3/6
f 321/3/6 319/3/6 323/3/6
f 322/3/6 321/3/6 323/3/6
