# MagicaVoxel @ Ephtracy

# group
o 

# material
mtllib Heart1.mtl
usemtl palette

# normals
vn -1 0 0
vn 1 0 0
vn 0 0 1
vn 0 0 -1
vn 0 -1 0
vn 0 1 0

# texcoords
vt 0.130859 0.5
vt 0.751953 0.5
vt 0.837891 0.5

# verts
v -0.6 1.8 -1.2
v -0.6 1.8 -1.4
v -0.6 2.2 -1.2
v -0.6 2.2 -1.4
v -0.5 1.7 -1.2
v -0.5 1.7 -1.4
v -0.5 1.8 -1.2
v -0.5 1.8 -1.4
v -0.5 2.2 -1.2
v -0.5 2.2 -1.4
v -0.5 2.3 -1.2
v -0.5 2.3 -1.4
v -0.4 1.6 -1.2
v -0.4 1.6 -1.4
v -0.4 1.7 -1.2
v -0.4 1.7 -1.4
v -0.4 2.3 -1.2
v -0.4 2.3 -1.4
v -0.4 2.4 -1.2
v -0.4 2.4 -1.4
v -0.3 1.5 -1.2
v -0.3 1.5 -1.4
v -0.3 1.6 -1.2
v -0.3 1.6 -1.4
v -0.2 1.4 -1.2
v -0.2 1.4 -1.4
v -0.2 1.5 -1.2
v -0.2 1.5 -1.4
v -0.0999999 1.3 -1.2
v -0.0999999 1.3 -1.4
v -0.0999999 1.4 -1.2
v -0.0999999 1.4 -1.4
v -0.0999999 2 -1.2
v -0.0999999 2 -1.4
v -0.0999999 2.1 -1.2
v -0.0999999 2.1 -1.4
v 5.96046e-08 1.2 -1.2
v 5.96046e-08 1.2 -1.4
v 5.96046e-08 1.3 -1.2
v 5.96046e-08 1.3 -1.4
v 0.1 1.6 -1.2
v 0.1 1.6 -1.4
v 0.1 1.7 -1.2
v 0.1 1.7 -1.4
v 0.1 2.2 -1.2
v 0.1 2.2 -1.4
v 0.1 2.3 -1.2
v 0.1 2.3 -1.4
v 0.2 1.7 -1.2
v 0.2 1.7 -1.4
v 0.2 1.8 -1.2
v 0.2 1.8 -1.4
v 0.2 2.3 -1.2
v 0.2 2.3 -1.4
v 0.2 2.4 -1.2
v 0.2 2.4 -1.4
v 0.3 1.8 -1.2
v 0.3 1.8 -1.4
v 0.3 1.9 -1.2
v 0.3 1.9 -1.4
v 0.4 1.9 -1.2
v 0.4 1.9 -1.4
v 0.4 2.1 -1.2
v 0.4 2.1 -1.4
v -0.3 1.9 -1.2
v -0.3 1.9 -1.4
v -0.3 2.1 -1.2
v -0.3 2.1 -1.4
v -0.2 1.8 -1.2
v -0.2 1.8 -1.4
v -0.2 1.9 -1.2
v -0.2 1.9 -1.4
v -0.0999999 1.7 -1.2
v -0.0999999 1.7 -1.4
v -0.0999999 1.8 -1.2
v -0.0999999 1.8 -1.4
v -0.0999999 2.3 -1.2
v -0.0999999 2.3 -1.4
v -0.0999999 2.4 -1.2
v -0.0999999 2.4 -1.4
v 5.96046e-08 1.6 -1.2
v 5.96046e-08 1.6 -1.4
v 5.96046e-08 1.7 -1.2
v 5.96046e-08 1.7 -1.4
v 5.96046e-08 2.2 -1.2
v 5.96046e-08 2.2 -1.4
v 5.96046e-08 2.3 -1.2
v 5.96046e-08 2.3 -1.4
v 0.1 1.2 -1.2
v 0.1 1.2 -1.4
v 0.1 1.3 -1.2
v 0.1 1.3 -1.4
v 0.2 1.3 -1.2
v 0.2 1.3 -1.4
v 0.2 1.4 -1.2
v 0.2 1.4 -1.4
v 0.2 2 -1.2
v 0.2 2 -1.4
v 0.2 2.1 -1.2
v 0.2 2.1 -1.4
v 0.3 1.4 -1.2
v 0.3 1.4 -1.4
v 0.3 1.5 -1.2
v 0.3 1.5 -1.4
v 0.4 1.5 -1.2
v 0.4 1.5 -1.4
v 0.4 1.6 -1.2
v 0.4 1.6 -1.4
v 0.5 1.6 -1.2
v 0.5 1.6 -1.4
v 0.5 1.7 -1.2
v 0.5 1.7 -1.4
v 0.5 2.3 -1.2
v 0.5 2.3 -1.4
v 0.5 2.4 -1.2
v 0.5 2.4 -1.4
v 0.6 1.7 -1.2
v 0.6 1.7 -1.4
v 0.6 1.8 -1.2
v 0.6 1.8 -1.4
v 0.6 2.2 -1.2
v 0.6 2.2 -1.4
v 0.6 2.3 -1.2
v 0.6 2.3 -1.4
v 0.7 1.8 -1.2
v 0.7 1.8 -1.4
v 0.7 2.2 -1.2
v 0.7 2.2 -1.4
v -0.6 1.8 -1.2
v -0.6 2.2 -1.2
v -0.5 1.7 -1.2
v -0.5 1.8 -1.2
v -0.5 2.2 -1.2
v -0.5 2.3 -1.2
v -0.4 1.6 -1.2
v -0.4 1.7 -1.2
v -0.4 1.8 -1.2
v -0.4 1.9 -1.2
v -0.4 2.1 -1.2
v -0.4 2.2 -1.2
v -0.4 2.3 -1.2
v -0.4 2.4 -1.2
v -0.3 1.5 -1.2
v -0.3 1.6 -1.2
v -0.3 1.7 -1.2
v -0.3 1.8 -1.2
v -0.3 1.9 -1.2
v -0.3 2.1 -1.2
v -0.3 2.2 -1.2
v -0.3 2.3 -1.2
v -0.3 2.4 -1.2
v -0.2 1.4 -1.2
v -0.2 1.5 -1.2
v -0.2 1.6 -1.2
v -0.2 1.7 -1.2
v -0.2 1.8 -1.2
v -0.2 1.9 -1.2
v -0.0999999 1.3 -1.2
v -0.0999999 1.4 -1.2
v -0.0999999 1.5 -1.2
v -0.0999999 1.6 -1.2
v -0.0999999 1.7 -1.2
v -0.0999999 1.8 -1.2
v -0.0999999 2 -1.2
v -0.0999999 2.1 -1.2
v -0.0999999 2.2 -1.2
v -0.0999999 2.3 -1.2
v -0.0999999 2.4 -1.2
v 5.96046e-08 1.2 -1.2
v 5.96046e-08 1.3 -1.2
v 5.96046e-08 1.4 -1.2
v 5.96046e-08 1.5 -1.2
v 5.96046e-08 1.6 -1.2
v 5.96046e-08 1.7 -1.2
v 5.96046e-08 2 -1.2
v 5.96046e-08 2.1 -1.2
v 5.96046e-08 2.2 -1.2
v 5.96046e-08 2.3 -1.2
v 0.1 1.2 -1.2
v 0.1 1.3 -1.2
v 0.1 1.4 -1.2
v 0.1 1.5 -1.2
v 0.1 1.6 -1.2
v 0.1 1.7 -1.2
v 0.1 2 -1.2
v 0.1 2.1 -1.2
v 0.1 2.2 -1.2
v 0.1 2.3 -1.2
v 0.2 1.3 -1.2
v 0.2 1.4 -1.2
v 0.2 1.5 -1.2
v 0.2 1.6 -1.2
v 0.2 1.7 -1.2
v 0.2 1.8 -1.2
v 0.2 2 -1.2
v 0.2 2.1 -1.2
v 0.2 2.2 -1.2
v 0.2 2.3 -1.2
v 0.2 2.4 -1.2
v 0.3 1.4 -1.2
v 0.3 1.5 -1.2
v 0.3 1.6 -1.2
v 0.3 1.7 -1.2
v 0.3 1.8 -1.2
v 0.3 1.9 -1.2
v 0.4 1.5 -1.2
v 0.4 1.6 -1.2
v 0.4 1.7 -1.2
v 0.4 1.8 -1.2
v 0.4 1.9 -1.2
v 0.4 2.1 -1.2
v 0.4 2.2 -1.2
v 0.4 2.3 -1.2
v 0.4 2.4 -1.2
v 0.5 1.6 -1.2
v 0.5 1.7 -1.2
v 0.5 1.8 -1.2
v 0.5 1.9 -1.2
v 0.5 2.1 -1.2
v 0.5 2.2 -1.2
v 0.5 2.3 -1.2
v 0.5 2.4 -1.2
v 0.6 1.7 -1.2
v 0.6 1.8 -1.2
v 0.6 2.2 -1.2
v 0.6 2.3 -1.2
v 0.7 1.8 -1.2
v 0.7 2.2 -1.2
v -0.6 1.8 -1.4
v -0.6 2.2 -1.4
v -0.5 1.7 -1.4
v -0.5 1.8 -1.4
v -0.5 2.2 -1.4
v -0.5 2.3 -1.4
v -0.4 1.6 -1.4
v -0.4 1.7 -1.4
v -0.4 1.8 -1.4
v -0.4 1.9 -1.4
v -0.4 2.1 -1.4
v -0.4 2.2 -1.4
v -0.4 2.3 -1.4
v -0.4 2.4 -1.4
v -0.3 1.5 -1.4
v -0.3 1.6 -1.4
v -0.3 1.7 -1.4
v -0.3 1.8 -1.4
v -0.3 1.9 -1.4
v -0.3 2.1 -1.4
v -0.3 2.2 -1.4
v -0.3 2.3 -1.4
v -0.3 2.4 -1.4
v -0.2 1.4 -1.4
v -0.2 1.5 -1.4
v -0.2 1.6 -1.4
v -0.2 1.7 -1.4
v -0.2 1.8 -1.4
v -0.2 1.9 -1.4
v -0.0999999 1.3 -1.4
v -0.0999999 1.4 -1.4
v -0.0999999 1.5 -1.4
v -0.0999999 1.6 -1.4
v -0.0999999 1.7 -1.4
v -0.0999999 1.8 -1.4
v -0.0999999 2 -1.4
v -0.0999999 2.1 -1.4
v -0.0999999 2.2 -1.4
v -0.0999999 2.3 -1.4
v -0.0999999 2.4 -1.4
v 5.96046e-08 1.2 -1.4
v 5.96046e-08 1.3 -1.4
v 5.96046e-08 1.4 -1.4
v 5.96046e-08 1.5 -1.4
v 5.96046e-08 1.6 -1.4
v 5.96046e-08 1.7 -1.4
v 5.96046e-08 2 -1.4
v 5.96046e-08 2.1 -1.4
v 5.96046e-08 2.2 -1.4
v 5.96046e-08 2.3 -1.4
v 0.1 1.2 -1.4
v 0.1 1.3 -1.4
v 0.1 1.4 -1.4
v 0.1 1.5 -1.4
v 0.1 1.6 -1.4
v 0.1 1.7 -1.4
v 0.1 2 -1.4
v 0.1 2.1 -1.4
v 0.1 2.2 -1.4
v 0.1 2.3 -1.4
v 0.2 1.3 -1.4
v 0.2 1.4 -1.4
v 0.2 1.5 -1.4
v 0.2 1.6 -1.4
v 0.2 1.7 -1.4
v 0.2 1.8 -1.4
v 0.2 2 -1.4
v 0.2 2.1 -1.4
v 0.2 2.2 -1.4
v 0.2 2.3 -1.4
v 0.2 2.4 -1.4
v 0.3 1.4 -1.4
v 0.3 1.5 -1.4
v 0.3 1.6 -1.4
v 0.3 1.7 -1.4
v 0.3 1.8 -1.4
v 0.3 1.9 -1.4
v 0.4 1.5 -1.4
v 0.4 1.6 -1.4
v 0.4 1.7 -1.4
v 0.4 1.8 -1.4
v 0.4 1.9 -1.4
v 0.4 2.1 -1.4
v 0.4 2.2 -1.4
v 0.4 2.3 -1.4
v 0.4 2.4 -1.4
v 0.5 1.6 -1.4
v 0.5 1.7 -1.4
v 0.5 1.8 -1.4
v 0.5 1.9 -1.4
v 0.5 2.1 -1.4
v 0.5 2.2 -1.4
v 0.5 2.3 -1.4
v 0.5 2.4 -1.4
v 0.6 1.7 -1.4
v 0.6 1.8 -1.4
v 0.6 2.2 -1.4
v 0.6 2.3 -1.4
v 0.7 1.8 -1.4
v 0.7 2.2 -1.4
v 5.96046e-08 1.2 -1.2
v 0.1 1.2 -1.2
v 5.96046e-08 1.2 -1.4
v 0.1 1.2 -1.4
v -0.0999999 1.3 -1.2
v 5.96046e-08 1.3 -1.2
v 0.1 1.3 -1.2
v 0.2 1.3 -1.2
v -0.0999999 1.3 -1.4
v 5.96046e-08 1.3 -1.4
v 0.1 1.3 -1.4
v 0.2 1.3 -1.4
v -0.2 1.4 -1.2
v -0.0999999 1.4 -1.2
v 0.2 1.4 -1.2
v 0.3 1.4 -1.2
v -0.2 1.4 -1.4
v -0.0999999 1.4 -1.4
v 0.2 1.4 -1.4
v 0.3 1.4 -1.4
v -0.3 1.5 -1.2
v -0.2 1.5 -1.2
v 0.3 1.5 -1.2
v 0.4 1.5 -1.2
v -0.3 1.5 -1.4
v -0.2 1.5 -1.4
v 0.3 1.5 -1.4
v 0.4 1.5 -1.4
v -0.4 1.6 -1.2
v -0.3 1.6 -1.2
v 0.4 1.6 -1.2
v 0.5 1.6 -1.2
v -0.4 1.6 -1.4
v -0.3 1.6 -1.4
v 0.4 1.6 -1.4
v 0.5 1.6 -1.4
v -0.5 1.7 -1.2
v -0.4 1.7 -1.2
v 0.5 1.7 -1.2
v 0.6 1.7 -1.2
v -0.5 1.7 -1.4
v -0.4 1.7 -1.4
v 0.5 1.7 -1.4
v 0.6 1.7 -1.4
v -0.6 1.8 -1.2
v -0.5 1.8 -1.2
v 0.6 1.8 -1.2
v 0.7 1.8 -1.2
v -0.6 1.8 -1.4
v -0.5 1.8 -1.4
v 0.6 1.8 -1.4
v 0.7 1.8 -1.4
v -0.0999999 2 -1.2
v 5.96046e-08 2 -1.2
v 0.1 2 -1.2
v 0.2 2 -1.2
v -0.0999999 2 -1.4
v 5.96046e-08 2 -1.4
v 0.1 2 -1.4
v 0.2 2 -1.4
v -0.3 2.1 -1.2
v -0.0999999 2.1 -1.2
v 0.2 2.1 -1.2
v 0.4 2.1 -1.2
v -0.3 2.1 -1.4
v -0.0999999 2.1 -1.4
v 0.2 2.1 -1.4
v 0.4 2.1 -1.4
v 5.96046e-08 1.6 -1.2
v 0.1 1.6 -1.2
v 5.96046e-08 1.6 -1.4
v 0.1 1.6 -1.4
v -0.0999999 1.7 -1.2
v 5.96046e-08 1.7 -1.2
v 0.1 1.7 -1.2
v 0.2 1.7 -1.2
v -0.0999999 1.7 -1.4
v 5.96046e-08 1.7 -1.4
v 0.1 1.7 -1.4
v 0.2 1.7 -1.4
v -0.2 1.8 -1.2
v -0.0999999 1.8 -1.2
v 0.2 1.8 -1.2
v 0.3 1.8 -1.2
v -0.2 1.8 -1.4
v -0.0999999 1.8 -1.4
v 0.2 1.8 -1.4
v 0.3 1.8 -1.4
v -0.3 1.9 -1.2
v -0.2 1.9 -1.2
v 0.3 1.9 -1.2
v 0.4 1.9 -1.2
v -0.3 1.9 -1.4
v -0.2 1.9 -1.4
v 0.3 1.9 -1.4
v 0.4 1.9 -1.4
v -0.6 2.2 -1.2
v -0.5 2.2 -1.2
v 5.96046e-08 2.2 -1.2
v 0.1 2.2 -1.2
v 0.6 2.2 -1.2
v 0.7 2.2 -1.2
v -0.6 2.2 -1.4
v -0.5 2.2 -1.4
v 5.96046e-08 2.2 -1.4
v 0.1 2.2 -1.4
v 0.6 2.2 -1.4
v 0.7 2.2 -1.4
v -0.5 2.3 -1.2
v -0.4 2.3 -1.2
v -0.0999999 2.3 -1.2
v 5.96046e-08 2.3 -1.2
v 0.1 2.3 -1.2
v 0.2 2.3 -1.2
v 0.5 2.3 -1.2
v 0.6 2.3 -1.2
v -0.5 2.3 -1.4
v -0.4 2.3 -1.4
v -0.0999999 2.3 -1.4
v 5.96046e-08 2.3 -1.4
v 0.1 2.3 -1.4
v 0.2 2.3 -1.4
v 0.5 2.3 -1.4
v 0.6 2.3 -1.4
v -0.4 2.4 -1.2
v -0.3 2.4 -1.2
v -0.0999999 2.4 -1.2
v 0.2 2.4 -1.2
v 0.4 2.4 -1.2
v 0.5 2.4 -1.2
v -0.4 2.4 -1.4
v -0.3 2.4 -1.4
v -0.0999999 2.4 -1.4
v 0.2 2.4 -1.4
v 0.4 2.4 -1.4
v 0.5 2.4 -1.4

# faces
f 3/2/1 2/2/1 1/2/1
f 4/2/1 2/2/1 3/2/1
f 7/2/1 6/2/1 5/2/1
f 8/2/1 6/2/1 7/2/1
f 11/2/1 10/2/1 9/2/1
f 12/2/1 10/2/1 11/2/1
f 15/2/1 14/2/1 13/2/1
f 16/2/1 14/2/1 15/2/1
f 19/2/1 18/2/1 17/2/1
f 20/2/1 18/2/1 19/2/1
f 23/2/1 22/2/1 21/2/1
f 24/2/1 22/2/1 23/2/1
f 27/2/1 26/2/1 25/2/1
f 28/2/1 26/2/1 27/2/1
f 31/2/1 30/2/1 29/2/1
f 32/2/1 30/2/1 31/2/1
f 35/1/1 34/1/1 33/1/1
f 36/1/1 34/1/1 35/1/1
f 39/3/1 38/3/1 37/3/1
f 40/3/1 38/3/1 39/3/1
f 43/2/1 42/2/1 41/2/1
f 44/2/1 42/2/1 43/2/1
f 47/3/1 46/3/1 45/3/1
f 48/3/1 46/3/1 47/3/1
f 51/2/1 50/2/1 49/2/1
f 52/2/1 50/2/1 51/2/1
f 55/3/1 54/3/1 53/3/1
f 56/3/1 54/3/1 55/3/1
f 59/2/1 58/2/1 57/2/1
f 60/2/1 58/2/1 59/2/1
f 63/2/1 62/2/1 61/2/1
f 64/2/1 62/2/1 63/2/1
f 65/1/2 66/1/2 67/1/2
f 67/1/2 66/1/2 68/1/2
f 69/1/2 70/1/2 71/1/2
f 71/1/2 70/1/2 72/1/2
f 73/1/2 74/1/2 75/1/2
f 75/1/2 74/1/2 76/1/2
f 77/3/2 78/3/2 79/3/2
f 79/3/2 78/3/2 80/3/2
f 81/1/2 82/1/2 83/1/2
f 83/1/2 82/1/2 84/1/2
f 85/3/2 86/3/2 87/3/2
f 87/3/2 86/3/2 88/3/2
f 89/3/2 90/3/2 91/3/2
f 91/3/2 90/3/2 92/3/2
f 93/1/2 94/1/2 95/1/2
f 95/1/2 94/1/2 96/1/2
f 97/2/2 98/2/2 99/2/2
f 99/2/2 98/2/2 100/2/2
f 101/1/2 102/1/2 103/1/2
f 103/1/2 102/1/2 104/1/2
f 105/1/2 106/1/2 107/1/2
f 107/1/2 106/1/2 108/1/2
f 109/1/2 110/1/2 111/1/2
f 111/1/2 110/1/2 112/1/2
f 113/1/2 114/1/2 115/1/2
f 115/1/2 114/1/2 116/1/2
f 117/1/2 118/1/2 119/1/2
f 119/1/2 118/1/2 120/1/2
f 121/1/2 122/1/2 123/1/2
f 123/1/2 122/1/2 124/1/2
f 125/1/2 126/1/2 127/1/2
f 127/1/2 126/1/2 128/1/2
f 132/2/3 130/2/3 129/2/3
f 133/2/3 130/2/3 132/2/3
f 136/2/3 132/2/3 131/2/3
f 137/3/3 133/3/3 132/3/3
f 137/2/3 132/2/3 136/2/3
f 138/3/3 133/3/3 137/3/3
f 139/3/3 133/3/3 138/3/3
f 140/2/3 134/2/3 133/2/3
f 140/3/3 133/3/3 139/3/3
f 141/2/3 134/2/3 140/2/3
f 144/2/3 136/2/3 135/2/3
f 145/3/3 137/3/3 136/3/3
f 145/3/3 138/3/3 137/3/3
f 145/2/3 136/2/3 144/2/3
f 146/3/3 138/3/3 145/3/3
f 147/1/3 139/1/3 138/1/3
f 147/3/3 138/3/3 146/3/3
f 148/3/3 140/3/3 139/3/3
f 148/1/3 139/1/3 147/1/3
f 148/3/3 141/3/3 140/3/3
f 149/3/3 141/3/3 148/3/3
f 150/2/3 142/2/3 141/2/3
f 150/3/3 141/3/3 149/3/3
f 151/2/3 142/2/3 150/2/3
f 153/2/3 144/2/3 143/2/3
f 154/3/3 146/3/3 145/3/3
f 154/3/3 145/3/3 144/3/3
f 154/2/3 144/2/3 153/2/3
f 155/3/3 146/3/3 154/3/3
f 156/1/3 147/1/3 146/1/3
f 156/3/3 146/3/3 155/3/3
f 157/1/3 147/1/3 156/1/3
f 159/2/3 153/2/3 152/2/3
f 160/3/3 155/3/3 154/3/3
f 160/3/3 154/3/3 153/3/3
f 160/2/3 153/2/3 159/2/3
f 161/3/3 155/3/3 160/3/3
f 162/1/3 156/1/3 155/1/3
f 162/3/3 155/3/3 161/3/3
f 163/1/3 156/1/3 162/1/3
f 165/1/3 149/1/3 148/1/3
f 166/3/3 151/3/3 150/3/3
f 166/3/3 150/3/3 149/3/3
f 166/1/3 149/1/3 165/1/3
f 167/3/3 151/3/3 166/3/3
f 168/3/3 151/3/3 167/3/3
f 170/2/3 159/2/3 158/2/3
f 171/3/3 161/3/3 160/3/3
f 171/3/3 160/3/3 159/3/3
f 171/2/3 159/2/3 170/2/3
f 172/3/3 161/3/3 171/3/3
f 173/1/3 162/1/3 161/1/3
f 173/3/3 161/3/3 172/3/3
f 174/1/3 162/1/3 173/1/3
f 175/1/3 165/1/3 164/1/3
f 176/3/3 167/3/3 166/3/3
f 176/1/3 165/1/3 175/1/3
f 176/3/3 166/3/3 165/3/3
f 177/3/3 167/3/3 176/3/3
f 178/3/3 167/3/3 177/3/3
f 179/3/3 172/3/3 171/3/3
f 179/3/3 170/3/3 169/3/3
f 179/3/3 171/3/3 170/3/3
f 180/3/3 172/3/3 179/3/3
f 181/3/3 172/3/3 180/3/3
f 182/2/3 173/2/3 172/2/3
f 182/3/3 172/3/3 181/3/3
f 183/2/3 173/2/3 182/2/3
f 185/3/3 177/3/3 176/3/3
f 185/3/3 176/3/3 175/3/3
f 186/3/3 177/3/3 185/3/3
f 187/3/3 177/3/3 186/3/3
f 189/1/3 181/1/3 180/1/3
f 190/3/3 183/3/3 182/3/3
f 190/1/3 181/1/3 189/1/3
f 190/3/3 182/3/3 181/3/3
f 191/3/3 183/3/3 190/3/3
f 192/2/3 184/2/3 183/2/3
f 192/3/3 183/3/3 191/3/3
f 193/2/3 184/2/3 192/2/3
f 195/2/3 186/2/3 185/2/3
f 196/3/3 188/3/3 187/3/3
f 196/2/3 186/2/3 195/2/3
f 196/3/3 187/3/3 186/3/3
f 197/3/3 188/3/3 196/3/3
f 198/3/3 188/3/3 197/3/3
f 200/1/3 191/1/3 190/1/3
f 201/3/3 193/3/3 192/3/3
f 201/1/3 191/1/3 200/1/3
f 201/3/3 192/3/3 191/3/3
f 202/3/3 193/3/3 201/3/3
f 203/2/3 194/2/3 193/2/3
f 203/3/3 193/3/3 202/3/3
f 204/2/3 194/2/3 203/2/3
f 206/1/3 202/1/3 201/1/3
f 207/3/3 204/3/3 203/3/3
f 207/1/3 202/1/3 206/1/3
f 207/3/3 203/3/3 202/3/3
f 208/3/3 204/3/3 207/3/3
f 209/2/3 205/2/3 204/2/3
f 209/3/3 204/3/3 208/3/3
f 210/2/3 205/2/3 209/2/3
f 211/2/3 197/2/3 196/2/3
f 212/3/3 198/3/3 197/3/3
f 212/3/3 199/3/3 198/3/3
f 212/2/3 197/2/3 211/2/3
f 213/3/3 199/3/3 212/3/3
f 214/3/3 199/3/3 213/3/3
f 215/1/3 208/1/3 207/1/3
f 216/3/3 210/3/3 209/3/3
f 216/1/3 208/1/3 215/1/3
f 216/3/3 209/3/3 208/3/3
f 217/3/3 210/3/3 216/3/3
f 218/2/3 211/2/3 210/2/3
f 218/3/3 210/3/3 217/3/3
f 219/3/3 213/3/3 212/3/3
f 219/2/3 211/2/3 218/2/3
f 219/3/3 212/3/3 211/3/3
f 220/3/3 213/3/3 219/3/3
f 221/1/3 214/1/3 213/1/3
f 221/3/3 213/3/3 220/3/3
f 222/1/3 214/1/3 221/1/3
f 223/1/3 217/1/3 216/1/3
f 224/3/3 220/3/3 219/3/3
f 224/1/3 217/1/3 223/1/3
f 224/3/3 218/3/3 217/3/3
f 224/3/3 219/3/3 218/3/3
f 225/1/3 221/1/3 220/1/3
f 225/3/3 220/3/3 224/3/3
f 226/1/3 221/1/3 225/1/3
f 227/1/3 225/1/3 224/1/3
f 228/1/3 225/1/3 227/1/3
f 229/2/4 230/2/4 232/2/4
f 232/2/4 230/2/4 233/2/4
f 231/2/4 232/2/4 236/2/4
f 232/3/4 233/3/4 237/3/4
f 236/2/4 232/2/4 237/2/4
f 237/3/4 233/3/4 238/3/4
f 238/3/4 233/3/4 239/3/4
f 233/2/4 234/2/4 240/2/4
f 239/3/4 233/3/4 240/3/4
f 240/2/4 234/2/4 241/2/4
f 235/2/4 236/2/4 244/2/4
f 236/3/4 237/3/4 245/3/4
f 237/3/4 238/3/4 245/3/4
f 244/2/4 236/2/4 245/2/4
f 245/3/4 238/3/4 246/3/4
f 238/1/4 239/1/4 247/1/4
f 246/3/4 238/3/4 247/3/4
f 239/3/4 240/3/4 248/3/4
f 247/1/4 239/1/4 248/1/4
f 240/3/4 241/3/4 248/3/4
f 248/3/4 241/3/4 249/3/4
f 241/2/4 242/2/4 250/2/4
f 249/3/4 241/3/4 250/3/4
f 250/2/4 242/2/4 251/2/4
f 243/2/4 244/2/4 253/2/4
f 245/3/4 246/3/4 254/3/4
f 244/3/4 245/3/4 254/3/4
f 253/2/4 244/2/4 254/2/4
f 254/3/4 246/3/4 255/3/4
f 246/1/4 247/1/4 256/1/4
f 255/3/4 246/3/4 256/3/4
f 256/1/4 247/1/4 257/1/4
f 252/2/4 253/2/4 259/2/4
f 254/3/4 255/3/4 260/3/4
f 253/3/4 254/3/4 260/3/4
f 259/2/4 253/2/4 260/2/4
f 260/3/4 255/3/4 261/3/4
f 255/1/4 256/1/4 262/1/4
f 261/3/4 255/3/4 262/3/4
f 262/1/4 256/1/4 263/1/4
f 248/1/4 249/1/4 265/1/4
f 250/3/4 251/3/4 266/3/4
f 249/3/4 250/3/4 266/3/4
f 265/1/4 249/1/4 266/1/4
f 266/3/4 251/3/4 267/3/4
f 267/3/4 251/3/4 268/3/4
f 258/2/4 259/2/4 270/2/4
f 260/3/4 261/3/4 271/3/4
f 259/3/4 260/3/4 271/3/4
f 270/2/4 259/2/4 271/2/4
f 271/3/4 261/3/4 272/3/4
f 261/1/4 262/1/4 273/1/4
f 272/3/4 261/3/4 273/3/4
f 273/1/4 262/1/4 274/1/4
f 264/1/4 265/1/4 275/1/4
f 266/3/4 267/3/4 276/3/4
f 275/1/4 265/1/4 276/1/4
f 265/3/4 266/3/4 276/3/4
f 276/3/4 267/3/4 277/3/4
f 277/3/4 267/3/4 278/3/4
f 271/3/4 272/3/4 279/3/4
f 269/3/4 270/3/4 279/3/4
f 270/3/4 271/3/4 279/3/4
f 279/3/4 272/3/4 280/3/4
f 280/3/4 272/3/4 281/3/4
f 272/2/4 273/2/4 282/2/4
f 281/3/4 272/3/4 282/3/4
f 282/2/4 273/2/4 283/2/4
f 276/3/4 277/3/4 285/3/4
f 275/3/4 276/3/4 285/3/4
f 285/3/4 277/3/4 286/3/4
f 286/3/4 277/3/4 287/3/4
f 280/1/4 281/1/4 289/1/4
f 282/3/4 283/3/4 290/3/4
f 289/1/4 281/1/4 290/1/4
f 281/3/4 282/3/4 290/3/4
f 290/3/4 283/3/4 291/3/4
f 283/2/4 284/2/4 292/2/4
f 291/3/4 283/3/4 292/3/4
f 292/2/4 284/2/4 293/2/4
f 285/2/4 286/2/4 295/2/4
f 287/3/4 288/3/4 296/3/4
f 295/2/4 286/2/4 296/2/4
f 286/3/4 287/3/4 296/3/4
f 296/3/4 288/3/4 297/3/4
f 297/3/4 288/3/4 298/3/4
f 290/1/4 291/1/4 300/1/4
f 292/3/4 293/3/4 301/3/4
f 300/1/4 291/1/4 301/1/4
f 291/3/4 292/3/4 301/3/4
f 301/3/4 293/3/4 302/3/4
f 293/2/4 294/2/4 303/2/4
f 302/3/4 293/3/4 303/3/4
f 303/2/4 294/2/4 304/2/4
f 301/1/4 302/1/4 306/1/4
f 303/3/4 304/3/4 307/3/4
f 306/1/4 302/1/4 307/1/4
f 302/3/4 303/3/4 307/3/4
f 307/3/4 304/3/4 308/3/4
f 304/2/4 305/2/4 309/2/4
f 308/3/4 304/3/4 309/3/4
f 309/2/4 305/2/4 310/2/4
f 296/2/4 297/2/4 311/2/4
f 297/3/4 298/3/4 312/3/4
f 298/3/4 299/3/4 312/3/4
f 311/2/4 297/2/4 312/2/4
f 312/3/4 299/3/4 313/3/4
f 313/3/4 299/3/4 314/3/4
f 307/1/4 308/1/4 315/1/4
f 309/3/4 310/3/4 316/3/4
f 315/1/4 308/1/4 316/1/4
f 308/3/4 309/3/4 316/3/4
f 316/3/4 310/3/4 317/3/4
f 310/2/4 311/2/4 318/2/4
f 317/3/4 310/3/4 318/3/4
f 312/3/4 313/3/4 319/3/4
f 318/2/4 311/2/4 319/2/4
f 311/3/4 312/3/4 319/3/4
f 319/3/4 313/3/4 320/3/4
f 313/1/4 314/1/4 321/1/4
f 320/3/4 313/3/4 321/3/4
f 321/1/4 314/1/4 322/1/4
f 316/1/4 317/1/4 323/1/4
f 319/3/4 320/3/4 324/3/4
f 323/1/4 317/1/4 324/1/4
f 317/3/4 318/3/4 324/3/4
f 318/3/4 319/3/4 324/3/4
f 320/1/4 321/1/4 325/1/4
f 324/3/4 320/3/4 325/3/4
f 325/1/4 321/1/4 326/1/4
f 324/1/4 325/1/4 327/1/4
f 327/1/4 325/1/4 328/1/4
f 331/3/5 330/3/5 329/3/5
f 332/3/5 330/3/5 331/3/5
f 337/2/5 334/2/5 333/2/5
f 338/2/5 334/2/5 337/2/5
f 339/1/5 336/1/5 335/1/5
f 340/1/5 336/1/5 339/1/5
f 345/2/5 342/2/5 341/2/5
f 346/2/5 342/2/5 345/2/5
f 347/1/5 344/1/5 343/1/5
f 348/1/5 344/1/5 347/1/5
f 353/2/5 350/2/5 349/2/5
f 354/2/5 350/2/5 353/2/5
f 355/1/5 352/1/5 351/1/5
f 356/1/5 352/1/5 355/1/5
f 361/2/5 358/2/5 357/2/5
f 362/2/5 358/2/5 361/2/5
f 363/1/5 360/1/5 359/1/5
f 364/1/5 360/1/5 363/1/5
f 369/2/5 366/2/5 365/2/5
f 370/2/5 366/2/5 369/2/5
f 371/1/5 368/1/5 367/1/5
f 372/1/5 368/1/5 371/1/5
f 377/2/5 374/2/5 373/2/5
f 378/2/5 374/2/5 377/2/5
f 379/1/5 376/1/5 375/1/5
f 380/1/5 376/1/5 379/1/5
f 385/1/5 382/1/5 381/1/5
f 386/3/5 383/3/5 382/3/5
f 386/1/5 382/1/5 385/1/5
f 387/2/5 384/2/5 383/2/5
f 387/3/5 383/3/5 386/3/5
f 388/2/5 384/2/5 387/2/5
f 393/1/5 390/1/5 389/1/5
f 394/1/5 390/1/5 393/1/5
f 395/2/5 392/2/5 391/2/5
f 396/2/5 392/2/5 395/2/5
f 397/2/6 398/2/6 399/2/6
f 399/2/6 398/2/6 400/2/6
f 401/1/6 402/1/6 405/1/6
f 405/1/6 402/1/6 406/1/6
f 403/2/6 404/2/6 407/2/6
f 407/2/6 404/2/6 408/2/6
f 409/1/6 410/1/6 413/1/6
f 413/1/6 410/1/6 414/1/6
f 411/2/6 412/2/6 415/2/6
f 415/2/6 412/2/6 416/2/6
f 417/1/6 418/1/6 421/1/6
f 421/1/6 418/1/6 422/1/6
f 419/2/6 420/2/6 423/2/6
f 423/2/6 420/2/6 424/2/6
f 425/2/6 426/2/6 431/2/6
f 431/2/6 426/2/6 432/2/6
f 427/3/6 428/3/6 433/3/6
f 433/3/6 428/3/6 434/3/6
f 429/1/6 430/1/6 435/1/6
f 435/1/6 430/1/6 436/1/6
f 437/2/6 438/2/6 445/2/6
f 445/2/6 438/2/6 446/2/6
f 439/3/6 440/3/6 447/3/6
f 447/3/6 440/3/6 448/3/6
f 441/3/6 442/3/6 449/3/6
f 449/3/6 442/3/6 450/3/6
f 443/1/6 444/1/6 451/1/6
f 451/1/6 444/1/6 452/1/6
f 453/2/6 454/2/6 459/2/6
f 454/3/6 455/3/6 460/3/6
f 459/2/6 454/2/6 460/2/6
f 460/3/6 455/3/6 461/3/6
f 456/3/6 457/3/6 462/3/6
f 457/1/6 458/1/6 463/1/6
f 462/3/6 457/3/6 463/3/6
f 463/1/6 458/1/6 464/1/6
