# MagicaVoxel @ Ephtracy

# group
o 

# material
mtllib monster 1_Weapon.mtl
usemtl palette

# normals
vn -1 0 0
vn 1 0 0
vn 0 0 1
vn 0 0 -1
vn 0 -1 0
vn 0 1 0

# texcoords
vt 0.197266 0.5
vt 0.591797 0.5
vt 0.986328 0.5
vt 0.994141 0.5

# verts
v -1.1 0 0.0999999
v -1.1 0 -0.1
v -1.1 0.1 0.0999999
v -1.1 0.1 -0.1
v -0.9 0.1 0.0999999
v -0.9 0.1 -0.1
v -0.9 0.2 0.0999999
v -0.9 0.2 -0.1
v -0.8 0.2 0.0999999
v -0.8 0.2 -0.1
v -0.8 0.3 0.0999999
v -0.8 0.3 -0.1
v -0.7 0.3 0.0999999
v -0.7 0.3 -0.1
v -0.7 0.4 0.0999999
v -0.7 0.4 -0.1
v -0.6 0.4 0.0999999
v -0.6 0.4 -0.1
v -0.6 0.5 0.0999999
v -0.6 0.5 -0.1
v -0.5 0.5 0.0999999
v -0.5 0.5 -0.1
v -0.5 0.6 0.0999999
v -0.5 0.6 -0.1
v -0.4 0.6 0.0999999
v -0.4 0.6 -0.1
v -0.4 0.7 0.0999999
v -0.4 0.7 -0.1
v -0.4 0.9 0.0999999
v -0.4 0.9 -0.1
v -0.3 0.9 0.0999999
v -0.3 0.9 -0.1
v -0.3 1 0.0999999
v -0.3 1 -0.1
v -0.2 1 0.0999999
v -0.2 1 -0.1
v -0.2 1.1 0.0999999
v -0.2 1.1 -0.1
v -0.1 1.1 0.0999999
v -0.1 1.1 -0.1
v -0.1 1.2 0.0999999
v -0.1 1.2 -0.1
v 0 1.2 0.0999999
v 0 1.2 -0.1
v 0 1.3 0.0999999
v 0 1.3 -0.1
v 0.1 1.3 0.0999999
v 0.1 1.3 -0.1
v 0.1 1.4 0.0999999
v 0.1 1.4 -0.1
v 0.3 1.4 0.0999999
v 0.3 1.4 -0.1
v 0.3 1.5 0.0999999
v 0.3 1.5 -0.1
v 0.5 0 0.2
v 0.5 0 -0.2
v 0.5 0.1 0.2
v 0.5 0.1 -0.2
v 0.5 0.2 0.2
v 0.5 0.2 -0.2
v 0.6 0.2 0.2
v 0.6 0.2 -0.2
v 0.6 0.4 0.2
v 0.6 0.4 -0.2
v 0.7 0.4 0.2
v 0.7 0.4 -0.2
v 0.7 0.5 0.2
v 0.7 0.5 -0.2
v 0.8 0.5 0.2
v 0.8 0.5 -0.2
v 0.8 1 0.2
v 0.8 1 -0.2
v 0.9 1.5 0.0999999
v 0.9 1.5 -0.1
v 0.9 1.6 0.0999999
v 0.9 1.6 -0.1
v 1 1 0.2
v 1 1 -0.2
v 1 1.2 0.2
v 1 1.2 0.0999999
v 1 1.2 -0.1
v 1 1.2 -0.2
v 1 1.4 0.0999999
v 1 1.4 -0.1
v -0.6 0 0.0999999
v -0.6 0 -0.1
v -0.6 0.1 0.0999999
v -0.6 0.1 -0.1
v -0.5 0.1 0.0999999
v -0.5 0.1 -0.1
v -0.5 0.2 0.0999999
v -0.5 0.2 -0.1
v -0.3 0.2 0.0999999
v -0.3 0.2 -0.1
v -0.3 0.3 0.0999999
v -0.3 0.3 -0.1
v -0.2 0.3 0.0999999
v -0.2 0.3 -0.1
v -0.2 0.6 0.0999999
v -0.2 0.6 -0.1
v -0.1 0.6 0.0999999
v -0.1 0.6 -0.1
v -0.1 0.8 0.0999999
v -0.1 0.8 -0.1
v 0 0.8 0.0999999
v 0 0.8 -0.1
v 0 0.9 0.0999999
v 0 0.9 -0.1
v 0.1 0.9 0.0999999
v 0.1 0.9 -0.1
v 0.1 1 0.0999999
v 0.1 1 -0.1
v 0.2 1 0.0999999
v 0.2 1 -0.1
v 0.2 1.1 0.0999999
v 0.2 1.1 -0.1
v 0.3 1.1 0.0999999
v 0.3 1.1 -0.1
v 0.3 1.2 0.0999999
v 0.3 1.2 -0.1
v 0.4 1.2 0.0999999
v 0.4 1.2 -0.1
v 0.4 1.3 0.0999999
v 0.4 1.3 -0.1
v 0.5 1.3 0.0999999
v 0.5 1.3 -0.1
v 0.5 1.4 0.0999999
v 0.5 1.4 -0.1
v 0.8 0 0.2
v 0.8 0 -0.2
v 0.8 0.1 0.2
v 0.8 0.1 -0.2
v 0.9 0.1 0.2
v 0.9 0.1 -0.2
v 0.9 0.3 0.2
v 0.9 0.3 -0.2
v 1 1.5 0.0999999
v 1 1.5 -0.1
v 1 1.6 0.0999999
v 1 1.6 -0.1
v 1.1 0.3 0.2
v 1.1 0.3 -0.2
v 1.1 1 0.2
v 1.1 1 -0.2
v 1.1 1.2 0.0999999
v 1.1 1.2 -0.1
v 1.1 1.5 0.0999999
v 1.1 1.5 -0.1
v 1.2 1 0.2
v 1.2 1 -0.2
v 1.2 1.2 0.2
v 1.2 1.2 -0.2
v 0.5 0 0.2
v 0.5 0.1 0.2
v 0.5 0.2 0.2
v 0.6 0.2 0.2
v 0.6 0.4 0.2
v 0.7 0.1 0.2
v 0.7 0.4 0.2
v 0.7 0.5 0.2
v 0.8 0 0.2
v 0.8 0.1 0.2
v 0.8 0.5 0.2
v 0.8 1 0.2
v 0.9 0.1 0.2
v 0.9 0.3 0.2
v 0.9 0.4 0.2
v 0.9 1 0.2
v 1 1 0.2
v 1 1.2 0.2
v 1.1 0.3 0.2
v 1.1 1 0.2
v 1.2 1 0.2
v 1.2 1.2 0.2
v -1.1 0 0.0999999
v -1.1 0.1 0.0999999
v -0.9 0.1 0.0999999
v -0.9 0.2 0.0999999
v -0.8 0.2 0.0999999
v -0.8 0.3 0.0999999
v -0.7 0.3 0.0999999
v -0.7 0.4 0.0999999
v -0.6 0 0.0999999
v -0.6 0.1 0.0999999
v -0.6 0.4 0.0999999
v -0.6 0.5 0.0999999
v -0.5 0.1 0.0999999
v -0.5 0.2 0.0999999
v -0.5 0.5 0.0999999
v -0.5 0.6 0.0999999
v -0.4 0.6 0.0999999
v -0.4 0.7 0.0999999
v -0.4 0.9 0.0999999
v -0.3 0.2 0.0999999
v -0.3 0.3 0.0999999
v -0.3 0.7 0.0999999
v -0.3 0.8 0.0999999
v -0.3 0.9 0.0999999
v -0.3 1 0.0999999
v -0.2 0.3 0.0999999
v -0.2 0.6 0.0999999
v -0.2 1 0.0999999
v -0.2 1.1 0.0999999
v -0.1 0.6 0.0999999
v -0.1 0.8 0.0999999
v -0.1 0.9 0.0999999
v -0.1 1.1 0.0999999
v -0.1 1.2 0.0999999
v 0 0.8 0.0999999
v 0 0.9 0.0999999
v 0 1 0.0999999
v 0 1.2 0.0999999
v 0 1.3 0.0999999
v 0.1 0.9 0.0999999
v 0.1 1 0.0999999
v 0.1 1.1 0.0999999
v 0.1 1.3 0.0999999
v 0.1 1.4 0.0999999
v 0.2 1 0.0999999
v 0.2 1.1 0.0999999
v 0.2 1.2 0.0999999
v 0.3 1.1 0.0999999
v 0.3 1.2 0.0999999
v 0.3 1.3 0.0999999
v 0.3 1.4 0.0999999
v 0.3 1.5 0.0999999
v 0.4 1.2 0.0999999
v 0.4 1.3 0.0999999
v 0.4 1.4 0.0999999
v 0.5 1.3 0.0999999
v 0.5 1.4 0.0999999
v 0.9 1.5 0.0999999
v 0.9 1.6 0.0999999
v 1 1.2 0.0999999
v 1 1.4 0.0999999
v 1 1.5 0.0999999
v 1 1.6 0.0999999
v 1.1 1.2 0.0999999
v 1.1 1.5 0.0999999
v -1.1 0 -0.1
v -1.1 0.1 -0.1
v -0.9 0.1 -0.1
v -0.9 0.2 -0.1
v -0.8 0.2 -0.1
v -0.8 0.3 -0.1
v -0.7 0.3 -0.1
v -0.7 0.4 -0.1
v -0.6 0 -0.1
v -0.6 0.1 -0.1
v -0.6 0.4 -0.1
v -0.6 0.5 -0.1
v -0.5 0.1 -0.1
v -0.5 0.2 -0.1
v -0.5 0.5 -0.1
v -0.5 0.6 -0.1
v -0.4 0.6 -0.1
v -0.4 0.7 -0.1
v -0.4 0.9 -0.1
v -0.3 0.2 -0.1
v -0.3 0.3 -0.1
v -0.3 0.7 -0.1
v -0.3 0.8 -0.1
v -0.3 0.9 -0.1
v -0.3 1 -0.1
v -0.2 0.3 -0.1
v -0.2 0.6 -0.1
v -0.2 1 -0.1
v -0.2 1.1 -0.1
v -0.1 0.6 -0.1
v -0.1 0.8 -0.1
v -0.1 0.9 -0.1
v -0.1 1.1 -0.1
v -0.1 1.2 -0.1
v 0 0.8 -0.1
v 0 0.9 -0.1
v 0 1 -0.1
v 0 1.2 -0.1
v 0 1.3 -0.1
v 0.1 0.9 -0.1
v 0.1 1 -0.1
v 0.1 1.1 -0.1
v 0.1 1.3 -0.1
v 0.1 1.4 -0.1
v 0.2 1 -0.1
v 0.2 1.1 -0.1
v 0.2 1.2 -0.1
v 0.3 1.1 -0.1
v 0.3 1.2 -0.1
v 0.3 1.3 -0.1
v 0.3 1.4 -0.1
v 0.3 1.5 -0.1
v 0.4 1.2 -0.1
v 0.4 1.3 -0.1
v 0.4 1.4 -0.1
v 0.5 1.3 -0.1
v 0.5 1.4 -0.1
v 0.9 1.5 -0.1
v 0.9 1.6 -0.1
v 1 1.2 -0.1
v 1 1.4 -0.1
v 1 1.5 -0.1
v 1 1.6 -0.1
v 1.1 1.2 -0.1
v 1.1 1.5 -0.1
v 0.5 0 -0.2
v 0.5 0.1 -0.2
v 0.5 0.2 -0.2
v 0.6 0.2 -0.2
v 0.6 0.4 -0.2
v 0.7 0.1 -0.2
v 0.7 0.4 -0.2
v 0.7 0.5 -0.2
v 0.8 0 -0.2
v 0.8 0.1 -0.2
v 0.8 0.5 -0.2
v 0.8 1 -0.2
v 0.9 0.1 -0.2
v 0.9 0.3 -0.2
v 0.9 0.4 -0.2
v 0.9 1 -0.2
v 1 1 -0.2
v 1 1.2 -0.2
v 1.1 0.3 -0.2
v 1.1 1 -0.2
v 1.2 1 -0.2
v 1.2 1.2 -0.2
v 0.5 0 0.2
v 0.8 0 0.2
v -1.1 0 0.0999999
v -0.6 0 0.0999999
v -1.1 0 -0.1
v -0.6 0 -0.1
v 0.5 0 -0.2
v 0.8 0 -0.2
v 0.8 0.1 0.2
v 0.9 0.1 0.2
v -0.6 0.1 0.0999999
v -0.5 0.1 0.0999999
v -0.6 0.1 -0.1
v -0.5 0.1 -0.1
v 0.8 0.1 -0.2
v 0.9 0.1 -0.2
v -0.5 0.2 0.0999999
v -0.3 0.2 0.0999999
v -0.5 0.2 -0.1
v -0.3 0.2 -0.1
v 0.9 0.3 0.2
v 1.1 0.3 0.2
v -0.3 0.3 0.0999999
v -0.2 0.3 0.0999999
v -0.3 0.3 -0.1
v -0.2 0.3 -0.1
v 0.9 0.3 -0.2
v 1.1 0.3 -0.2
v -0.2 0.6 0.0999999
v -0.1 0.6 0.0999999
v -0.2 0.6 -0.1
v -0.1 0.6 -0.1
v -0.1 0.8 0.0999999
v 0 0.8 0.0999999
v -0.1 0.8 -0.1
v 0 0.8 -0.1
v 0 0.9 0.0999999
v 0.1 0.9 0.0999999
v 0 0.9 -0.1
v 0.1 0.9 -0.1
v 1.1 1 0.2
v 1.2 1 0.2
v 0.1 1 0.0999999
v 0.2 1 0.0999999
v 0.1 1 -0.1
v 0.2 1 -0.1
v 1.1 1 -0.2
v 1.2 1 -0.2
v 0.2 1.1 0.0999999
v 0.3 1.1 0.0999999
v 0.2 1.1 -0.1
v 0.3 1.1 -0.1
v 0.3 1.2 0.0999999
v 0.4 1.2 0.0999999
v 0.3 1.2 -0.1
v 0.4 1.2 -0.1
v 0.4 1.3 0.0999999
v 0.5 1.3 0.0999999
v 0.4 1.3 -0.1
v 0.5 1.3 -0.1
v 0.5 1.4 0.0999999
v 1 1.4 0.0999999
v 0.5 1.4 -0.1
v 1 1.4 -0.1
v -1.1 0.1 0.0999999
v -0.9 0.1 0.0999999
v -1.1 0.1 -0.1
v -0.9 0.1 -0.1
v 0.5 0.2 0.2
v 0.6 0.2 0.2
v -0.9 0.2 0.0999999
v -0.8 0.2 0.0999999
v -0.9 0.2 -0.1
v -0.8 0.2 -0.1
v 0.5 0.2 -0.2
v 0.6 0.2 -0.2
v -0.8 0.3 0.0999999
v -0.7 0.3 0.0999999
v -0.8 0.3 -0.1
v -0.7 0.3 -0.1
v 0.6 0.4 0.2
v 0.7 0.4 0.2
v -0.7 0.4 0.0999999
v -0.6 0.4 0.0999999
v -0.7 0.4 -0.1
v -0.6 0.4 -0.1
v 0.6 0.4 -0.2
v 0.7 0.4 -0.2
v 0.7 0.5 0.2
v 0.8 0.5 0.2
v -0.6 0.5 0.0999999
v -0.5 0.5 0.0999999
v -0.6 0.5 -0.1
v -0.5 0.5 -0.1
v 0.7 0.5 -0.2
v 0.8 0.5 -0.2
v -0.5 0.6 0.0999999
v -0.4 0.6 0.0999999
v -0.5 0.6 -0.1
v -0.4 0.6 -0.1
v -0.4 0.9 0.0999999
v -0.3 0.9 0.0999999
v -0.4 0.9 -0.1
v -0.3 0.9 -0.1
v 0.8 1 0.2
v 0.9 1 0.2
v 1 1 0.2
v -0.3 1 0.0999999
v -0.2 1 0.0999999
v -0.3 1 -0.1
v -0.2 1 -0.1
v 0.8 1 -0.2
v 0.9 1 -0.2
v 1 1 -0.2
v -0.2 1.1 0.0999999
v -0.1 1.1 0.0999999
v -0.2 1.1 -0.1
v -0.1 1.1 -0.1
v 1 1.2 0.2
v 1.2 1.2 0.2
v -0.1 1.2 0.0999999
v 0 1.2 0.0999999
v 1 1.2 0.0999999
v 1.1 1.2 0.0999999
v -0.1 1.2 -0.1
v 0 1.2 -0.1
v 1 1.2 -0.1
v 1.1 1.2 -0.1
v 1 1.2 -0.2
v 1.2 1.2 -0.2
v 0 1.3 0.0999999
v 0.1 1.3 0.0999999
v 0 1.3 -0.1
v 0.1 1.3 -0.1
v 0.1 1.4 0.0999999
v 0.3 1.4 0.0999999
v 0.1 1.4 -0.1
v 0.3 1.4 -0.1
v 0.3 1.5 0.0999999
v 0.9 1.5 0.0999999
v 1 1.5 0.0999999
v 1.1 1.5 0.0999999
v 0.3 1.5 -0.1
v 0.9 1.5 -0.1
v 1 1.5 -0.1
v 1.1 1.5 -0.1
v 0.9 1.6 0.0999999
v 1 1.6 0.0999999
v 0.9 1.6 -0.1
v 1 1.6 -0.1

# faces
f 3/2/1 2/2/1 1/2/1
f 4/2/1 2/2/1 3/2/1
f 7/2/1 6/2/1 5/2/1
f 8/2/1 6/2/1 7/2/1
f 11/2/1 10/2/1 9/2/1
f 12/2/1 10/2/1 11/2/1
f 15/2/1 14/2/1 13/2/1
f 16/2/1 14/2/1 15/2/1
f 19/2/1 18/2/1 17/2/1
f 20/2/1 18/2/1 19/2/1
f 23/2/1 22/2/1 21/2/1
f 24/2/1 22/2/1 23/2/1
f 27/2/1 26/2/1 25/2/1
f 28/2/1 26/2/1 27/2/1
f 29/3/1 28/3/1 27/3/1
f 30/3/1 28/3/1 29/3/1
f 33/3/1 32/3/1 31/3/1
f 34/3/1 32/3/1 33/3/1
f 37/3/1 36/3/1 35/3/1
f 38/3/1 36/3/1 37/3/1
f 41/3/1 40/3/1 39/3/1
f 42/3/1 40/3/1 41/3/1
f 45/3/1 44/3/1 43/3/1
f 46/3/1 44/3/1 45/3/1
f 49/3/1 48/3/1 47/3/1
f 50/3/1 48/3/1 49/3/1
f 53/3/1 52/3/1 51/3/1
f 54/3/1 52/3/1 53/3/1
f 57/3/1 56/3/1 55/3/1
f 58/3/1 56/3/1 57/3/1
f 59/1/1 58/1/1 57/1/1
f 60/1/1 58/1/1 59/1/1
f 63/1/1 62/1/1 61/1/1
f 64/1/1 62/1/1 63/1/1
f 67/1/1 66/1/1 65/1/1
f 68/1/1 66/1/1 67/1/1
f 71/1/1 70/1/1 69/1/1
f 72/1/1 70/1/1 71/1/1
f 75/3/1 74/3/1 73/3/1
f 76/3/1 74/3/1 75/3/1
f 79/4/1 78/4/1 77/4/1
f 80/4/1 78/4/1 79/4/1
f 81/4/1 78/4/1 80/4/1
f 82/4/1 78/4/1 81/4/1
f 83/3/1 81/3/1 80/3/1
f 84/3/1 81/3/1 83/3/1
f 85/2/2 86/2/2 87/2/2
f 87/2/2 86/2/2 88/2/2
f 89/2/2 90/2/2 91/2/2
f 91/2/2 90/2/2 92/2/2
f 93/2/2 94/2/2 95/2/2
f 95/2/2 94/2/2 96/2/2
f 97/2/2 98/2/2 99/2/2
f 99/2/2 98/2/2 100/2/2
f 101/2/2 102/2/2 103/2/2
f 103/2/2 102/2/2 104/2/2
f 105/2/2 106/2/2 107/2/2
f 107/2/2 106/2/2 108/2/2
f 109/2/2 110/2/2 111/2/2
f 111/2/2 110/2/2 112/2/2
f 113/2/2 114/2/2 115/2/2
f 115/2/2 114/2/2 116/2/2
f 117/2/2 118/2/2 119/2/2
f 119/2/2 118/2/2 120/2/2
f 121/2/2 122/2/2 123/2/2
f 123/2/2 122/2/2 124/2/2
f 125/2/2 126/2/2 127/2/2
f 127/2/2 126/2/2 128/2/2
f 129/3/2 130/3/2 131/3/2
f 131/3/2 130/3/2 132/3/2
f 133/3/2 134/3/2 135/3/2
f 135/3/2 134/3/2 136/3/2
f 137/3/2 138/3/2 139/3/2
f 139/3/2 138/3/2 140/3/2
f 141/3/2 142/3/2 143/3/2
f 143/3/2 142/3/2 144/3/2
f 145/3/2 146/3/2 147/3/2
f 147/3/2 146/3/2 148/3/2
f 149/4/2 150/4/2 151/4/2
f 151/4/2 150/4/2 152/4/2
f 156/1/3 155/1/3 154/1/3
f 158/3/3 154/3/3 153/3/3
f 158/1/3 157/1/3 156/1/3
f 158/1/3 156/1/3 154/1/3
f 159/1/3 157/1/3 158/1/3
f 161/3/3 158/3/3 153/3/3
f 161/3/3 159/3/3 158/3/3
f 162/3/3 159/3/3 161/3/3
f 163/1/3 160/1/3 159/1/3
f 165/3/3 159/3/3 162/3/3
f 166/3/3 159/3/3 165/3/3
f 167/1/3 164/1/3 163/1/3
f 167/3/3 159/3/3 166/3/3
f 167/1/3 163/1/3 159/1/3
f 168/1/3 164/1/3 167/1/3
f 169/3/3 167/3/3 166/3/3
f 169/3/3 168/3/3 167/3/3
f 171/3/3 169/3/3 166/3/3
f 172/4/3 170/4/3 169/4/3
f 172/3/3 169/3/3 171/3/3
f 173/4/3 170/4/3 172/4/3
f 174/4/3 170/4/3 173/4/3
f 177/2/3 176/2/3 175/2/3
f 179/2/3 178/2/3 177/2/3
f 181/2/3 180/2/3 179/2/3
f 183/2/3 177/2/3 175/2/3
f 183/2/3 182/2/3 181/2/3
f 183/2/3 181/2/3 179/2/3
f 183/2/3 179/2/3 177/2/3
f 184/2/3 182/2/3 183/2/3
f 185/2/3 182/2/3 184/2/3
f 187/2/3 186/2/3 185/2/3
f 187/2/3 185/2/3 184/2/3
f 188/2/3 186/2/3 187/2/3
f 189/2/3 186/2/3 188/2/3
f 191/2/3 190/2/3 189/2/3
f 191/2/3 189/2/3 188/2/3
f 194/2/3 191/2/3 188/2/3
f 194/2/3 192/2/3 191/2/3
f 195/2/3 192/2/3 194/2/3
f 196/3/3 193/3/3 192/3/3
f 196/2/3 192/2/3 195/2/3
f 197/3/3 193/3/3 196/3/3
f 198/3/3 193/3/3 197/3/3
f 200/2/3 196/2/3 195/2/3
f 200/2/3 197/2/3 196/2/3
f 201/2/3 197/2/3 200/2/3
f 202/3/3 199/3/3 198/3/3
f 202/3/3 198/3/3 197/3/3
f 204/2/3 197/2/3 201/2/3
f 205/3/3 203/3/3 202/3/3
f 205/2/3 197/2/3 204/2/3
f 205/3/3 202/3/3 197/3/3
f 206/3/3 203/3/3 205/3/3
f 207/3/3 203/3/3 206/3/3
f 209/2/3 206/2/3 205/2/3
f 210/3/3 208/3/3 207/3/3
f 210/2/3 206/2/3 209/2/3
f 210/3/3 207/3/3 206/3/3
f 211/3/3 208/3/3 210/3/3
f 212/3/3 208/3/3 211/3/3
f 214/2/3 211/2/3 210/2/3
f 215/3/3 213/3/3 212/3/3
f 215/2/3 211/2/3 214/2/3
f 215/3/3 212/3/3 211/3/3
f 216/3/3 213/3/3 215/3/3
f 217/3/3 213/3/3 216/3/3
f 219/2/3 216/2/3 215/2/3
f 220/3/3 218/3/3 217/3/3
f 220/2/3 216/2/3 219/2/3
f 220/3/3 217/3/3 216/3/3
f 221/3/3 218/3/3 220/3/3
f 222/2/3 221/2/3 220/2/3
f 223/3/3 218/3/3 221/3/3
f 223/2/3 221/2/3 222/2/3
f 224/3/3 218/3/3 223/3/3
f 225/3/3 218/3/3 224/3/3
f 227/2/3 224/2/3 223/2/3
f 228/3/3 226/3/3 225/3/3
f 228/2/3 224/2/3 227/2/3
f 228/3/3 225/3/3 224/3/3
f 229/3/3 226/3/3 228/3/3
f 230/2/3 229/2/3 228/2/3
f 231/3/3 226/3/3 229/3/3
f 231/2/3 229/2/3 230/2/3
f 232/3/3 226/3/3 231/3/3
f 235/3/3 232/3/3 231/3/3
f 235/3/3 233/3/3 232/3/3
f 236/3/3 233/3/3 235/3/3
f 237/3/3 233/3/3 236/3/3
f 238/3/3 235/3/3 234/3/3
f 238/3/3 236/3/3 235/3/3
f 239/3/3 236/3/3 238/3/3
f 240/2/4 241/2/4 242/2/4
f 242/2/4 243/2/4 244/2/4
f 244/2/4 245/2/4 246/2/4
f 240/2/4 242/2/4 248/2/4
f 246/2/4 247/2/4 248/2/4
f 244/2/4 246/2/4 248/2/4
f 242/2/4 244/2/4 248/2/4
f 248/2/4 247/2/4 249/2/4
f 249/2/4 247/2/4 250/2/4
f 250/2/4 251/2/4 252/2/4
f 249/2/4 250/2/4 252/2/4
f 252/2/4 251/2/4 253/2/4
f 253/2/4 251/2/4 254/2/4
f 254/2/4 255/2/4 256/2/4
f 253/2/4 254/2/4 256/2/4
f 253/2/4 256/2/4 259/2/4
f 256/2/4 257/2/4 259/2/4
f 259/2/4 257/2/4 260/2/4
f 257/3/4 258/3/4 261/3/4
f 260/2/4 257/2/4 261/2/4
f 261/3/4 258/3/4 262/3/4
f 262/3/4 258/3/4 263/3/4
f 260/2/4 261/2/4 265/2/4
f 261/2/4 262/2/4 265/2/4
f 265/2/4 262/2/4 266/2/4
f 263/3/4 264/3/4 267/3/4
f 262/3/4 263/3/4 267/3/4
f 266/2/4 262/2/4 269/2/4
f 267/3/4 268/3/4 270/3/4
f 269/2/4 262/2/4 270/2/4
f 262/3/4 267/3/4 270/3/4
f 270/3/4 268/3/4 271/3/4
f 271/3/4 268/3/4 272/3/4
f 270/2/4 271/2/4 274/2/4
f 272/3/4 273/3/4 275/3/4
f 274/2/4 271/2/4 275/2/4
f 271/3/4 272/3/4 275/3/4
f 275/3/4 273/3/4 276/3/4
f 276/3/4 273/3/4 277/3/4
f 275/2/4 276/2/4 279/2/4
f 277/3/4 278/3/4 280/3/4
f 279/2/4 276/2/4 280/2/4
f 276/3/4 277/3/4 280/3/4
f 280/3/4 278/3/4 281/3/4
f 281/3/4 278/3/4 282/3/4
f 280/2/4 281/2/4 284/2/4
f 282/3/4 283/3/4 285/3/4
f 284/2/4 281/2/4 285/2/4
f 281/3/4 282/3/4 285/3/4
f 285/3/4 283/3/4 286/3/4
f 285/2/4 286/2/4 287/2/4
f 286/3/4 283/3/4 288/3/4
f 287/2/4 286/2/4 288/2/4
f 288/3/4 283/3/4 289/3/4
f 289/3/4 283/3/4 290/3/4
f 288/2/4 289/2/4 292/2/4
f 290/3/4 291/3/4 293/3/4
f 292/2/4 289/2/4 293/2/4
f 289/3/4 290/3/4 293/3/4
f 293/3/4 291/3/4 294/3/4
f 293/2/4 294/2/4 295/2/4
f 294/3/4 291/3/4 296/3/4
f 295/2/4 294/2/4 296/2/4
f 296/3/4 291/3/4 297/3/4
f 296/3/4 297/3/4 300/3/4
f 297/3/4 298/3/4 300/3/4
f 300/3/4 298/3/4 301/3/4
f 301/3/4 298/3/4 302/3/4
f 299/3/4 300/3/4 303/3/4
f 300/3/4 301/3/4 303/3/4
f 303/3/4 301/3/4 304/3/4
f 306/1/4 307/1/4 308/1/4
f 305/3/4 306/3/4 310/3/4
f 308/1/4 309/1/4 310/1/4
f 306/1/4 308/1/4 310/1/4
f 310/1/4 309/1/4 311/1/4
f 305/3/4 310/3/4 313/3/4
f 310/3/4 311/3/4 313/3/4
f 313/3/4 311/3/4 314/3/4
f 311/1/4 312/1/4 315/1/4
f 314/3/4 311/3/4 317/3/4
f 317/3/4 311/3/4 318/3/4
f 315/1/4 316/1/4 319/1/4
f 318/3/4 311/3/4 319/3/4
f 311/1/4 315/1/4 319/1/4
f 319/1/4 316/1/4 320/1/4
f 318/3/4 319/3/4 321/3/4
f 319/3/4 320/3/4 321/3/4
f 318/3/4 321/3/4 323/3/4
f 321/4/4 322/4/4 324/4/4
f 323/3/4 321/3/4 324/3/4
f 324/4/4 322/4/4 325/4/4
f 325/4/4 322/4/4 326/4/4
f 331/2/5 330/2/5 329/2/5
f 332/2/5 330/2/5 331/2/5
f 333/3/5 328/3/5 327/3/5
f 334/3/5 328/3/5 333/3/5
f 339/2/5 338/2/5 337/2/5
f 340/2/5 338/2/5 339/2/5
f 341/3/5 336/3/5 335/3/5
f 342/3/5 336/3/5 341/3/5
f 345/2/5 344/2/5 343/2/5
f 346/2/5 344/2/5 345/2/5
f 351/2/5 350/2/5 349/2/5
f 352/2/5 350/2/5 351/2/5
f 353/3/5 348/3/5 347/3/5
f 354/3/5 348/3/5 353/3/5
f 357/2/5 356/2/5 355/2/5
f 358/2/5 356/2/5 357/2/5
f 361/2/5 360/2/5 359/2/5
f 362/2/5 360/2/5 361/2/5
f 365/2/5 364/2/5 363/2/5
f 366/2/5 364/2/5 365/2/5
f 371/2/5 370/2/5 369/2/5
f 372/2/5 370/2/5 371/2/5
f 373/4/5 368/4/5 367/4/5
f 374/4/5 368/4/5 373/4/5
f 377/2/5 376/2/5 375/2/5
f 378/2/5 376/2/5 377/2/5
f 381/2/5 380/2/5 379/2/5
f 382/2/5 380/2/5 381/2/5
f 385/2/5 384/2/5 383/2/5
f 386/2/5 384/2/5 385/2/5
f 389/3/5 388/3/5 387/3/5
f 390/3/5 388/3/5 389/3/5
f 391/2/6 392/2/6 393/2/6
f 393/2/6 392/2/6 394/2/6
f 397/2/6 398/2/6 399/2/6
f 399/2/6 398/2/6 400/2/6
f 395/1/6 396/1/6 401/1/6
f 401/1/6 396/1/6 402/1/6
f 403/2/6 404/2/6 405/2/6
f 405/2/6 404/2/6 406/2/6
f 409/2/6 410/2/6 411/2/6
f 411/2/6 410/2/6 412/2/6
f 407/1/6 408/1/6 413/1/6
f 413/1/6 408/1/6 414/1/6
f 417/2/6 418/2/6 419/2/6
f 419/2/6 418/2/6 420/2/6
f 415/1/6 416/1/6 421/1/6
f 421/1/6 416/1/6 422/1/6
f 423/2/6 424/2/6 425/2/6
f 425/2/6 424/2/6 426/2/6
f 427/3/6 428/3/6 429/3/6
f 429/3/6 428/3/6 430/3/6
f 434/3/6 435/3/6 436/3/6
f 436/3/6 435/3/6 437/3/6
f 431/1/6 432/1/6 438/1/6
f 432/3/6 433/3/6 439/3/6
f 438/1/6 432/1/6 439/1/6
f 439/3/6 433/3/6 440/3/6
f 441/3/6 442/3/6 443/3/6
f 443/3/6 442/3/6 444/3/6
f 445/4/6 446/4/6 449/4/6
f 449/4/6 446/4/6 450/4/6
f 447/3/6 448/3/6 451/3/6
f 451/3/6 448/3/6 452/3/6
f 450/4/6 446/4/6 454/4/6
f 453/4/6 454/4/6 455/4/6
f 454/4/6 446/4/6 456/4/6
f 455/4/6 454/4/6 456/4/6
f 457/3/6 458/3/6 459/3/6
f 459/3/6 458/3/6 460/3/6
f 461/3/6 462/3/6 463/3/6
f 463/3/6 462/3/6 464/3/6
f 465/3/6 466/3/6 469/3/6
f 469/3/6 466/3/6 470/3/6
f 467/3/6 468/3/6 471/3/6
f 471/3/6 468/3/6 472/3/6
f 473/3/6 474/3/6 475/3/6
f 475/3/6 474/3/6 476/3/6
