# MagicaVoxel @ Ephtracy

# group
o 

# material
mtllib subway1-1.mtl
usemtl palette

# normals
vn -1 0 0
vn 1 0 0
vn 0 0 1
vn 0 0 -1
vn 0 -1 0
vn 0 1 0

# texcoords
vt 0.689453 0.5
vt 0.939453 0.5
vt 0.958984 0.5
vt 0.962891 0.5
vt 0.970703 0.5
vt 0.974609 0.5
vt 0.978516 0.5
vt 0.982422 0.5
vt 0.994141 0.5

# verts
v -4 2.3 4
v -4 2.3 -12.8
v -4 2.6 4
v -4 2.6 -12.8
v -2.9 2.4 -9.2
v -2.9 2.4 -11.1
v -2.9 2.5 -9.2
v -2.9 2.5 -11.1
v -1.2 2.4 -2.1
v -1.2 2.4 -2.2
v -1.2 2.5 -2.1
v -1.2 2.5 -2.2
v -0.4 2.3 -8.8
v -0.4 2.3 -12.8
v -0.4 2.6 -8.8
v -0.4 2.6 -12.8
v -0.2 2.4 -11.6
v -0.2 2.4 -11.8
v -0.2 2.5 -11.6
v -0.2 2.5 -11.8
v 2.1 2.4 -9.4
v 2.1 2.4 -9.6
v 2.1 2.5 -9.4
v 2.1 2.5 -9.6
v 2.2 2.4 -11.3
v 2.2 2.4 -11.4
v 2.2 2.5 -11.3
v 2.2 2.5 -11.4
v 2.5 2.4 -9.2
v 2.5 2.4 -11.1
v 2.5 2.5 -9.2
v 2.5 2.5 -11.1
v 5 2.3 -8.8
v 5 2.3 -12.8
v 5 2.6 -8.8
v 5 2.6 -12.8
v -3.1 2.4 -2.1
v -3.1 2.4 -2.2
v -3.1 2.4 -9.2
v -3.1 2.4 -11.1
v -3.1 2.5 -2.1
v -3.1 2.5 -2.2
v -3.1 2.5 -9.2
v -3.1 2.5 -11.1
v -2.8 2.3 -8.8
v -2.8 2.3 -12.8
v -2.8 2.6 -8.8
v -2.8 2.6 -12.8
v -0.3 2.4 -9.2
v -0.3 2.4 -9.7
v -0.3 2.4 -11.6
v -0.3 2.4 -11.8
v -0.3 2.5 -9.2
v -0.3 2.5 -9.7
v -0.3 2.5 -11.6
v -0.3 2.5 -11.8
v -0.2 2.4 -9.7
v -0.2 2.4 -9.9
v -0.2 2.4 -11
v -0.2 2.4 -11.1
v -0.2 2.5 -9.7
v -0.2 2.5 -9.9
v -0.2 2.5 -11
v -0.2 2.5 -11.1
v -0.1 2.4 -9.9
v -0.1 2.4 -10.1
v -0.1 2.4 -10.8
v -0.1 2.4 -11
v -0.1 2.5 -9.9
v -0.1 2.5 -10.1
v -0.1 2.5 -10.8
v -0.1 2.5 -11
v -4.76837e-07 2.4 -10.1
v -4.76837e-07 2.4 -10.8
v -4.76837e-07 2.5 -10.1
v -4.76837e-07 2.5 -10.8
v 2.1 2.4 -11.3
v 2.1 2.4 -11.4
v 2.1 2.5 -11.3
v 2.1 2.5 -11.4
v 2.2 2.4 -9.4
v 2.2 2.4 -9.6
v 2.2 2.5 -9.4
v 2.2 2.5 -9.6
v 2.7 2.3 -8.8
v 2.7 2.3 -12.8
v 2.7 2.6 -8.8
v 2.7 2.6 -12.8
v 6.4 2.3 4
v 6.4 2.3 -12.8
v 6.4 2.5 -6.5
v 6.4 2.5 -7.2
v 6.4 2.6 4
v 6.4 2.6 -6.5
v 6.4 2.6 -7.2
v 6.4 2.6 -12.8
v -4 2.3 4
v -4 2.6 4
v 6.4 2.3 4
v 6.4 2.6 4
v -3.1 2.4 -2.2
v -3.1 2.5 -2.2
v -2.4 2.5 -2.2
v -1.2 2.4 -2.2
v -1.2 2.5 -2.2
v 2.1 2.4 -9.4
v 2.1 2.5 -9.4
v 2.2 2.4 -9.4
v 2.2 2.5 -9.4
v -0.3 2.4 -9.7
v -0.3 2.5 -9.7
v -0.2 2.4 -9.7
v -0.2 2.5 -9.7
v -0.2 2.4 -9.9
v -0.2 2.5 -9.9
v -0.1 2.4 -9.9
v -0.1 2.5 -9.9
v -0.1 2.4 -10.1
v -0.1 2.5 -10.1
v -4.76837e-07 2.4 -10.1
v -4.76837e-07 2.5 -10.1
v -3.1 2.4 -11.1
v -3.1 2.5 -11.1
v -2.9 2.4 -11.1
v -2.9 2.5 -11.1
v -0.2 2.4 -11.1
v -0.2 2.5 -11.1
v 2.5 2.4 -11.1
v 2.5 2.5 -11.1
v 2.1 2.4 -11.4
v 2.1 2.5 -11.4
v 2.2 2.4 -11.4
v 2.2 2.5 -11.4
v -0.3 2.4 -11.8
v -0.3 2.5 -11.8
v -0.2 2.4 -11.8
v -0.2 2.5 -11.8
v -3.1 2.4 -2.1
v -3.1 2.5 -2.1
v -2.4 2.5 -2.1
v -1.2 2.4 -2.1
v -1.2 2.5 -2.1
v -2.8 2.3 -8.8
v -2.8 2.6 -8.8
v -0.4 2.3 -8.8
v -0.4 2.6 -8.8
v 2.7 2.3 -8.8
v 2.7 2.6 -8.8
v 5 2.3 -8.8
v 5 2.6 -8.8
v -3.1 2.4 -9.2
v -3.1 2.5 -9.2
v -2.9 2.4 -9.2
v -2.9 2.5 -9.2
v -0.3 2.4 -9.2
v -0.3 2.5 -9.2
v 2.5 2.4 -9.2
v 2.5 2.5 -9.2
v 2.1 2.4 -9.6
v 2.1 2.5 -9.6
v 2.2 2.4 -9.6
v 2.2 2.5 -9.6
v -0.1 2.4 -10.8
v -0.1 2.5 -10.8
v -4.76837e-07 2.4 -10.8
v -4.76837e-07 2.5 -10.8
v -0.2 2.4 -11
v -0.2 2.5 -11
v -0.1 2.4 -11
v -0.1 2.5 -11
v 2.1 2.4 -11.3
v 2.1 2.5 -11.3
v 2.2 2.4 -11.3
v 2.2 2.5 -11.3
v -0.3 2.4 -11.6
v -0.3 2.5 -11.6
v -0.2 2.4 -11.6
v -0.2 2.5 -11.6
v -4 2.3 -12.8
v -4 2.6 -12.8
v -2.8 2.3 -12.8
v -2.8 2.6 -12.8
v -0.4 2.3 -12.8
v -0.4 2.6 -12.8
v 2.7 2.3 -12.8
v 2.7 2.6 -12.8
v 5 2.3 -12.8
v 5 2.6 -12.8
v 6.4 2.3 -12.8
v 6.4 2.6 -12.8
v -4 2.3 4
v 6.4 2.3 4
v -2.8 2.3 -8.8
v -0.4 2.3 -8.8
v 2.7 2.3 -8.8
v 5 2.3 -8.8
v -4 2.3 -12.8
v -2.8 2.3 -12.8
v -0.4 2.3 -12.8
v 2.7 2.3 -12.8
v 5 2.3 -12.8
v 6.4 2.3 -12.8
v -3.1 2.5 -2.1
v -2.4 2.5 -2.1
v -1.2 2.5 -2.1
v -3.1 2.5 -2.2
v -2.4 2.5 -2.2
v -1.2 2.5 -2.2
v -3.1 2.5 -9.2
v -2.9 2.5 -9.2
v -0.3 2.5 -9.2
v 2.5 2.5 -9.2
v 2.1 2.5 -9.4
v 2.2 2.5 -9.4
v 2.1 2.5 -9.6
v 2.2 2.5 -9.6
v -0.3 2.5 -9.7
v -0.2 2.5 -9.7
v -0.2 2.5 -9.9
v -0.1 2.5 -9.9
v -0.1 2.5 -10.1
v -4.76837e-07 2.5 -10.1
v -0.1 2.5 -10.8
v -4.76837e-07 2.5 -10.8
v -0.2 2.5 -11
v -0.1 2.5 -11
v -3.1 2.5 -11.1
v -2.9 2.5 -11.1
v -0.2 2.5 -11.1
v 2.5 2.5 -11.1
v 2.1 2.5 -11.3
v 2.2 2.5 -11.3
v 2.1 2.5 -11.4
v 2.2 2.5 -11.4
v -0.3 2.5 -11.6
v -0.2 2.5 -11.6
v -0.3 2.5 -11.8
v -0.2 2.5 -11.8
v -3.1 2.4 -2.1
v -1.2 2.4 -2.1
v -3.1 2.4 -2.2
v -1.2 2.4 -2.2
v -3.1 2.4 -9.2
v -2.9 2.4 -9.2
v -0.3 2.4 -9.2
v 2.5 2.4 -9.2
v 2.1 2.4 -9.4
v 2.2 2.4 -9.4
v 2.1 2.4 -9.6
v 2.2 2.4 -9.6
v -0.3 2.4 -9.7
v -0.2 2.4 -9.7
v -0.2 2.4 -9.9
v -0.1 2.4 -9.9
v -0.1 2.4 -10.1
v -4.76837e-07 2.4 -10.1
v -0.1 2.4 -10.8
v -4.76837e-07 2.4 -10.8
v -0.2 2.4 -11
v -0.1 2.4 -11
v -3.1 2.4 -11.1
v -2.9 2.4 -11.1
v -0.2 2.4 -11.1
v 2.5 2.4 -11.1
v 2.1 2.4 -11.3
v 2.2 2.4 -11.3
v 2.1 2.4 -11.4
v 2.2 2.4 -11.4
v -0.3 2.4 -11.6
v -0.2 2.4 -11.6
v -0.3 2.4 -11.8
v -0.2 2.4 -11.8
v -4 2.6 4
v 6.4 2.6 4
v -3.2 2.6 1.3
v -2.4 2.6 1.3
v -2.4 2.6 -6.5
v 6.4 2.6 -6.5
v -3.2 2.6 -7.2
v 6.4 2.6 -7.2
v -2.8 2.6 -8.8
v -0.4 2.6 -8.8
v 2.7 2.6 -8.8
v 5 2.6 -8.8
v -4 2.6 -12.8
v -2.8 2.6 -12.8
v -0.4 2.6 -12.8
v 2.7 2.6 -12.8
v 5 2.6 -12.8
v 6.4 2.6 -12.8

# faces
f 3/8/1 2/8/1 1/8/1
f 4/8/1 2/8/1 3/8/1
f 7/8/1 6/8/1 5/8/1
f 8/8/1 6/8/1 7/8/1
f 11/3/1 10/3/1 9/3/1
f 12/3/1 10/3/1 11/3/1
f 15/8/1 14/8/1 13/8/1
f 16/8/1 14/8/1 15/8/1
f 19/5/1 18/5/1 17/5/1
f 20/5/1 18/5/1 19/5/1
f 23/7/1 22/7/1 21/7/1
f 24/7/1 22/7/1 23/7/1
f 27/5/1 26/5/1 25/5/1
f 28/5/1 26/5/1 27/5/1
f 31/3/1 30/3/1 29/3/1
f 32/3/1 30/3/1 31/3/1
f 35/8/1 34/8/1 33/8/1
f 36/8/1 34/8/1 35/8/1
f 37/3/2 38/3/2 41/3/2
f 41/3/2 38/3/2 42/3/2
f 39/3/2 40/3/2 43/3/2
f 43/3/2 40/3/2 44/3/2
f 45/8/2 46/8/2 47/8/2
f 47/8/2 46/8/2 48/8/2
f 49/8/2 50/8/2 53/8/2
f 53/8/2 50/8/2 54/8/2
f 51/8/2 52/8/2 55/8/2
f 55/8/2 52/8/2 56/8/2
f 57/7/2 58/7/2 61/7/2
f 61/7/2 58/7/2 62/7/2
f 59/7/2 60/7/2 63/7/2
f 63/7/2 60/7/2 64/7/2
f 65/7/2 66/7/2 69/7/2
f 69/7/2 66/7/2 70/7/2
f 67/7/2 68/7/2 71/7/2
f 71/7/2 68/7/2 72/7/2
f 73/7/2 74/7/2 75/7/2
f 75/7/2 74/7/2 76/7/2
f 77/5/2 78/5/2 79/5/2
f 79/5/2 78/5/2 80/5/2
f 81/7/2 82/7/2 83/7/2
f 83/7/2 82/7/2 84/7/2
f 85/8/2 86/8/2 87/8/2
f 87/8/2 86/8/2 88/8/2
f 89/8/2 90/8/2 91/8/2
f 91/8/2 90/8/2 92/8/2
f 89/8/2 91/8/2 93/8/2
f 91/1/2 92/1/2 94/1/2
f 93/8/2 91/8/2 94/8/2
f 92/8/2 90/8/2 95/8/2
f 94/1/2 92/1/2 95/1/2
f 95/8/2 90/8/2 96/8/2
f 99/8/3 98/8/3 97/8/3
f 100/8/3 98/8/3 99/8/3
f 103/7/3 102/7/3 101/7/3
f 104/7/3 103/7/3 101/7/3
f 105/7/3 103/7/3 104/7/3
f 108/7/3 107/7/3 106/7/3
f 109/7/3 107/7/3 108/7/3
f 112/7/3 111/7/3 110/7/3
f 113/7/3 111/7/3 112/7/3
f 116/7/3 115/7/3 114/7/3
f 117/7/3 115/7/3 116/7/3
f 120/7/3 119/7/3 118/7/3
f 121/7/3 119/7/3 120/7/3
f 124/5/3 123/5/3 122/5/3
f 125/5/3 123/5/3 124/5/3
f 128/5/3 127/5/3 126/5/3
f 129/5/3 127/5/3 128/5/3
f 132/7/3 131/7/3 130/7/3
f 133/7/3 131/7/3 132/7/3
f 136/4/3 135/4/3 134/4/3
f 137/4/3 135/4/3 136/4/3
f 138/3/4 139/3/4 140/3/4
f 138/3/4 140/3/4 141/3/4
f 141/3/4 140/3/4 142/3/4
f 143/8/4 144/8/4 145/8/4
f 145/8/4 144/8/4 146/8/4
f 147/8/4 148/8/4 149/8/4
f 149/8/4 148/8/4 150/8/4
f 151/3/4 152/3/4 153/3/4
f 153/3/4 152/3/4 154/3/4
f 155/3/4 156/3/4 157/3/4
f 157/3/4 156/3/4 158/3/4
f 159/7/4 160/7/4 161/7/4
f 161/7/4 160/7/4 162/7/4
f 163/7/4 164/7/4 165/7/4
f 165/7/4 164/7/4 166/7/4
f 167/7/4 168/7/4 169/7/4
f 169/7/4 168/7/4 170/7/4
f 171/5/4 172/5/4 173/5/4
f 173/5/4 172/5/4 174/5/4
f 175/5/4 176/5/4 177/5/4
f 177/5/4 176/5/4 178/5/4
f 179/8/4 180/8/4 181/8/4
f 181/8/4 180/8/4 182/8/4
f 183/8/4 184/8/4 185/8/4
f 185/8/4 184/8/4 186/8/4
f 187/8/4 188/8/4 189/8/4
f 189/8/4 188/8/4 190/8/4
f 193/8/5 192/8/5 191/8/5
f 194/8/5 192/8/5 193/8/5
f 195/8/5 192/8/5 194/8/5
f 196/8/5 192/8/5 195/8/5
f 197/8/5 193/8/5 191/8/5
f 198/8/5 193/8/5 197/8/5
f 199/8/5 195/8/5 194/8/5
f 200/8/5 195/8/5 199/8/5
f 201/8/5 192/8/5 196/8/5
f 202/8/5 192/8/5 201/8/5
f 206/1/5 204/1/5 203/1/5
f 207/8/5 205/8/5 204/8/5
f 207/1/5 204/1/5 206/1/5
f 208/8/5 205/8/5 207/8/5
f 213/8/5 212/8/5 211/8/5
f 214/8/5 212/8/5 213/8/5
f 215/8/5 213/8/5 211/8/5
f 216/8/5 212/8/5 214/8/5
f 217/8/5 215/8/5 211/8/5
f 217/8/5 216/8/5 215/8/5
f 218/8/5 216/8/5 217/8/5
f 219/8/5 216/8/5 218/8/5
f 220/8/5 216/8/5 219/8/5
f 221/8/5 216/8/5 220/8/5
f 222/8/5 216/8/5 221/8/5
f 224/8/5 216/8/5 222/8/5
f 226/8/5 224/8/5 223/8/5
f 227/8/5 210/8/5 209/8/5
f 228/8/5 210/8/5 227/8/5
f 229/8/5 226/8/5 225/8/5
f 230/8/5 212/8/5 216/8/5
f 230/8/5 226/8/5 229/8/5
f 230/8/5 216/8/5 224/8/5
f 230/8/5 224/8/5 226/8/5
f 233/8/5 232/8/5 231/8/5
f 234/8/5 232/8/5 233/8/5
f 237/8/5 236/8/5 235/8/5
f 238/8/5 236/8/5 237/8/5
f 239/8/6 240/8/6 241/8/6
f 241/8/6 240/8/6 242/8/6
f 245/8/6 246/8/6 247/8/6
f 247/8/6 246/8/6 248/8/6
f 245/8/6 247/8/6 249/8/6
f 248/8/6 246/8/6 250/8/6
f 245/8/6 249/8/6 251/8/6
f 249/8/6 250/8/6 251/8/6
f 251/8/6 250/8/6 252/8/6
f 252/8/6 250/8/6 253/8/6
f 253/8/6 250/8/6 254/8/6
f 254/8/6 250/8/6 255/8/6
f 255/8/6 250/8/6 256/8/6
f 256/8/6 250/8/6 258/8/6
f 257/8/6 258/8/6 260/8/6
f 243/8/6 244/8/6 261/8/6
f 261/8/6 244/8/6 262/8/6
f 259/8/6 260/8/6 263/8/6
f 250/8/6 246/8/6 264/8/6
f 263/8/6 260/8/6 264/8/6
f 258/8/6 250/8/6 264/8/6
f 260/8/6 258/8/6 264/8/6
f 265/8/6 266/8/6 267/8/6
f 267/8/6 266/8/6 268/8/6
f 269/8/6 270/8/6 271/8/6
f 271/8/6 270/8/6 272/8/6
f 273/8/6 274/8/6 275/8/6
f 275/8/6 274/8/6 276/8/6
f 275/1/6 276/1/6 277/1/6
f 276/8/6 274/8/6 277/8/6
f 277/8/6 274/8/6 278/8/6
f 273/8/6 275/8/6 279/8/6
f 275/1/6 277/1/6 279/1/6
f 277/1/6 278/1/6 279/1/6
f 279/1/6 278/1/6 280/1/6
f 279/8/6 280/8/6 281/8/6
f 281/8/6 280/8/6 282/8/6
f 282/8/6 280/8/6 283/8/6
f 283/8/6 280/8/6 284/8/6
f 273/8/6 279/8/6 285/8/6
f 279/8/6 281/8/6 285/8/6
f 285/8/6 281/8/6 286/8/6
f 282/8/6 283/8/6 287/8/6
f 287/8/6 283/8/6 288/8/6
f 284/8/6 280/8/6 289/8/6
f 289/8/6 280/8/6 290/8/6
