# MagicaVoxel @ Ephtracy

# group
o 

# material
mtllib Heart2.mtl
usemtl palette

# normals
vn -1 0 0
vn 1 0 0
vn 0 0 1
vn 0 0 -1
vn 0 -1 0
vn 0 1 0

# texcoords
vt 0.126953 0.5
vt 0.697266 0.5
vt 0.837891 0.5
vt 0.849609 0.5
vt 0.931641 0.5
vt 0.994141 0.5

# verts
v -0.9 0.6 -1.19209e-07
v -0.9 0.6 -0.2
v -0.9 0.8 -1.19209e-07
v -0.9 0.8 -0.2
v -0.8 0.6 0.2
v -0.8 0.6 -1.19209e-07
v -0.8 0.6 -0.2
v -0.8 0.6 -0.4
v -0.8 0.8 0.2
v -0.8 0.8 -1.19209e-07
v -0.8 0.8 -0.2
v -0.8 0.8 -0.4
v -0.6 0.6 0.8
v -0.6 0.6 0.7
v -0.6 0.6 0.3
v -0.6 0.6 0.2
v -0.6 0.6 -0.2
v -0.6 0.6 -0.3
v -0.6 0.8 0.8
v -0.6 0.8 0.7
v -0.6 0.8 0.3
v -0.6 0.8 0.2
v -0.6 0.8 -0.2
v -0.6 0.8 -0.3
v -0.5 0.6 0.9
v -0.5 0.6 0.8
v -0.5 0.6 0.4
v -0.5 0.6 0.3
v -0.5 0.6 -0.3
v -0.5 0.6 -0.4
v -0.5 0.6 -0.7
v -0.5 0.8 0.9
v -0.5 0.8 0.8
v -0.5 0.8 0.4
v -0.5 0.8 0.3
v -0.5 0.8 -0.3
v -0.5 0.8 -0.4
v -0.5 0.8 -0.7
v -0.4 0.6 0.5
v -0.4 0.6 0.4
v -0.4 0.8 0.5
v -0.4 0.8 0.4
v -0.3 0.6 0.6
v -0.3 0.6 0.5
v -0.3 0.8 0.6
v -0.3 0.8 0.5
v -0.2 0.6 0.7
v -0.2 0.6 0.6
v -0.2 0.8 0.7
v -0.2 0.8 0.6
v -0.1 0.6 0.8
v -0.1 0.6 0.7
v -0.1 0.8 0.8
v -0.1 0.8 0.7
v 0 0.6 -0.2
v 0 0.6 -0.3
v 0 0.8 -0.2
v 0 0.8 -0.3
v 0.1 0.6 1.2
v 0.1 0.6 0.7
v 0.1 0.6 -0.3
v 0.1 0.6 -0.4
v 0.1 0.8 1.2
v 0.1 0.8 0.7
v 0.1 0.8 -0.3
v 0.1 0.8 -0.4
v 0.4 0.6 -0.6
v 0.4 0.6 -0.7
v 0.4 0.8 -0.6
v 0.4 0.8 -0.7
v 0.5 0.6 -0.4
v 0.5 0.6 -0.5
v 0.5 0.6 -0.6
v 0.5 0.8 -0.4
v 0.5 0.8 -0.5
v 0.5 0.8 -0.6
v 0.6 0.6 -0.3
v 0.6 0.6 -0.4
v 0.6 0.6 -0.7
v 0.6 0.6 -0.8
v 0.6 0.6 -0.9
v 0.6 0.8 -0.3
v 0.6 0.8 -0.4
v 0.6 0.8 -0.7
v 0.6 0.8 -0.8
v 0.6 0.8 -0.9
v -0.7 0.6 -0.2
v -0.7 0.6 -0.4
v -0.7 0.8 -0.2
v -0.7 0.8 -0.4
v -0.4 0.6 0.9
v -0.4 0.6 0.7
v -0.4 0.6 -0.4
v -0.4 0.6 -0.7
v -0.4 0.8 0.9
v -0.4 0.8 0.7
v -0.4 0.8 -0.4
v -0.4 0.8 -0.7
v -0.2 0.6 -0.3
v -0.2 0.6 -0.4
v -0.2 0.8 -0.3
v -0.2 0.8 -0.4
v -0.1 0.6 -0.2
v -0.1 0.6 -0.3
v -0.1 0.8 -0.2
v -0.1 0.8 -0.3
v 0 0.6 0.8
v 0 0.6 0.7
v 0 0.8 0.8
v 0 0.8 0.7
v 0.2 0.6 1.2
v 0.2 0.6 0.7
v 0.2 0.8 1.2
v 0.2 0.8 0.7
v 0.4 0.6 0.7
v 0.4 0.6 0.5
v 0.4 0.6 -0.3
v 0.4 0.6 -0.4
v 0.4 0.8 0.7
v 0.4 0.8 0.5
v 0.4 0.8 -0.3
v 0.4 0.8 -0.4
v 0.5 0.6 0.5
v 0.5 0.6 0.3
v 0.5 0.6 -0.2
v 0.5 0.6 -0.3
v 0.5 0.8 0.5
v 0.5 0.8 0.3
v 0.5 0.8 -0.2
v 0.5 0.8 -0.3
v 0.6 0.6 0.0999999
v 0.6 0.6 -0.2
v 0.6 0.8 0.0999999
v 0.6 0.8 -0.2
v 0.7 0.6 0.3
v 0.7 0.6 0.0999999
v 0.7 0.6 -0.3
v 0.7 0.6 -0.5
v 0.7 0.6 -0.6
v 0.7 0.6 -0.8
v 0.7 0.6 -0.9
v 0.7 0.8 0.3
v 0.7 0.8 0.0999999
v 0.7 0.8 -0.3
v 0.7 0.8 -0.5
v 0.7 0.8 -0.6
v 0.7 0.8 -0.8
v 0.7 0.8 -0.9
v 0.8 0.6 -0.5
v 0.8 0.6 -0.6
v 0.8 0.8 -0.5
v 0.8 0.8 -0.6
v 0.1 0.6 1.2
v 0.1 0.8 1.2
v 0.2 0.6 1.2
v 0.2 0.8 1.2
v -0.5 0.6 0.9
v -0.5 0.8 0.9
v -0.4 0.6 0.9
v -0.4 0.8 0.9
v -0.6 0.6 0.8
v -0.6 0.8 0.8
v -0.5 0.6 0.8
v -0.5 0.8 0.8
v -0.1 0.6 0.8
v -0.1 0.8 0.8
v 0 0.6 0.8
v 0 0.8 0.8
v -0.2 0.6 0.7
v -0.2 0.8 0.7
v -0.1 0.6 0.7
v -0.1 0.8 0.7
v 0 0.6 0.7
v 0 0.8 0.7
v 0.1 0.6 0.7
v 0.1 0.8 0.7
v 0.2 0.6 0.7
v 0.2 0.8 0.7
v 0.3 0.6 0.7
v 0.3 0.8 0.7
v 0.4 0.6 0.7
v 0.4 0.8 0.7
v -0.3 0.6 0.6
v -0.3 0.8 0.6
v -0.2 0.6 0.6
v -0.2 0.8 0.6
v -0.4 0.6 0.5
v -0.4 0.8 0.5
v -0.3 0.6 0.5
v -0.3 0.8 0.5
v 0.4 0.6 0.5
v 0.4 0.8 0.5
v 0.5 0.6 0.5
v 0.5 0.8 0.5
v -0.5 0.6 0.4
v -0.5 0.8 0.4
v -0.4 0.6 0.4
v -0.4 0.8 0.4
v -0.6 0.6 0.3
v -0.6 0.8 0.3
v -0.5 0.6 0.3
v -0.5 0.8 0.3
v 0.5 0.6 0.3
v 0.5 0.8 0.3
v 0.6 0.6 0.3
v 0.6 0.8 0.3
v 0.7 0.6 0.3
v 0.7 0.8 0.3
v -0.8 0.6 0.2
v -0.8 0.8 0.2
v -0.7 0.6 0.2
v -0.7 0.8 0.2
v -0.6 0.6 0.2
v -0.6 0.8 0.2
v -0.9 0.6 -1.19209e-07
v -0.9 0.8 -1.19209e-07
v -0.8 0.6 -1.19209e-07
v -0.8 0.8 -1.19209e-07
v 0.6 0.6 -0.3
v 0.6 0.8 -0.3
v 0.7 0.6 -0.3
v 0.7 0.8 -0.3
v 0.5 0.6 -0.4
v 0.5 0.8 -0.4
v 0.6 0.6 -0.4
v 0.6 0.8 -0.4
v 0.7 0.6 -0.5
v 0.7 0.8 -0.5
v 0.8 0.6 -0.5
v 0.8 0.8 -0.5
v 0.4 0.6 -0.6
v 0.4 0.8 -0.6
v 0.5 0.6 -0.6
v 0.5 0.8 -0.6
v -0.6 0.6 0.7
v -0.6 0.8 0.7
v -0.5 0.6 0.7
v -0.5 0.8 0.7
v -0.4 0.6 0.7
v -0.4 0.8 0.7
v 0.6 0.6 0.0999999
v 0.6 0.8 0.0999999
v 0.7 0.6 0.0999999
v 0.7 0.8 0.0999999
v -0.9 0.6 -0.2
v -0.9 0.8 -0.2
v -0.8 0.6 -0.2
v -0.8 0.8 -0.2
v -0.7 0.6 -0.2
v -0.7 0.8 -0.2
v -0.6 0.6 -0.2
v -0.6 0.8 -0.2
v -0.1 0.6 -0.2
v -0.1 0.8 -0.2
v 0 0.6 -0.2
v 0 0.8 -0.2
v 0.5 0.6 -0.2
v 0.5 0.8 -0.2
v 0.6 0.6 -0.2
v 0.6 0.8 -0.2
v -0.6 0.6 -0.3
v -0.6 0.8 -0.3
v -0.5 0.6 -0.3
v -0.5 0.8 -0.3
v -0.2 0.6 -0.3
v -0.2 0.8 -0.3
v -0.1 0.6 -0.3
v -0.1 0.8 -0.3
v 0 0.6 -0.3
v 0 0.8 -0.3
v 0.1 0.6 -0.3
v 0.1 0.8 -0.3
v 0.4 0.6 -0.3
v 0.4 0.8 -0.3
v 0.5 0.6 -0.3
v 0.5 0.8 -0.3
v -0.8 0.6 -0.4
v -0.8 0.8 -0.4
v -0.7 0.6 -0.4
v -0.7 0.8 -0.4
v -0.4 0.6 -0.4
v -0.4 0.8 -0.4
v -0.2 0.6 -0.4
v -0.2 0.8 -0.4
v 0.1 0.6 -0.4
v 0.1 0.8 -0.4
v 0.4 0.6 -0.4
v 0.4 0.8 -0.4
v 0.7 0.6 -0.6
v 0.7 0.8 -0.6
v 0.8 0.6 -0.6
v 0.8 0.8 -0.6
v -0.5 0.6 -0.7
v -0.5 0.8 -0.7
v -0.4 0.6 -0.7
v -0.4 0.8 -0.7
v 0.4 0.6 -0.7
v 0.4 0.8 -0.7
v 0.6 0.6 -0.7
v 0.6 0.8 -0.7
v 0.6 0.6 -0.9
v 0.6 0.8 -0.9
v 0.7 0.6 -0.9
v 0.7 0.8 -0.9
v 0.1 0.6 1.2
v 0.2 0.6 1.2
v -0.5 0.6 0.9
v -0.4 0.6 0.9
v -0.6 0.6 0.8
v -0.5 0.6 0.8
v -0.1 0.6 0.8
v 0 0.6 0.8
v -0.6 0.6 0.7
v -0.5 0.6 0.7
v -0.4 0.6 0.7
v -0.2 0.6 0.7
v -0.1 0.6 0.7
v 0 0.6 0.7
v 0.1 0.6 0.7
v 0.2 0.6 0.7
v 0.3 0.6 0.7
v 0.4 0.6 0.7
v -0.3 0.6 0.6
v -0.2 0.6 0.6
v -0.1 0.6 0.6
v 0 0.6 0.6
v 0.1 0.6 0.6
v 0.2 0.6 0.6
v -0.4 0.6 0.5
v -0.3 0.6 0.5
v -0.2 0.6 0.5
v -0.1 0.6 0.5
v 0 0.6 0.5
v 0.1 0.6 0.5
v 0.2 0.6 0.5
v 0.3 0.6 0.5
v 0.4 0.6 0.5
v 0.5 0.6 0.5
v -0.5 0.6 0.4
v -0.4 0.6 0.4
v -0.3 0.6 0.4
v -0.2 0.6 0.4
v 0.1 0.6 0.4
v 0.2 0.6 0.4
v 0.3 0.6 0.4
v 0.4 0.6 0.4
v -0.6 0.6 0.3
v -0.5 0.6 0.3
v -0.4 0.6 0.3
v -0.3 0.6 0.3
v 0.3 0.6 0.3
v 0.4 0.6 0.3
v 0.5 0.6 0.3
v 0.6 0.6 0.3
v 0.7 0.6 0.3
v -0.8 0.6 0.2
v -0.7 0.6 0.2
v -0.6 0.6 0.2
v -0.5 0.6 0.2
v -0.4 0.6 0.2
v 0.4 0.6 0.2
v 0.5 0.6 0.2
v 0.6 0.6 0.2
v 0.2 0.6 0.0999999
v 0.3 0.6 0.0999999
v 0.6 0.6 0.0999999
v 0.7 0.6 0.0999999
v -0.9 0.6 -1.19209e-07
v -0.8 0.6 -1.19209e-07
v -0.6 0.6 -1.19209e-07
v -0.5 0.6 -1.19209e-07
v -0.8 0.6 -0.1
v -0.7 0.6 -0.1
v -0.6 0.6 -0.1
v -0.5 0.6 -0.1
v -0.4 0.6 -0.1
v -0.2 0.6 -0.1
v -0.1 0.6 -0.1
v 0 0.6 -0.1
v -0.9 0.6 -0.2
v -0.8 0.6 -0.2
v -0.7 0.6 -0.2
v -0.6 0.6 -0.2
v -0.5 0.6 -0.2
v -0.2 0.6 -0.2
v -0.1 0.6 -0.2
v 0 0.6 -0.2
v 0.1 0.6 -0.2
v 0.4 0.6 -0.2
v 0.5 0.6 -0.2
v 0.6 0.6 -0.2
v -0.6 0.6 -0.3
v -0.5 0.6 -0.3
v -0.4 0.6 -0.3
v -0.2 0.6 -0.3
v -0.1 0.6 -0.3
v 0 0.6 -0.3
v 0.1 0.6 -0.3
v 0.4 0.6 -0.3
v 0.5 0.6 -0.3
v 0.6 0.6 -0.3
v 0.7 0.6 -0.3
v -0.8 0.6 -0.4
v -0.7 0.6 -0.4
v -0.5 0.6 -0.4
v -0.4 0.6 -0.4
v -0.2 0.6 -0.4
v 0.1 0.6 -0.4
v 0.4 0.6 -0.4
v 0.5 0.6 -0.4
v 0.6 0.6 -0.4
v 0.5 0.6 -0.5
v 0.6 0.6 -0.5
v 0.7 0.6 -0.5
v 0.8 0.6 -0.5
v 0.4 0.6 -0.6
v 0.5 0.6 -0.6
v 0.7 0.6 -0.6
v 0.8 0.6 -0.6
v -0.5 0.6 -0.7
v -0.4 0.6 -0.7
v 0.4 0.6 -0.7
v 0.6 0.6 -0.7
v 0.6 0.6 -0.8
v 0.7 0.6 -0.8
v 0.6 0.6 -0.9
v 0.7 0.6 -0.9
v 0.1 0.8 1.2
v 0.2 0.8 1.2
v -0.5 0.8 0.9
v -0.4 0.8 0.9
v -0.6 0.8 0.8
v -0.5 0.8 0.8
v -0.1 0.8 0.8
v 0 0.8 0.8
v -0.6 0.8 0.7
v -0.5 0.8 0.7
v -0.4 0.8 0.7
v -0.2 0.8 0.7
v -0.1 0.8 0.7
v 0 0.8 0.7
v 0.1 0.8 0.7
v 0.2 0.8 0.7
v 0.3 0.8 0.7
v 0.4 0.8 0.7
v -0.3 0.8 0.6
v -0.2 0.8 0.6
v -0.1 0.8 0.6
v 0 0.8 0.6
v 0.1 0.8 0.6
v 0.2 0.8 0.6
v -0.4 0.8 0.5
v -0.3 0.8 0.5
v -0.2 0.8 0.5
v -0.1 0.8 0.5
v 0 0.8 0.5
v 0.1 0.8 0.5
v 0.2 0.8 0.5
v 0.3 0.8 0.5
v 0.4 0.8 0.5
v 0.5 0.8 0.5
v -0.5 0.8 0.4
v -0.4 0.8 0.4
v -0.3 0.8 0.4
v -0.2 0.8 0.4
v 0.1 0.8 0.4
v 0.2 0.8 0.4
v 0.3 0.8 0.4
v 0.4 0.8 0.4
v -0.6 0.8 0.3
v -0.5 0.8 0.3
v -0.4 0.8 0.3
v -0.3 0.8 0.3
v 0.3 0.8 0.3
v 0.4 0.8 0.3
v 0.5 0.8 0.3
v 0.6 0.8 0.3
v 0.7 0.8 0.3
v -0.8 0.8 0.2
v -0.7 0.8 0.2
v -0.6 0.8 0.2
v -0.5 0.8 0.2
v -0.4 0.8 0.2
v 0.4 0.8 0.2
v 0.5 0.8 0.2
v 0.6 0.8 0.2
v 0.2 0.8 0.0999999
v 0.3 0.8 0.0999999
v 0.6 0.8 0.0999999
v 0.7 0.8 0.0999999
v -0.9 0.8 -1.19209e-07
v -0.8 0.8 -1.19209e-07
v -0.6 0.8 -1.19209e-07
v -0.5 0.8 -1.19209e-07
v -0.8 0.8 -0.1
v -0.7 0.8 -0.1
v -0.6 0.8 -0.1
v -0.5 0.8 -0.1
v -0.4 0.8 -0.1
v -0.2 0.8 -0.1
v -0.1 0.8 -0.1
v 0 0.8 -0.1
v -0.9 0.8 -0.2
v -0.8 0.8 -0.2
v -0.7 0.8 -0.2
v -0.6 0.8 -0.2
v -0.5 0.8 -0.2
v -0.2 0.8 -0.2
v -0.1 0.8 -0.2
v 0 0.8 -0.2
v 0.1 0.8 -0.2
v 0.4 0.8 -0.2
v 0.5 0.8 -0.2
v 0.6 0.8 -0.2
v -0.6 0.8 -0.3
v -0.5 0.8 -0.3
v -0.4 0.8 -0.3
v -0.2 0.8 -0.3
v -0.1 0.8 -0.3
v 0 0.8 -0.3
v 0.1 0.8 -0.3
v 0.4 0.8 -0.3
v 0.5 0.8 -0.3
v 0.6 0.8 -0.3
v 0.7 0.8 -0.3
v -0.8 0.8 -0.4
v -0.7 0.8 -0.4
v -0.5 0.8 -0.4
v -0.4 0.8 -0.4
v -0.2 0.8 -0.4
v 0.1 0.8 -0.4
v 0.4 0.8 -0.4
v 0.5 0.8 -0.4
v 0.6 0.8 -0.4
v 0.5 0.8 -0.5
v 0.6 0.8 -0.5
v 0.7 0.8 -0.5
v 0.8 0.8 -0.5
v 0.4 0.8 -0.6
v 0.5 0.8 -0.6
v 0.7 0.8 -0.6
v 0.8 0.8 -0.6
v -0.5 0.8 -0.7
v -0.4 0.8 -0.7
v 0.4 0.8 -0.7
v 0.6 0.8 -0.7
v 0.6 0.8 -0.8
v 0.7 0.8 -0.8
v 0.6 0.8 -0.9
v 0.7 0.8 -0.9

# faces
f 3/5/1 2/5/1 1/5/1
f 4/5/1 2/5/1 3/5/1
f 9/5/1 6/5/1 5/5/1
f 10/5/1 6/5/1 9/5/1
f 11/5/1 8/5/1 7/5/1
f 12/5/1 8/5/1 11/5/1
f 19/6/1 14/6/1 13/6/1
f 20/6/1 14/6/1 19/6/1
f 21/1/1 16/1/1 15/1/1
f 22/1/1 16/1/1 21/1/1
f 23/1/1 18/1/1 17/1/1
f 24/1/1 18/1/1 23/1/1
f 32/4/1 26/4/1 25/4/1
f 33/4/1 26/4/1 32/4/1
f 34/1/1 28/1/1 27/1/1
f 35/1/1 28/1/1 34/1/1
f 36/1/1 30/1/1 29/1/1
f 37/5/1 31/5/1 30/5/1
f 37/1/1 30/1/1 36/1/1
f 38/5/1 31/5/1 37/5/1
f 41/1/1 40/1/1 39/1/1
f 42/1/1 40/1/1 41/1/1
f 45/1/1 44/1/1 43/1/1
f 46/1/1 44/1/1 45/1/1
f 49/1/1 48/1/1 47/1/1
f 50/1/1 48/1/1 49/1/1
f 53/1/1 52/1/1 51/1/1
f 54/1/1 52/1/1 53/1/1
f 57/1/1 56/1/1 55/1/1
f 58/1/1 56/1/1 57/1/1
f 63/6/1 60/6/1 59/6/1
f 64/6/1 60/6/1 63/6/1
f 65/1/1 62/1/1 61/1/1
f 66/1/1 62/1/1 65/1/1
f 69/5/1 68/5/1 67/5/1
f 70/5/1 68/5/1 69/5/1
f 74/6/1 72/6/1 71/6/1
f 75/5/1 73/5/1 72/5/1
f 75/6/1 72/6/1 74/6/1
f 76/5/1 73/5/1 75/5/1
f 82/4/1 78/4/1 77/4/1
f 83/4/1 78/4/1 82/4/1
f 84/5/1 80/5/1 79/5/1
f 85/6/1 81/6/1 80/6/1
f 85/5/1 80/5/1 84/5/1
f 86/6/1 81/6/1 85/6/1
f 87/5/2 88/5/2 89/5/2
f 89/5/2 88/5/2 90/5/2
f 91/4/2 92/4/2 95/4/2
f 95/4/2 92/4/2 96/4/2
f 93/5/2 94/5/2 97/5/2
f 97/5/2 94/5/2 98/5/2
f 99/1/2 100/1/2 101/1/2
f 101/1/2 100/1/2 102/1/2
f 103/1/2 104/1/2 105/1/2
f 105/1/2 104/1/2 106/1/2
f 107/1/2 108/1/2 109/1/2
f 109/1/2 108/1/2 110/1/2
f 111/6/2 112/6/2 113/6/2
f 113/6/2 112/6/2 114/6/2
f 115/5/2 116/5/2 119/5/2
f 119/5/2 116/5/2 120/5/2
f 117/1/2 118/1/2 121/1/2
f 121/1/2 118/1/2 122/1/2
f 123/5/2 124/5/2 127/5/2
f 127/5/2 124/5/2 128/5/2
f 125/1/2 126/1/2 129/1/2
f 129/1/2 126/1/2 130/1/2
f 131/1/2 132/1/2 133/1/2
f 133/1/2 132/1/2 134/1/2
f 135/4/2 136/4/2 142/4/2
f 142/4/2 136/4/2 143/4/2
f 137/4/2 138/4/2 144/4/2
f 144/4/2 138/4/2 145/4/2
f 139/5/2 140/5/2 146/5/2
f 140/6/2 141/6/2 147/6/2
f 146/5/2 140/5/2 147/5/2
f 147/6/2 141/6/2 148/6/2
f 149/6/2 150/6/2 151/6/2
f 151/6/2 150/6/2 152/6/2
f 155/6/3 154/6/3 153/6/3
f 156/6/3 154/6/3 155/6/3
f 159/4/3 158/4/3 157/4/3
f 160/4/3 158/4/3 159/4/3
f 163/6/3 162/6/3 161/6/3
f 164/6/3 162/6/3 163/6/3
f 167/1/3 166/1/3 165/1/3
f 168/1/3 166/1/3 167/1/3
f 171/1/3 170/1/3 169/1/3
f 172/1/3 170/1/3 171/1/3
f 175/1/3 174/1/3 173/1/3
f 176/1/3 174/1/3 175/1/3
f 179/4/3 178/4/3 177/4/3
f 180/4/3 178/4/3 179/4/3
f 181/5/3 180/5/3 179/5/3
f 182/5/3 180/5/3 181/5/3
f 185/1/3 184/1/3 183/1/3
f 186/1/3 184/1/3 185/1/3
f 189/1/3 188/1/3 187/1/3
f 190/1/3 188/1/3 189/1/3
f 193/5/3 192/5/3 191/5/3
f 194/5/3 192/5/3 193/5/3
f 197/1/3 196/1/3 195/1/3
f 198/1/3 196/1/3 197/1/3
f 201/1/3 200/1/3 199/1/3
f 202/1/3 200/1/3 201/1/3
f 205/6/3 204/6/3 203/6/3
f 206/6/3 204/6/3 205/6/3
f 207/4/3 206/4/3 205/4/3
f 208/4/3 206/4/3 207/4/3
f 211/5/3 210/5/3 209/5/3
f 212/5/3 210/5/3 211/5/3
f 213/1/3 212/1/3 211/1/3
f 214/1/3 212/1/3 213/1/3
f 217/5/3 216/5/3 215/5/3
f 218/5/3 216/5/3 217/5/3
f 221/4/3 220/4/3 219/4/3
f 222/4/3 220/4/3 221/4/3
f 225/6/3 224/6/3 223/6/3
f 226/6/3 224/6/3 225/6/3
f 229/6/3 228/6/3 227/6/3
f 230/6/3 228/6/3 229/6/3
f 233/5/3 232/5/3 231/5/3
f 234/5/3 232/5/3 233/5/3
f 235/6/4 236/6/4 237/6/4
f 237/6/4 236/6/4 238/6/4
f 237/4/4 238/4/4 239/4/4
f 239/4/4 238/4/4 240/4/4
f 241/4/4 242/4/4 243/4/4
f 243/4/4 242/4/4 244/4/4
f 245/5/4 246/5/4 247/5/4
f 247/5/4 246/5/4 248/5/4
f 249/1/4 250/1/4 251/1/4
f 251/1/4 250/1/4 252/1/4
f 253/1/4 254/1/4 255/1/4
f 255/1/4 254/1/4 256/1/4
f 257/1/4 258/1/4 259/1/4
f 259/1/4 258/1/4 260/1/4
f 261/1/4 262/1/4 263/1/4
f 263/1/4 262/1/4 264/1/4
f 265/1/4 266/1/4 267/1/4
f 267/1/4 266/1/4 268/1/4
f 269/1/4 270/1/4 271/1/4
f 271/1/4 270/1/4 272/1/4
f 273/1/4 274/1/4 275/1/4
f 275/1/4 274/1/4 276/1/4
f 277/5/4 278/5/4 279/5/4
f 279/5/4 278/5/4 280/5/4
f 281/1/4 282/1/4 283/1/4
f 283/1/4 282/1/4 284/1/4
f 285/1/4 286/1/4 287/1/4
f 287/1/4 286/1/4 288/1/4
f 289/6/4 290/6/4 291/6/4
f 291/6/4 290/6/4 292/6/4
f 293/5/4 294/5/4 295/5/4
f 295/5/4 294/5/4 296/5/4
f 297/5/4 298/5/4 299/5/4
f 299/5/4 298/5/4 300/5/4
f 301/6/4 302/6/4 303/6/4
f 303/6/4 302/6/4 304/6/4
f 310/4/5 308/4/5 307/4/5
f 313/6/5 310/6/5 309/6/5
f 314/4/5 308/4/5 310/4/5
f 314/6/5 310/6/5 313/6/5
f 315/4/5 308/4/5 314/4/5
f 317/1/5 312/1/5 311/1/5
f 318/1/5 312/1/5 317/1/5
f 319/6/5 306/6/5 305/6/5
f 320/6/5 306/6/5 319/6/5
f 324/1/5 317/1/5 316/1/5
f 325/3/5 318/3/5 317/3/5
f 325/1/5 317/1/5 324/1/5
f 326/1/5 319/1/5 318/1/5
f 326/3/5 318/3/5 325/3/5
f 327/6/5 320/6/5 319/6/5
f 327/1/5 319/1/5 326/1/5
f 328/4/5 321/4/5 320/4/5
f 328/6/5 320/6/5 327/6/5
f 330/1/5 324/1/5 323/1/5
f 331/2/5 325/2/5 324/2/5
f 331/1/5 324/1/5 330/1/5
f 332/3/5 326/3/5 325/3/5
f 332/2/5 325/2/5 331/2/5
f 333/2/5 327/2/5 326/2/5
f 333/3/5 326/3/5 332/3/5
f 334/1/5 328/1/5 327/1/5
f 334/2/5 327/2/5 333/2/5
f 335/4/5 321/4/5 328/4/5
f 335/1/5 328/1/5 334/1/5
f 336/5/5 322/5/5 321/5/5
f 336/4/5 321/4/5 335/4/5
f 337/5/5 322/5/5 336/5/5
f 340/1/5 330/1/5 329/1/5
f 341/2/5 331/2/5 330/2/5
f 341/1/5 330/1/5 340/1/5
f 342/3/5 334/3/5 333/3/5
f 342/2/5 331/2/5 341/2/5
f 342/3/5 332/3/5 331/3/5
f 342/3/5 333/3/5 332/3/5
f 343/2/5 335/2/5 334/2/5
f 343/3/5 334/3/5 342/3/5
f 344/1/5 336/1/5 335/1/5
f 344/2/5 335/2/5 343/2/5
f 345/5/5 338/5/5 337/5/5
f 345/1/5 336/1/5 344/1/5
f 345/5/5 337/5/5 336/5/5
f 346/5/5 338/5/5 345/5/5
f 348/1/5 340/1/5 339/1/5
f 349/2/5 341/2/5 340/2/5
f 349/1/5 340/1/5 348/1/5
f 350/3/5 342/3/5 341/3/5
f 350/2/5 341/2/5 349/2/5
f 350/3/5 344/3/5 343/3/5
f 350/3/5 343/3/5 342/3/5
f 351/1/5 346/1/5 345/1/5
f 351/5/5 345/5/5 344/5/5
f 352/5/5 338/5/5 346/5/5
f 352/1/5 346/1/5 351/1/5
f 353/5/5 338/5/5 352/5/5
f 358/1/5 348/1/5 347/1/5
f 359/2/5 349/2/5 348/2/5
f 359/1/5 348/1/5 358/1/5
f 360/3/5 350/3/5 349/3/5
f 360/2/5 349/2/5 359/2/5
f 361/3/5 352/3/5 351/3/5
f 361/1/5 353/1/5 352/1/5
f 362/6/5 354/6/5 353/6/5
f 362/1/5 353/1/5 361/1/5
f 363/4/5 355/4/5 354/4/5
f 363/6/5 354/6/5 362/6/5
f 364/5/5 351/5/5 344/5/5
f 364/3/5 344/3/5 350/3/5
f 364/3/5 359/3/5 358/3/5
f 364/3/5 350/3/5 360/3/5
f 364/3/5 360/3/5 359/3/5
f 365/3/5 362/3/5 361/3/5
f 365/5/5 351/5/5 364/5/5
f 365/3/5 361/3/5 351/3/5
f 366/4/5 355/4/5 363/4/5
f 366/1/5 363/1/5 362/1/5
f 367/4/5 355/4/5 366/4/5
f 369/5/5 357/5/5 356/5/5
f 370/1/5 358/1/5 357/1/5
f 370/3/5 365/3/5 364/3/5
f 370/3/5 364/3/5 358/3/5
f 371/3/5 365/3/5 370/3/5
f 372/5/5 369/5/5 368/5/5
f 372/5/5 357/5/5 369/5/5
f 373/1/5 370/1/5 357/1/5
f 373/5/5 357/5/5 372/5/5
f 374/5/5 371/5/5 370/5/5
f 374/1/5 370/1/5 373/1/5
f 375/3/5 365/3/5 371/3/5
f 375/5/5 371/5/5 374/5/5
f 376/3/5 365/3/5 375/3/5
f 377/3/5 365/3/5 376/3/5
f 378/3/5 365/3/5 377/3/5
f 379/3/5 365/3/5 378/3/5
f 380/5/5 372/5/5 368/5/5
f 381/4/5 373/4/5 372/4/5
f 381/5/5 372/5/5 380/5/5
f 382/1/5 374/1/5 373/1/5
f 382/4/5 373/4/5 381/4/5
f 383/3/5 375/3/5 374/3/5
f 383/1/5 374/1/5 382/1/5
f 384/5/5 376/5/5 375/5/5
f 384/3/5 375/3/5 383/3/5
f 385/3/5 377/3/5 376/3/5
f 385/2/5 378/2/5 377/2/5
f 386/1/5 379/1/5 378/1/5
f 386/2/5 378/2/5 385/2/5
f 387/3/5 365/3/5 379/3/5
f 387/1/5 379/1/5 386/1/5
f 388/3/5 365/3/5 387/3/5
f 389/3/5 362/3/5 365/3/5
f 389/3/5 365/3/5 388/3/5
f 390/1/5 366/1/5 362/1/5
f 390/3/5 362/3/5 389/3/5
f 391/1/5 366/1/5 390/1/5
f 392/1/5 384/1/5 383/1/5
f 393/5/5 376/5/5 384/5/5
f 393/1/5 384/1/5 392/1/5
f 394/3/5 385/3/5 376/3/5
f 394/5/5 376/5/5 393/5/5
f 395/1/5 386/1/5 385/1/5
f 395/3/5 385/3/5 394/3/5
f 396/1/5 386/1/5 395/1/5
f 397/1/5 388/1/5 387/1/5
f 398/3/5 389/3/5 388/3/5
f 398/1/5 388/1/5 397/1/5
f 399/1/5 390/1/5 389/1/5
f 399/3/5 389/3/5 398/3/5
f 400/1/5 390/1/5 399/1/5
f 403/5/5 382/5/5 381/5/5
f 404/5/5 382/5/5 403/5/5
f 405/1/5 394/1/5 393/1/5
f 405/1/5 395/1/5 394/1/5
f 406/1/5 395/1/5 405/1/5
f 407/1/5 395/1/5 406/1/5
f 408/1/5 399/1/5 398/1/5
f 409/1/5 399/1/5 408/1/5
f 411/4/5 402/4/5 401/4/5
f 412/6/5 411/6/5 410/6/5
f 413/4/5 402/4/5 411/4/5
f 413/6/5 411/6/5 412/6/5
f 414/4/5 402/4/5 413/4/5
f 417/5/5 414/5/5 413/5/5
f 417/5/5 413/5/5 412/5/5
f 418/6/5 415/6/5 414/6/5
f 418/5/5 414/5/5 417/5/5
f 419/6/5 415/6/5 418/6/5
f 420/5/5 406/5/5 405/5/5
f 421/5/5 406/5/5 420/5/5
f 422/5/5 417/5/5 416/5/5
f 422/5/5 418/5/5 417/5/5
f 423/5/5 418/5/5 422/5/5
f 424/5/5 418/5/5 423/5/5
f 425/5/5 418/5/5 424/5/5
f 426/6/5 425/6/5 424/6/5
f 427/6/5 425/6/5 426/6/5
f 430/4/6 431/4/6 433/4/6
f 432/6/6 433/6/6 436/6/6
f 433/4/6 431/4/6 437/4/6
f 436/6/6 433/6/6 437/6/6
f 437/4/6 431/4/6 438/4/6
f 434/1/6 435/1/6 440/1/6
f 440/1/6 435/1/6 441/1/6
f 428/6/6 429/6/6 442/6/6
f 442/6/6 429/6/6 443/6/6
f 439/1/6 440/1/6 447/1/6
f 440/3/6 441/3/6 448/3/6
f 447/1/6 440/1/6 448/1/6
f 441/1/6 442/1/6 449/1/6
f 448/3/6 441/3/6 449/3/6
f 442/6/6 443/6/6 450/6/6
f 449/1/6 442/1/6 450/1/6
f 443/4/6 444/4/6 451/4/6
f 450/6/6 443/6/6 451/6/6
f 446/1/6 447/1/6 453/1/6
f 447/2/6 448/2/6 454/2/6
f 453/1/6 447/1/6 454/1/6
f 448/3/6 449/3/6 455/3/6
f 454/2/6 448/2/6 455/2/6
f 449/2/6 450/2/6 456/2/6
f 455/3/6 449/3/6 456/3/6
f 450/1/6 451/1/6 457/1/6
f 456/2/6 450/2/6 457/2/6
f 451/4/6 444/4/6 458/4/6
f 457/1/6 451/1/6 458/1/6
f 444/5/6 445/5/6 459/5/6
f 458/4/6 444/4/6 459/4/6
f 459/5/6 445/5/6 460/5/6
f 452/1/6 453/1/6 463/1/6
f 453/2/6 454/2/6 464/2/6
f 463/1/6 453/1/6 464/1/6
f 456/3/6 457/3/6 465/3/6
f 464/2/6 454/2/6 465/2/6
f 454/3/6 455/3/6 465/3/6
f 455/3/6 456/3/6 465/3/6
f 457/2/6 458/2/6 466/2/6
f 465/3/6 457/3/6 466/3/6
f 458/1/6 459/1/6 467/1/6
f 466/2/6 458/2/6 467/2/6
f 460/5/6 461/5/6 468/5/6
f 467/1/6 459/1/6 468/1/6
f 459/5/6 460/5/6 468/5/6
f 468/5/6 461/5/6 469/5/6
f 462/1/6 463/1/6 471/1/6
f 463/2/6 464/2/6 472/2/6
f 471/1/6 463/1/6 472/1/6
f 464/3/6 465/3/6 473/3/6
f 472/2/6 464/2/6 473/2/6
f 466/3/6 467/3/6 473/3/6
f 465/3/6 466/3/6 473/3/6
f 468/1/6 469/1/6 474/1/6
f 467/5/6 468/5/6 474/5/6
f 469/5/6 461/5/6 475/5/6
f 474/1/6 469/1/6 475/1/6
f 475/5/6 461/5/6 476/5/6
f 470/1/6 471/1/6 481/1/6
f 471/2/6 472/2/6 482/2/6
f 481/1/6 471/1/6 482/1/6
f 472/3/6 473/3/6 483/3/6
f 482/2/6 472/2/6 483/2/6
f 474/3/6 475/3/6 484/3/6
f 475/1/6 476/1/6 484/1/6
f 476/6/6 477/6/6 485/6/6
f 484/1/6 476/1/6 485/1/6
f 477/4/6 478/4/6 486/4/6
f 485/6/6 477/6/6 486/6/6
f 467/5/6 474/5/6 487/5/6
f 473/3/6 467/3/6 487/3/6
f 481/3/6 482/3/6 487/3/6
f 483/3/6 473/3/6 487/3/6
f 482/3/6 483/3/6 487/3/6
f 484/3/6 485/3/6 488/3/6
f 487/5/6 474/5/6 488/5/6
f 474/3/6 484/3/6 488/3/6
f 486/4/6 478/4/6 489/4/6
f 485/1/6 486/1/6 489/1/6
f 489/4/6 478/4/6 490/4/6
f 479/5/6 480/5/6 492/5/6
f 480/1/6 481/1/6 493/1/6
f 487/3/6 488/3/6 493/3/6
f 481/3/6 487/3/6 493/3/6
f 493/3/6 488/3/6 494/3/6
f 491/5/6 492/5/6 495/5/6
f 492/5/6 480/5/6 495/5/6
f 480/1/6 493/1/6 496/1/6
f 495/5/6 480/5/6 496/5/6
f 493/5/6 494/5/6 497/5/6
f 496/1/6 493/1/6 497/1/6
f 494/3/6 488/3/6 498/3/6
f 497/5/6 494/5/6 498/5/6
f 498/3/6 488/3/6 499/3/6
f 499/3/6 488/3/6 500/3/6
f 500/3/6 488/3/6 501/3/6
f 501/3/6 488/3/6 502/3/6
f 491/5/6 495/5/6 503/5/6
f 495/4/6 496/4/6 504/4/6
f 503/5/6 495/5/6 504/5/6
f 496/1/6 497/1/6 505/1/6
f 504/4/6 496/4/6 505/4/6
f 497/3/6 498/3/6 506/3/6
f 505/1/6 497/1/6 506/1/6
f 498/5/6 499/5/6 507/5/6
f 506/3/6 498/3/6 507/3/6
f 499/3/6 500/3/6 508/3/6
f 500/2/6 501/2/6 508/2/6
f 501/1/6 502/1/6 509/1/6
f 508/2/6 501/2/6 509/2/6
f 502/3/6 488/3/6 510/3/6
f 509/1/6 502/1/6 510/1/6
f 510/3/6 488/3/6 511/3/6
f 488/3/6 485/3/6 512/3/6
f 511/3/6 488/3/6 512/3/6
f 485/1/6 489/1/6 513/1/6
f 512/3/6 485/3/6 513/3/6
f 513/1/6 489/1/6 514/1/6
f 506/1/6 507/1/6 515/1/6
f 507/5/6 499/5/6 516/5/6
f 515/1/6 507/1/6 516/1/6
f 499/3/6 508/3/6 517/3/6
f 516/5/6 499/5/6 517/5/6
f 508/1/6 509/1/6 518/1/6
f 517/3/6 508/3/6 518/3/6
f 518/1/6 509/1/6 519/1/6
f 510/1/6 511/1/6 520/1/6
f 511/3/6 512/3/6 521/3/6
f 520/1/6 511/1/6 521/1/6
f 512/1/6 513/1/6 522/1/6
f 521/3/6 512/3/6 522/3/6
f 522/1/6 513/1/6 523/1/6
f 504/5/6 505/5/6 526/5/6
f 526/5/6 505/5/6 527/5/6
f 516/1/6 517/1/6 528/1/6
f 517/1/6 518/1/6 528/1/6
f 528/1/6 518/1/6 529/1/6
f 529/1/6 518/1/6 530/1/6
f 521/1/6 522/1/6 531/1/6
f 531/1/6 522/1/6 532/1/6
f 524/4/6 525/4/6 534/4/6
f 533/6/6 534/6/6 535/6/6
f 534/4/6 525/4/6 536/4/6
f 535/6/6 534/6/6 536/6/6
f 536/4/6 525/4/6 537/4/6
f 536/5/6 537/5/6 540/5/6
f 535/5/6 536/5/6 540/5/6
f 537/6/6 538/6/6 541/6/6
f 540/5/6 537/5/6 541/5/6
f 541/6/6 538/6/6 542/6/6
f 528/5/6 529/5/6 543/5/6
f 543/5/6 529/5/6 544/5/6
f 539/5/6 540/5/6 545/5/6
f 540/5/6 541/5/6 545/5/6
f 545/5/6 541/5/6 546/5/6
f 546/5/6 541/5/6 547/5/6
f 547/5/6 541/5/6 548/5/6
f 547/6/6 548/6/6 549/6/6
f 549/6/6 548/6/6 550/6/6
