# MagicaVoxel @ Ephtracy

# group
o 

# material
mtllib subway1-2.mtl
usemtl palette

# normals
vn -1 0 0
vn 1 0 0
vn 0 0 1
vn 0 0 -1
vn 0 -1 0
vn 0 1 0

# texcoords
vt 0.138672 0.5
vt 0.880859 0.5
vt 0.958984 0.5
vt 0.978516 0.5
vt 0.994141 0.5

# verts
v 10 2.6 -4.7
v 10 2.6 -5.9
v 10 3.7 -4.7
v 10 3.7 -5.9
v 11.9 2.6 -4.7
v 11.9 2.6 -5.9
v 11.9 2.7 -5.3
v 11.9 2.7 -5.4
v 11.9 3.5 -5.3
v 11.9 3.5 -5.4
v 11.9 3.7 -4.7
v 11.9 3.7 -5.9
v 13.8 2.6 -4.7
v 13.8 2.6 -5.9
v 13.8 2.7 -5.3
v 13.8 2.7 -5.4
v 13.8 3.5 -5.3
v 13.8 3.5 -5.4
v 13.8 3.7 -4.7
v 13.8 3.7 -5.9
v 15.7 2.6 -4.7
v 15.7 2.6 -5.9
v 15.7 3.7 -4.7
v 15.7 3.7 -5.9
v 17.5 2.6 -4.7
v 17.5 2.6 -5.9
v 17.5 2.7 -5.3
v 17.5 2.7 -5.4
v 17.5 3.5 -5.3
v 17.5 3.5 -5.4
v 17.5 3.7 -4.7
v 17.5 3.7 -5.9
v 19.4 2.6 -4.7
v 19.4 2.6 -5.9
v 19.4 2.7 -5.3
v 19.4 2.7 -5.4
v 19.4 3.5 -5.3
v 19.4 3.5 -5.4
v 19.4 3.7 -4.7
v 19.4 3.7 -5.9
v 10.5 2.6 -4.7
v 10.5 2.6 -5.9
v 10.5 2.7 -5.3
v 10.5 2.7 -5.4
v 10.5 3.5 -5.3
v 10.5 3.5 -5.4
v 10.5 3.7 -4.7
v 10.5 3.7 -5.9
v 12.4 2.6 -4.7
v 12.4 2.6 -5.9
v 12.4 2.7 -5.3
v 12.4 2.7 -5.4
v 12.4 3.5 -5.3
v 12.4 3.5 -5.4
v 12.4 3.7 -4.7
v 12.4 3.7 -5.9
v 14.3 2.6 -4.7
v 14.3 2.6 -5.9
v 14.3 3.7 -4.7
v 14.3 3.7 -5.9
v 16.2 2.6 -4.7
v 16.2 2.6 -5.9
v 16.2 2.7 -5.3
v 16.2 2.7 -5.4
v 16.2 3.5 -5.3
v 16.2 3.5 -5.4
v 16.2 3.7 -4.7
v 16.2 3.7 -5.9
v 18 2.6 -4.7
v 18 2.6 -5.9
v 18 2.7 -5.3
v 18 2.7 -5.4
v 18 3.5 -5.3
v 18 3.5 -5.4
v 18 3.7 -4.7
v 18 3.7 -5.9
v 19.9 2.6 -4.7
v 19.9 2.6 -5.9
v 19.9 3.7 -4.7
v 19.9 3.7 -5.9
v 10 2.6 -4.7
v 10 3.7 -4.7
v 10.1 2.7 -4.7
v 10.1 3.3 -4.7
v 10.1 3.4 -4.7
v 10.1 3.5 -4.7
v 10.1 3.6 -4.7
v 10.2 3.4 -4.7
v 10.2 3.5 -4.7
v 10.2 3.6 -4.7
v 10.3 3.5 -4.7
v 10.3 3.6 -4.7
v 10.4 2.7 -4.7
v 10.4 3.3 -4.7
v 10.4 3.6 -4.7
v 10.5 2.6 -4.7
v 10.5 3.7 -4.7
v 11.9 2.6 -4.7
v 11.9 3.7 -4.7
v 12 2.7 -4.7
v 12 3.3 -4.7
v 12 3.4 -4.7
v 12 3.5 -4.7
v 12 3.6 -4.7
v 12.1 3.4 -4.7
v 12.1 3.5 -4.7
v 12.1 3.6 -4.7
v 12.2 3.5 -4.7
v 12.2 3.6 -4.7
v 12.3 2.7 -4.7
v 12.3 3.3 -4.7
v 12.3 3.6 -4.7
v 12.4 2.6 -4.7
v 12.4 3.7 -4.7
v 13.8 2.6 -4.7
v 13.8 3.7 -4.7
v 13.9 2.7 -4.7
v 13.9 3.3 -4.7
v 13.9 3.4 -4.7
v 13.9 3.5 -4.7
v 13.9 3.6 -4.7
v 14 3.4 -4.7
v 14 3.5 -4.7
v 14 3.6 -4.7
v 14.1 3.5 -4.7
v 14.1 3.6 -4.7
v 14.2 2.7 -4.7
v 14.2 3.3 -4.7
v 14.2 3.6 -4.7
v 14.3 2.6 -4.7
v 14.3 3.7 -4.7
v 15.7 2.6 -4.7
v 15.7 3.7 -4.7
v 15.8 2.7 -4.7
v 15.8 3.3 -4.7
v 15.8 3.4 -4.7
v 15.8 3.5 -4.7
v 15.8 3.6 -4.7
v 15.9 3.4 -4.7
v 15.9 3.5 -4.7
v 15.9 3.6 -4.7
v 16 3.5 -4.7
v 16 3.6 -4.7
v 16.1 2.7 -4.7
v 16.1 3.3 -4.7
v 16.1 3.6 -4.7
v 16.2 2.6 -4.7
v 16.2 3.7 -4.7
v 17.5 2.6 -4.7
v 17.5 3.7 -4.7
v 17.6 2.7 -4.7
v 17.6 3.3 -4.7
v 17.6 3.4 -4.7
v 17.6 3.5 -4.7
v 17.6 3.6 -4.7
v 17.7 3.4 -4.7
v 17.7 3.5 -4.7
v 17.7 3.6 -4.7
v 17.8 3.5 -4.7
v 17.8 3.6 -4.7
v 17.9 2.7 -4.7
v 17.9 3.3 -4.7
v 17.9 3.6 -4.7
v 18 2.6 -4.7
v 18 3.7 -4.7
v 19.4 2.6 -4.7
v 19.4 3.7 -4.7
v 19.5 2.7 -4.7
v 19.5 3.3 -4.7
v 19.5 3.4 -4.7
v 19.5 3.5 -4.7
v 19.5 3.6 -4.7
v 19.6 3.4 -4.7
v 19.6 3.5 -4.7
v 19.6 3.6 -4.7
v 19.7 3.5 -4.7
v 19.7 3.6 -4.7
v 19.8 2.7 -4.7
v 19.8 3.3 -4.7
v 19.8 3.6 -4.7
v 19.9 2.6 -4.7
v 19.9 3.7 -4.7
v 10.5 2.7 -5.3
v 10.5 3.5 -5.3
v 11.9 2.7 -5.3
v 11.9 3.5 -5.3
v 12.4 2.7 -5.3
v 12.4 3.5 -5.3
v 13.8 2.7 -5.3
v 13.8 3.5 -5.3
v 16.2 2.7 -5.3
v 16.2 3.5 -5.3
v 17.5 2.7 -5.3
v 17.5 3.5 -5.3
v 18 2.7 -5.3
v 18 3.5 -5.3
v 19.4 2.7 -5.3
v 19.4 3.5 -5.3
v 10.5 2.7 -5.4
v 10.5 3.5 -5.4
v 11.9 2.7 -5.4
v 11.9 3.5 -5.4
v 12.4 2.7 -5.4
v 12.4 3.5 -5.4
v 13.8 2.7 -5.4
v 13.8 3.5 -5.4
v 16.2 2.7 -5.4
v 16.2 3.5 -5.4
v 17.5 2.7 -5.4
v 17.5 3.5 -5.4
v 18 2.7 -5.4
v 18 3.5 -5.4
v 19.4 2.7 -5.4
v 19.4 3.5 -5.4
v 10 2.6 -5.9
v 10 3.7 -5.9
v 10.1 2.7 -5.9
v 10.1 3.2 -5.9
v 10.1 3.3 -5.9
v 10.1 3.4 -5.9
v 10.1 3.5 -5.9
v 10.1 3.6 -5.9
v 10.2 3.2 -5.9
v 10.2 3.3 -5.9
v 10.2 3.4 -5.9
v 10.2 3.5 -5.9
v 10.3 3.2 -5.9
v 10.3 3.3 -5.9
v 10.3 3.4 -5.9
v 10.3 3.5 -5.9
v 10.4 2.7 -5.9
v 10.4 3.2 -5.9
v 10.4 3.3 -5.9
v 10.4 3.4 -5.9
v 10.4 3.5 -5.9
v 10.4 3.6 -5.9
v 10.5 2.6 -5.9
v 10.5 3.7 -5.9
v 11.9 2.6 -5.9
v 11.9 3.7 -5.9
v 12 2.7 -5.9
v 12 3.2 -5.9
v 12 3.3 -5.9
v 12 3.4 -5.9
v 12 3.5 -5.9
v 12 3.6 -5.9
v 12.1 3.2 -5.9
v 12.1 3.3 -5.9
v 12.1 3.4 -5.9
v 12.1 3.5 -5.9
v 12.2 3.2 -5.9
v 12.2 3.3 -5.9
v 12.2 3.4 -5.9
v 12.2 3.5 -5.9
v 12.3 2.7 -5.9
v 12.3 3.2 -5.9
v 12.3 3.3 -5.9
v 12.3 3.4 -5.9
v 12.3 3.5 -5.9
v 12.3 3.6 -5.9
v 12.4 2.6 -5.9
v 12.4 3.7 -5.9
v 13.8 2.6 -5.9
v 13.8 3.7 -5.9
v 13.9 2.7 -5.9
v 13.9 3.2 -5.9
v 13.9 3.3 -5.9
v 13.9 3.4 -5.9
v 13.9 3.5 -5.9
v 13.9 3.6 -5.9
v 14 3.2 -5.9
v 14 3.3 -5.9
v 14 3.4 -5.9
v 14 3.5 -5.9
v 14.1 3.2 -5.9
v 14.1 3.3 -5.9
v 14.1 3.4 -5.9
v 14.1 3.5 -5.9
v 14.2 2.7 -5.9
v 14.2 3.2 -5.9
v 14.2 3.3 -5.9
v 14.2 3.4 -5.9
v 14.2 3.5 -5.9
v 14.2 3.6 -5.9
v 14.3 2.6 -5.9
v 14.3 3.7 -5.9
v 15.7 2.6 -5.9
v 15.7 3.7 -5.9
v 15.8 2.7 -5.9
v 15.8 3.2 -5.9
v 15.8 3.3 -5.9
v 15.8 3.4 -5.9
v 15.8 3.5 -5.9
v 15.8 3.6 -5.9
v 15.9 3.2 -5.9
v 15.9 3.3 -5.9
v 15.9 3.4 -5.9
v 15.9 3.5 -5.9
v 16 3.2 -5.9
v 16 3.3 -5.9
v 16 3.4 -5.9
v 16 3.5 -5.9
v 16.1 2.7 -5.9
v 16.1 3.2 -5.9
v 16.1 3.3 -5.9
v 16.1 3.4 -5.9
v 16.1 3.5 -5.9
v 16.1 3.6 -5.9
v 16.2 2.6 -5.9
v 16.2 3.7 -5.9
v 17.5 2.6 -5.9
v 17.5 3.7 -5.9
v 17.6 2.7 -5.9
v 17.6 3.2 -5.9
v 17.6 3.3 -5.9
v 17.6 3.4 -5.9
v 17.6 3.5 -5.9
v 17.6 3.6 -5.9
v 17.7 3.2 -5.9
v 17.7 3.3 -5.9
v 17.7 3.4 -5.9
v 17.7 3.5 -5.9
v 17.8 3.2 -5.9
v 17.8 3.3 -5.9
v 17.8 3.4 -5.9
v 17.8 3.5 -5.9
v 17.9 2.7 -5.9
v 17.9 3.2 -5.9
v 17.9 3.3 -5.9
v 17.9 3.4 -5.9
v 17.9 3.5 -5.9
v 17.9 3.6 -5.9
v 18 2.6 -5.9
v 18 3.7 -5.9
v 19.4 2.6 -5.9
v 19.4 3.7 -5.9
v 19.5 2.7 -5.9
v 19.5 3.2 -5.9
v 19.5 3.3 -5.9
v 19.5 3.4 -5.9
v 19.5 3.5 -5.9
v 19.5 3.6 -5.9
v 19.6 3.2 -5.9
v 19.6 3.3 -5.9
v 19.6 3.4 -5.9
v 19.6 3.5 -5.9
v 19.7 3.2 -5.9
v 19.7 3.3 -5.9
v 19.7 3.4 -5.9
v 19.7 3.5 -5.9
v 19.8 2.7 -5.9
v 19.8 3.2 -5.9
v 19.8 3.3 -5.9
v 19.8 3.4 -5.9
v 19.8 3.5 -5.9
v 19.8 3.6 -5.9
v 19.9 2.6 -5.9
v 19.9 3.7 -5.9
v 10 2.6 -4.7
v 10.5 2.6 -4.7
v 11.9 2.6 -4.7
v 12.4 2.6 -4.7
v 13.8 2.6 -4.7
v 14.3 2.6 -4.7
v 15.7 2.6 -4.7
v 16.2 2.6 -4.7
v 17.5 2.6 -4.7
v 18 2.6 -4.7
v 19.4 2.6 -4.7
v 19.9 2.6 -4.7
v 10 2.6 -5.9
v 10.5 2.6 -5.9
v 11.9 2.6 -5.9
v 12.4 2.6 -5.9
v 13.8 2.6 -5.9
v 14.3 2.6 -5.9
v 15.7 2.6 -5.9
v 16.2 2.6 -5.9
v 17.5 2.6 -5.9
v 18 2.6 -5.9
v 19.4 2.6 -5.9
v 19.9 2.6 -5.9
v 10.5 2.7 -5.3
v 11.9 2.7 -5.3
v 12.4 2.7 -5.3
v 13.8 2.7 -5.3
v 16.2 2.7 -5.3
v 17.5 2.7 -5.3
v 18 2.7 -5.3
v 19.4 2.7 -5.3
v 10.5 2.7 -5.4
v 11.9 2.7 -5.4
v 12.4 2.7 -5.4
v 13.8 2.7 -5.4
v 16.2 2.7 -5.4
v 17.5 2.7 -5.4
v 18 2.7 -5.4
v 19.4 2.7 -5.4
v 10.5 3.5 -5.3
v 11.9 3.5 -5.3
v 12.4 3.5 -5.3
v 13.8 3.5 -5.3
v 16.2 3.5 -5.3
v 17.5 3.5 -5.3
v 18 3.5 -5.3
v 19.4 3.5 -5.3
v 10.5 3.5 -5.4
v 11.9 3.5 -5.4
v 12.4 3.5 -5.4
v 13.8 3.5 -5.4
v 16.2 3.5 -5.4
v 17.5 3.5 -5.4
v 18 3.5 -5.4
v 19.4 3.5 -5.4
v 10 3.7 -4.7
v 10.5 3.7 -4.7
v 11.9 3.7 -4.7
v 12.4 3.7 -4.7
v 13.8 3.7 -4.7
v 14.3 3.7 -4.7
v 15.7 3.7 -4.7
v 16.2 3.7 -4.7
v 17.5 3.7 -4.7
v 18 3.7 -4.7
v 19.4 3.7 -4.7
v 19.9 3.7 -4.7
v 10 3.7 -5.9
v 10.5 3.7 -5.9
v 11.9 3.7 -5.9
v 12.4 3.7 -5.9
v 13.8 3.7 -5.9
v 14.3 3.7 -5.9
v 15.7 3.7 -5.9
v 16.2 3.7 -5.9
v 17.5 3.7 -5.9
v 18 3.7 -5.9
v 19.4 3.7 -5.9
v 19.9 3.7 -5.9

# faces
f 3/4/1 2/4/1 1/4/1
f 4/4/1 2/4/1 3/4/1
f 7/4/1 6/4/1 5/4/1
f 8/4/1 6/4/1 7/4/1
f 9/4/1 7/4/1 5/4/1
f 10/4/1 6/4/1 8/4/1
f 11/4/1 9/4/1 5/4/1
f 11/4/1 10/4/1 9/4/1
f 12/4/1 6/4/1 10/4/1
f 12/4/1 10/4/1 11/4/1
f 15/4/1 14/4/1 13/4/1
f 16/4/1 14/4/1 15/4/1
f 17/4/1 15/4/1 13/4/1
f 18/4/1 14/4/1 16/4/1
f 19/4/1 17/4/1 13/4/1
f 19/4/1 18/4/1 17/4/1
f 20/4/1 14/4/1 18/4/1
f 20/4/1 18/4/1 19/4/1
f 23/4/1 22/4/1 21/4/1
f 24/4/1 22/4/1 23/4/1
f 27/4/1 26/4/1 25/4/1
f 28/4/1 26/4/1 27/4/1
f 29/4/1 27/4/1 25/4/1
f 30/4/1 26/4/1 28/4/1
f 31/4/1 29/4/1 25/4/1
f 31/4/1 30/4/1 29/4/1
f 32/4/1 26/4/1 30/4/1
f 32/4/1 30/4/1 31/4/1
f 35/4/1 34/4/1 33/4/1
f 36/4/1 34/4/1 35/4/1
f 37/4/1 35/4/1 33/4/1
f 38/4/1 34/4/1 36/4/1
f 39/4/1 37/4/1 33/4/1
f 39/4/1 38/4/1 37/4/1
f 40/4/1 34/4/1 38/4/1
f 40/4/1 38/4/1 39/4/1
f 41/4/2 42/4/2 43/4/2
f 43/4/2 42/4/2 44/4/2
f 41/4/2 43/4/2 45/4/2
f 44/4/2 42/4/2 46/4/2
f 41/4/2 45/4/2 47/4/2
f 45/4/2 46/4/2 47/4/2
f 46/4/2 42/4/2 48/4/2
f 47/4/2 46/4/2 48/4/2
f 49/4/2 50/4/2 51/4/2
f 51/4/2 50/4/2 52/4/2
f 49/4/2 51/4/2 53/4/2
f 52/4/2 50/4/2 54/4/2
f 49/4/2 53/4/2 55/4/2
f 53/4/2 54/4/2 55/4/2
f 54/4/2 50/4/2 56/4/2
f 55/4/2 54/4/2 56/4/2
f 57/4/2 58/4/2 59/4/2
f 59/4/2 58/4/2 60/4/2
f 61/4/2 62/4/2 63/4/2
f 63/4/2 62/4/2 64/4/2
f 61/4/2 63/4/2 65/4/2
f 64/4/2 62/4/2 66/4/2
f 61/4/2 65/4/2 67/4/2
f 65/4/2 66/4/2 67/4/2
f 66/4/2 62/4/2 68/4/2
f 67/4/2 66/4/2 68/4/2
f 69/4/2 70/4/2 71/4/2
f 71/4/2 70/4/2 72/4/2
f 69/4/2 71/4/2 73/4/2
f 72/4/2 70/4/2 74/4/2
f 69/4/2 73/4/2 75/4/2
f 73/4/2 74/4/2 75/4/2
f 74/4/2 70/4/2 76/4/2
f 75/4/2 74/4/2 76/4/2
f 77/4/2 78/4/2 79/4/2
f 79/4/2 78/4/2 80/4/2
f 83/4/3 82/4/3 81/4/3
f 84/4/3 82/4/3 83/4/3
f 85/4/3 82/4/3 84/4/3
f 86/4/3 82/4/3 85/4/3
f 87/4/3 82/4/3 86/4/3
f 88/2/3 85/2/3 84/2/3
f 88/5/3 86/5/3 85/5/3
f 89/2/3 87/2/3 86/2/3
f 89/5/3 86/5/3 88/5/3
f 90/4/3 82/4/3 87/4/3
f 90/2/3 87/2/3 89/2/3
f 91/2/3 89/2/3 88/2/3
f 91/5/3 90/5/3 89/5/3
f 92/4/3 82/4/3 90/4/3
f 92/5/3 90/5/3 91/5/3
f 93/4/3 83/4/3 81/4/3
f 93/5/3 84/5/3 83/5/3
f 94/2/3 92/2/3 91/2/3
f 94/5/3 84/5/3 93/5/3
f 94/2/3 91/2/3 88/2/3
f 94/2/3 88/2/3 84/2/3
f 95/4/3 82/4/3 92/4/3
f 95/2/3 92/2/3 94/2/3
f 96/4/3 94/4/3 93/4/3
f 96/4/3 93/4/3 81/4/3
f 96/4/3 95/4/3 94/4/3
f 97/4/3 82/4/3 95/4/3
f 97/4/3 95/4/3 96/4/3
f 100/4/3 99/4/3 98/4/3
f 101/4/3 99/4/3 100/4/3
f 102/4/3 99/4/3 101/4/3
f 103/4/3 99/4/3 102/4/3
f 104/4/3 99/4/3 103/4/3
f 105/2/3 102/2/3 101/2/3
f 105/5/3 103/5/3 102/5/3
f 106/2/3 104/2/3 103/2/3
f 106/5/3 103/5/3 105/5/3
f 107/4/3 99/4/3 104/4/3
f 107/2/3 104/2/3 106/2/3
f 108/2/3 106/2/3 105/2/3
f 108/5/3 107/5/3 106/5/3
f 109/4/3 99/4/3 107/4/3
f 109/5/3 107/5/3 108/5/3
f 110/4/3 100/4/3 98/4/3
f 110/5/3 101/5/3 100/5/3
f 111/2/3 109/2/3 108/2/3
f 111/5/3 101/5/3 110/5/3
f 111/2/3 108/2/3 105/2/3
f 111/2/3 105/2/3 101/2/3
f 112/4/3 99/4/3 109/4/3
f 112/2/3 109/2/3 111/2/3
f 113/4/3 111/4/3 110/4/3
f 113/4/3 110/4/3 98/4/3
f 113/4/3 112/4/3 111/4/3
f 114/4/3 99/4/3 112/4/3
f 114/4/3 112/4/3 113/4/3
f 117/4/3 116/4/3 115/4/3
f 118/4/3 116/4/3 117/4/3
f 119/4/3 116/4/3 118/4/3
f 120/4/3 116/4/3 119/4/3
f 121/4/3 116/4/3 120/4/3
f 122/2/3 119/2/3 118/2/3
f 122/5/3 120/5/3 119/5/3
f 123/2/3 121/2/3 120/2/3
f 123/5/3 120/5/3 122/5/3
f 124/4/3 116/4/3 121/4/3
f 124/2/3 121/2/3 123/2/3
f 125/2/3 123/2/3 122/2/3
f 125/5/3 124/5/3 123/5/3
f 126/4/3 116/4/3 124/4/3
f 126/5/3 124/5/3 125/5/3
f 127/4/3 117/4/3 115/4/3
f 127/5/3 118/5/3 117/5/3
f 128/2/3 126/2/3 125/2/3
f 128/5/3 118/5/3 127/5/3
f 128/2/3 125/2/3 122/2/3
f 128/2/3 122/2/3 118/2/3
f 129/4/3 116/4/3 126/4/3
f 129/2/3 126/2/3 128/2/3
f 130/4/3 128/4/3 127/4/3
f 130/4/3 127/4/3 115/4/3
f 130/4/3 129/4/3 128/4/3
f 131/4/3 116/4/3 129/4/3
f 131/4/3 129/4/3 130/4/3
f 134/4/3 133/4/3 132/4/3
f 135/4/3 133/4/3 134/4/3
f 136/4/3 133/4/3 135/4/3
f 137/4/3 133/4/3 136/4/3
f 138/4/3 133/4/3 137/4/3
f 139/2/3 136/2/3 135/2/3
f 139/5/3 137/5/3 136/5/3
f 140/2/3 138/2/3 137/2/3
f 140/5/3 137/5/3 139/5/3
f 141/4/3 133/4/3 138/4/3
f 141/2/3 138/2/3 140/2/3
f 142/2/3 140/2/3 139/2/3
f 142/5/3 141/5/3 140/5/3
f 143/4/3 133/4/3 141/4/3
f 143/5/3 141/5/3 142/5/3
f 144/4/3 134/4/3 132/4/3
f 144/5/3 135/5/3 134/5/3
f 145/2/3 143/2/3 142/2/3
f 145/5/3 135/5/3 144/5/3
f 145/2/3 142/2/3 139/2/3
f 145/2/3 139/2/3 135/2/3
f 146/4/3 133/4/3 143/4/3
f 146/2/3 143/2/3 145/2/3
f 147/4/3 145/4/3 144/4/3
f 147/4/3 144/4/3 132/4/3
f 147/4/3 146/4/3 145/4/3
f 148/4/3 133/4/3 146/4/3
f 148/4/3 146/4/3 147/4/3
f 151/4/3 150/4/3 149/4/3
f 152/4/3 150/4/3 151/4/3
f 153/4/3 150/4/3 152/4/3
f 154/4/3 150/4/3 153/4/3
f 155/4/3 150/4/3 154/4/3
f 156/2/3 153/2/3 152/2/3
f 156/5/3 154/5/3 153/5/3
f 157/2/3 155/2/3 154/2/3
f 157/5/3 154/5/3 156/5/3
f 158/4/3 150/4/3 155/4/3
f 158/2/3 155/2/3 157/2/3
f 159/2/3 157/2/3 156/2/3
f 159/5/3 158/5/3 157/5/3
f 160/4/3 150/4/3 158/4/3
f 160/5/3 158/5/3 159/5/3
f 161/4/3 151/4/3 149/4/3
f 161/5/3 152/5/3 151/5/3
f 162/2/3 160/2/3 159/2/3
f 162/5/3 152/5/3 161/5/3
f 162/2/3 159/2/3 156/2/3
f 162/2/3 156/2/3 152/2/3
f 163/4/3 150/4/3 160/4/3
f 163/2/3 160/2/3 162/2/3
f 164/4/3 162/4/3 161/4/3
f 164/4/3 161/4/3 149/4/3
f 164/4/3 163/4/3 162/4/3
f 165/4/3 150/4/3 163/4/3
f 165/4/3 163/4/3 164/4/3
f 168/4/3 167/4/3 166/4/3
f 169/4/3 167/4/3 168/4/3
f 170/4/3 167/4/3 169/4/3
f 171/4/3 167/4/3 170/4/3
f 172/4/3 167/4/3 171/4/3
f 173/2/3 170/2/3 169/2/3
f 173/5/3 171/5/3 170/5/3
f 174/2/3 172/2/3 171/2/3
f 174/5/3 171/5/3 173/5/3
f 175/4/3 167/4/3 172/4/3
f 175/2/3 172/2/3 174/2/3
f 176/2/3 174/2/3 173/2/3
f 176/5/3 175/5/3 174/5/3
f 177/4/3 167/4/3 175/4/3
f 177/5/3 175/5/3 176/5/3
f 178/4/3 168/4/3 166/4/3
f 178/5/3 169/5/3 168/5/3
f 179/2/3 177/2/3 176/2/3
f 179/5/3 169/5/3 178/5/3
f 179/2/3 176/2/3 173/2/3
f 179/2/3 173/2/3 169/2/3
f 180/4/3 167/4/3 177/4/3
f 180/2/3 177/2/3 179/2/3
f 181/4/3 179/4/3 178/4/3
f 181/4/3 178/4/3 166/4/3
f 181/4/3 180/4/3 179/4/3
f 182/4/3 167/4/3 180/4/3
f 182/4/3 180/4/3 181/4/3
f 185/3/3 184/3/3 183/3/3
f 186/3/3 184/3/3 185/3/3
f 189/3/3 188/3/3 187/3/3
f 190/3/3 188/3/3 189/3/3
f 193/3/3 192/3/3 191/3/3
f 194/3/3 192/3/3 193/3/3
f 197/3/3 196/3/3 195/3/3
f 198/3/3 196/3/3 197/3/3
f 199/3/4 200/3/4 201/3/4
f 201/3/4 200/3/4 202/3/4
f 203/3/4 204/3/4 205/3/4
f 205/3/4 204/3/4 206/3/4
f 207/3/4 208/3/4 209/3/4
f 209/3/4 208/3/4 210/3/4
f 211/3/4 212/3/4 213/3/4
f 213/3/4 212/3/4 214/3/4
f 215/4/4 216/4/4 217/4/4
f 217/4/4 216/4/4 218/4/4
f 218/4/4 216/4/4 219/4/4
f 219/4/4 216/4/4 220/4/4
f 220/4/4 216/4/4 221/4/4
f 221/4/4 216/4/4 222/4/4
f 217/5/4 218/5/4 223/5/4
f 218/1/4 219/1/4 223/1/4
f 219/5/4 220/5/4 224/5/4
f 223/1/4 219/1/4 224/1/4
f 220/1/4 221/1/4 225/1/4
f 224/5/4 220/5/4 225/5/4
f 221/5/4 222/5/4 226/5/4
f 225/1/4 221/1/4 226/1/4
f 217/5/4 223/5/4 227/5/4
f 223/5/4 224/5/4 227/5/4
f 224/1/4 225/1/4 228/1/4
f 227/5/4 224/5/4 228/5/4
f 225/5/4 226/5/4 229/5/4
f 228/1/4 225/1/4 229/1/4
f 226/5/4 222/5/4 230/5/4
f 229/5/4 226/5/4 230/5/4
f 215/4/4 217/4/4 231/4/4
f 217/5/4 227/5/4 231/5/4
f 227/1/4 228/1/4 232/1/4
f 231/5/4 227/5/4 232/5/4
f 228/5/4 229/5/4 233/5/4
f 232/1/4 228/1/4 233/1/4
f 229/1/4 230/1/4 234/1/4
f 233/5/4 229/5/4 234/5/4
f 230/5/4 222/5/4 235/5/4
f 234/1/4 230/1/4 235/1/4
f 222/4/4 216/4/4 236/4/4
f 235/5/4 222/5/4 236/5/4
f 233/4/4 234/4/4 237/4/4
f 234/4/4 235/4/4 237/4/4
f 235/4/4 236/4/4 237/4/4
f 215/4/4 231/4/4 237/4/4
f 231/4/4 232/4/4 237/4/4
f 232/4/4 233/4/4 237/4/4
f 236/4/4 216/4/4 238/4/4
f 237/4/4 236/4/4 238/4/4
f 239/4/4 240/4/4 241/4/4
f 241/4/4 240/4/4 242/4/4
f 242/4/4 240/4/4 243/4/4
f 243/4/4 240/4/4 244/4/4
f 244/4/4 240/4/4 245/4/4
f 245/4/4 240/4/4 246/4/4
f 241/5/4 242/5/4 247/5/4
f 242/1/4 243/1/4 247/1/4
f 243/5/4 244/5/4 248/5/4
f 247/1/4 243/1/4 248/1/4
f 244/1/4 245/1/4 249/1/4
f 248/5/4 244/5/4 249/5/4
f 245/5/4 246/5/4 250/5/4
f 249/1/4 245/1/4 250/1/4
f 241/5/4 247/5/4 251/5/4
f 247/5/4 248/5/4 251/5/4
f 248/1/4 249/1/4 252/1/4
f 251/5/4 248/5/4 252/5/4
f 249/5/4 250/5/4 253/5/4
f 252/1/4 249/1/4 253/1/4
f 250/5/4 246/5/4 254/5/4
f 253/5/4 250/5/4 254/5/4
f 239/4/4 241/4/4 255/4/4
f 241/5/4 251/5/4 255/5/4
f 251/1/4 252/1/4 256/1/4
f 255/5/4 251/5/4 256/5/4
f 252/5/4 253/5/4 257/5/4
f 256/1/4 252/1/4 257/1/4
f 253/1/4 254/1/4 258/1/4
f 257/5/4 253/5/4 258/5/4
f 254/5/4 246/5/4 259/5/4
f 258/1/4 254/1/4 259/1/4
f 246/4/4 240/4/4 260/4/4
f 259/5/4 246/5/4 260/5/4
f 257/4/4 258/4/4 261/4/4
f 258/4/4 259/4/4 261/4/4
f 259/4/4 260/4/4 261/4/4
f 239/4/4 255/4/4 261/4/4
f 255/4/4 256/4/4 261/4/4
f 256/4/4 257/4/4 261/4/4
f 260/4/4 240/4/4 262/4/4
f 261/4/4 260/4/4 262/4/4
f 263/4/4 264/4/4 265/4/4
f 265/4/4 264/4/4 266/4/4
f 266/4/4 264/4/4 267/4/4
f 267/4/4 264/4/4 268/4/4
f 268/4/4 264/4/4 269/4/4
f 269/4/4 264/4/4 270/4/4
f 265/5/4 266/5/4 271/5/4
f 266/1/4 267/1/4 271/1/4
f 267/5/4 268/5/4 272/5/4
f 271/1/4 267/1/4 272/1/4
f 268/1/4 269/1/4 273/1/4
f 272/5/4 268/5/4 273/5/4
f 269/5/4 270/5/4 274/5/4
f 273/1/4 269/1/4 274/1/4
f 265/5/4 271/5/4 275/5/4
f 271/5/4 272/5/4 275/5/4
f 272/1/4 273/1/4 276/1/4
f 275/5/4 272/5/4 276/5/4
f 273/5/4 274/5/4 277/5/4
f 276/1/4 273/1/4 277/1/4
f 274/5/4 270/5/4 278/5/4
f 277/5/4 274/5/4 278/5/4
f 263/4/4 265/4/4 279/4/4
f 265/5/4 275/5/4 279/5/4
f 275/1/4 276/1/4 280/1/4
f 279/5/4 275/5/4 280/5/4
f 276/5/4 277/5/4 281/5/4
f 280/1/4 276/1/4 281/1/4
f 277/1/4 278/1/4 282/1/4
f 281/5/4 277/5/4 282/5/4
f 278/5/4 270/5/4 283/5/4
f 282/1/4 278/1/4 283/1/4
f 270/4/4 264/4/4 284/4/4
f 283/5/4 270/5/4 284/5/4
f 281/4/4 282/4/4 285/4/4
f 282/4/4 283/4/4 285/4/4
f 283/4/4 284/4/4 285/4/4
f 263/4/4 279/4/4 285/4/4
f 279/4/4 280/4/4 285/4/4
f 280/4/4 281/4/4 285/4/4
f 284/4/4 264/4/4 286/4/4
f 285/4/4 284/4/4 286/4/4
f 287/4/4 288/4/4 289/4/4
f 289/4/4 288/4/4 290/4/4
f 290/4/4 288/4/4 291/4/4
f 291/4/4 288/4/4 292/4/4
f 292/4/4 288/4/4 293/4/4
f 293/4/4 288/4/4 294/4/4
f 289/5/4 290/5/4 295/5/4
f 290/1/4 291/1/4 295/1/4
f 291/5/4 292/5/4 296/5/4
f 295/1/4 291/1/4 296/1/4
f 292/1/4 293/1/4 297/1/4
f 296/5/4 292/5/4 297/5/4
f 293/5/4 294/5/4 298/5/4
f 297/1/4 293/1/4 298/1/4
f 289/5/4 295/5/4 299/5/4
f 295/5/4 296/5/4 299/5/4
f 296/1/4 297/1/4 300/1/4
f 299/5/4 296/5/4 300/5/4
f 297/5/4 298/5/4 301/5/4
f 300/1/4 297/1/4 301/1/4
f 298/5/4 294/5/4 302/5/4
f 301/5/4 298/5/4 302/5/4
f 287/4/4 289/4/4 303/4/4
f 289/5/4 299/5/4 303/5/4
f 299/1/4 300/1/4 304/1/4
f 303/5/4 299/5/4 304/5/4
f 300/5/4 301/5/4 305/5/4
f 304/1/4 300/1/4 305/1/4
f 301/1/4 302/1/4 306/1/4
f 305/5/4 301/5/4 306/5/4
f 302/5/4 294/5/4 307/5/4
f 306/1/4 302/1/4 307/1/4
f 294/4/4 288/4/4 308/4/4
f 307/5/4 294/5/4 308/5/4
f 305/4/4 306/4/4 309/4/4
f 306/4/4 307/4/4 309/4/4
f 307/4/4 308/4/4 309/4/4
f 287/4/4 303/4/4 309/4/4
f 303/4/4 304/4/4 309/4/4
f 304/4/4 305/4/4 309/4/4
f 308/4/4 288/4/4 310/4/4
f 309/4/4 308/4/4 310/4/4
f 311/4/4 312/4/4 313/4/4
f 313/4/4 312/4/4 314/4/4
f 314/4/4 312/4/4 315/4/4
f 315/4/4 312/4/4 316/4/4
f 316/4/4 312/4/4 317/4/4
f 317/4/4 312/4/4 318/4/4
f 313/5/4 314/5/4 319/5/4
f 314/1/4 315/1/4 319/1/4
f 315/5/4 316/5/4 320/5/4
f 319/1/4 315/1/4 320/1/4
f 316/1/4 317/1/4 321/1/4
f 320/5/4 316/5/4 321/5/4
f 317/5/4 318/5/4 322/5/4
f 321/1/4 317/1/4 322/1/4
f 313/5/4 319/5/4 323/5/4
f 319/5/4 320/5/4 323/5/4
f 320/1/4 321/1/4 324/1/4
f 323/5/4 320/5/4 324/5/4
f 321/5/4 322/5/4 325/5/4
f 324/1/4 321/1/4 325/1/4
f 322/5/4 318/5/4 326/5/4
f 325/5/4 322/5/4 326/5/4
f 311/4/4 313/4/4 327/4/4
f 313/5/4 323/5/4 327/5/4
f 323/1/4 324/1/4 328/1/4
f 327/5/4 323/5/4 328/5/4
f 324/5/4 325/5/4 329/5/4
f 328/1/4 324/1/4 329/1/4
f 325/1/4 326/1/4 330/1/4
f 329/5/4 325/5/4 330/5/4
f 326/5/4 318/5/4 331/5/4
f 330/1/4 326/1/4 331/1/4
f 318/4/4 312/4/4 332/4/4
f 331/5/4 318/5/4 332/5/4
f 329/4/4 330/4/4 333/4/4
f 330/4/4 331/4/4 333/4/4
f 331/4/4 332/4/4 333/4/4
f 311/4/4 327/4/4 333/4/4
f 327/4/4 328/4/4 333/4/4
f 328/4/4 329/4/4 333/4/4
f 332/4/4 312/4/4 334/4/4
f 333/4/4 332/4/4 334/4/4
f 335/4/4 336/4/4 337/4/4
f 337/4/4 336/4/4 338/4/4
f 338/4/4 336/4/4 339/4/4
f 339/4/4 336/4/4 340/4/4
f 340/4/4 336/4/4 341/4/4
f 341/4/4 336/4/4 342/4/4
f 337/5/4 338/5/4 343/5/4
f 338/1/4 339/1/4 343/1/4
f 339/5/4 340/5/4 344/5/4
f 343/1/4 339/1/4 344/1/4
f 340/1/4 341/1/4 345/1/4
f 344/5/4 340/5/4 345/5/4
f 341/5/4 342/5/4 346/5/4
f 345/1/4 341/1/4 346/1/4
f 337/5/4 343/5/4 347/5/4
f 343/5/4 344/5/4 347/5/4
f 344/1/4 345/1/4 348/1/4
f 347/5/4 344/5/4 348/5/4
f 345/5/4 346/5/4 349/5/4
f 348/1/4 345/1/4 349/1/4
f 346/5/4 342/5/4 350/5/4
f 349/5/4 346/5/4 350/5/4
f 335/4/4 337/4/4 351/4/4
f 337/5/4 347/5/4 351/5/4
f 347/1/4 348/1/4 352/1/4
f 351/5/4 347/5/4 352/5/4
f 348/5/4 349/5/4 353/5/4
f 352/1/4 348/1/4 353/1/4
f 349/1/4 350/1/4 354/1/4
f 353/5/4 349/5/4 354/5/4
f 350/5/4 342/5/4 355/5/4
f 354/1/4 350/1/4 355/1/4
f 342/4/4 336/4/4 356/4/4
f 355/5/4 342/5/4 356/5/4
f 353/4/4 354/4/4 357/4/4
f 354/4/4 355/4/4 357/4/4
f 355/4/4 356/4/4 357/4/4
f 335/4/4 351/4/4 357/4/4
f 351/4/4 352/4/4 357/4/4
f 352/4/4 353/4/4 357/4/4
f 356/4/4 336/4/4 358/4/4
f 357/4/4 356/4/4 358/4/4
f 371/4/5 360/4/5 359/4/5
f 372/4/5 360/4/5 371/4/5
f 373/4/5 362/4/5 361/4/5
f 374/4/5 362/4/5 373/4/5
f 375/4/5 364/4/5 363/4/5
f 376/4/5 364/4/5 375/4/5
f 377/4/5 366/4/5 365/4/5
f 378/4/5 366/4/5 377/4/5
f 379/4/5 368/4/5 367/4/5
f 380/4/5 368/4/5 379/4/5
f 381/4/5 370/4/5 369/4/5
f 382/4/5 370/4/5 381/4/5
f 391/3/5 384/3/5 383/3/5
f 392/3/5 384/3/5 391/3/5
f 393/3/5 386/3/5 385/3/5
f 394/3/5 386/3/5 393/3/5
f 395/3/5 388/3/5 387/3/5
f 396/3/5 388/3/5 395/3/5
f 397/3/5 390/3/5 389/3/5
f 398/3/5 390/3/5 397/3/5
f 399/3/6 400/3/6 407/3/6
f 407/3/6 400/3/6 408/3/6
f 401/3/6 402/3/6 409/3/6
f 409/3/6 402/3/6 410/3/6
f 403/3/6 404/3/6 411/3/6
f 411/3/6 404/3/6 412/3/6
f 405/3/6 406/3/6 413/3/6
f 413/3/6 406/3/6 414/3/6
f 415/4/6 416/4/6 427/4/6
f 427/4/6 416/4/6 428/4/6
f 417/4/6 418/4/6 429/4/6
f 429/4/6 418/4/6 430/4/6
f 419/4/6 420/4/6 431/4/6
f 431/4/6 420/4/6 432/4/6
f 421/4/6 422/4/6 433/4/6
f 433/4/6 422/4/6 434/4/6
f 423/4/6 424/4/6 435/4/6
f 435/4/6 424/4/6 436/4/6
f 425/4/6 426/4/6 437/4/6
f 437/4/6 426/4/6 438/4/6
