# MagicaVoxel @ Ephtracy

# group
o 

# material
mtllib character belly modeling.mtl
usemtl palette

# normals
vn -1 0 0
vn 1 0 0
vn 0 0 1
vn 0 0 -1
vn 0 -1 0
vn 0 1 0

# texcoords
vt 0.958984 0.5
vt 0.978516 0.5
vt 0.982422 0.5
vt 0.986328 0.5
vt 0.990234 0.5
vt 0.994141 0.5

# verts
v -0.6 2.7 0.4
v -0.6 2.7 -0.1
v -0.6 3.4 0.4
v -0.6 3.4 -0.1
v -0.5 2.6 0.4
v -0.5 2.6 -0.1
v -0.5 2.7 0.5
v -0.5 2.7 0.4
v -0.5 2.7 -0.1
v -0.5 2.7 -0.2
v -0.5 3 0.5
v -0.5 3 0.4
v -0.5 3.2 0.5
v -0.5 3.2 0.4
v -0.5 3.4 0.5
v -0.5 3.4 0.4
v -0.5 3.4 -0.1
v -0.5 3.4 -0.2
v -0.4 2.4 0.5
v -0.4 2.4 0.4
v -0.4 2.5 0.5
v -0.4 2.5 0.4
v -0.4 2.6 0.4
v -0.4 2.7 0.5
v -0.4 2.7 0.4
v 0.3 2.6 0.4
v 0.3 2.6 0.3
v 0.3 2.7 0.5
v 0.3 2.7 0.4
v 0.3 2.7 0.3
v 0.3 2.8 0.3
v 0.3 3 0.5
v 0.3 3 0.4
v 0.3 3.1 0.3
v 0.3 3.2 0.5
v 0.3 3.2 0.4
v 0.3 3.2 0.3
v 0.3 3.3 0.3
v 0.3 3.4 0.5
v 0.3 3.4 0.3
v 0.4 2.4 0.5
v 0.4 2.4 0.4
v 0.4 2.5 0.5
v 0.4 2.5 0.4
v 0.4 2.6 0.4
v 0.4 2.7 0.5
v 0.4 2.7 0.4
v 0.6 2.6 0.3
v 0.6 2.6 -1.19209e-07
v 0.6 2.7 0.3
v 0.6 2.7 -1.19209e-07
v 0.6 2.8 0.3
v 0.6 2.8 -1.19209e-07
v -0.4 2.6 0.3
v -0.4 2.6 -1.19209e-07
v -0.4 2.7 0.3
v -0.4 2.7 -1.19209e-07
v -0.4 2.8 0.3
v -0.4 2.8 -1.19209e-07
v -0.2 2.4 0.5
v -0.2 2.4 0.4
v -0.2 2.5 0.5
v -0.2 2.5 0.4
v -0.2 2.6 0.4
v -0.2 2.7 0.5
v -0.2 2.7 0.4
v -0.1 2.6 0.4
v -0.1 2.6 0.3
v -0.1 2.7 0.5
v -0.1 2.7 0.4
v -0.1 2.7 0.3
v -0.1 2.8 0.3
v -0.1 3 0.5
v -0.1 3 0.4
v -0.1 3.1 0.3
v -0.1 3.2 0.5
v -0.1 3.2 0.4
v -0.1 3.2 0.3
v -0.1 3.3 0.3
v -0.1 3.4 0.5
v -0.1 3.4 0.3
v 0.6 2.4 0.5
v 0.6 2.4 0.4
v 0.6 2.5 0.5
v 0.6 2.5 0.4
v 0.6 2.6 0.4
v 0.6 2.7 0.5
v 0.6 2.7 0.4
v 0.7 2.6 0.4
v 0.7 2.6 -0.1
v 0.7 2.7 0.5
v 0.7 2.7 0.4
v 0.7 2.7 -0.1
v 0.7 2.7 -0.2
v 0.7 3 0.5
v 0.7 3 0.4
v 0.7 3.2 0.5
v 0.7 3.2 0.4
v 0.7 3.4 0.5
v 0.7 3.4 0.4
v 0.7 3.4 -0.1
v 0.7 3.4 -0.2
v 0.8 2.7 0.4
v 0.8 2.7 -0.1
v 0.8 3.4 0.4
v 0.8 3.4 -0.1
v -0.5 2.7 0.5
v -0.5 3 0.5
v -0.5 3.2 0.5
v -0.5 3.4 0.5
v -0.4 2.4 0.5
v -0.4 2.5 0.5
v -0.4 2.7 0.5
v -0.4 3 0.5
v -0.4 3.1 0.5
v -0.2 2.4 0.5
v -0.2 2.5 0.5
v -0.2 2.7 0.5
v -0.2 3 0.5
v -0.2 3.1 0.5
v -0.1 2.7 0.5
v -0.1 3 0.5
v -0.1 3.2 0.5
v -0.1 3.4 0.5
v 0.3 2.7 0.5
v 0.3 3 0.5
v 0.3 3.2 0.5
v 0.3 3.4 0.5
v 0.4 2.4 0.5
v 0.4 2.5 0.5
v 0.4 2.7 0.5
v 0.4 3 0.5
v 0.4 3.1 0.5
v 0.6 2.4 0.5
v 0.6 2.5 0.5
v 0.6 2.7 0.5
v 0.6 3 0.5
v 0.6 3.1 0.5
v 0.7 2.7 0.5
v 0.7 3 0.5
v 0.7 3.2 0.5
v 0.7 3.4 0.5
v -0.6 2.7 0.4
v -0.6 3.4 0.4
v -0.5 2.6 0.4
v -0.5 2.7 0.4
v -0.5 3 0.4
v -0.5 3.2 0.4
v -0.5 3.4 0.4
v -0.4 2.6 0.4
v -0.4 2.7 0.4
v -0.2 2.6 0.4
v -0.2 2.7 0.4
v -0.1 2.6 0.4
v -0.1 2.7 0.4
v 0.3 2.6 0.4
v 0.3 2.7 0.4
v 0.4 2.6 0.4
v 0.4 2.7 0.4
v 0.6 2.6 0.4
v 0.6 2.7 0.4
v 0.7 2.6 0.4
v 0.7 2.7 0.4
v 0.7 3 0.4
v 0.7 3.2 0.4
v 0.7 3.4 0.4
v 0.8 2.7 0.4
v 0.8 3.4 0.4
v -0.1 2.8 0.3
v -0.1 3.1 0.3
v -0.1 3.2 0.3
v -0.1 3.3 0.3
v -0.1 3.4 0.3
v 0.3 2.8 0.3
v 0.3 3.1 0.3
v 0.3 3.2 0.3
v 0.3 3.3 0.3
v 0.3 3.4 0.3
v -0.4 2.6 -1.19209e-07
v -0.4 2.7 -1.19209e-07
v -0.4 2.8 -1.19209e-07
v 0.6 2.6 -1.19209e-07
v 0.6 2.7 -1.19209e-07
v 0.6 2.8 -1.19209e-07
v -0.4 2.4 0.4
v -0.4 2.5 0.4
v -0.4 2.6 0.4
v -0.2 2.4 0.4
v -0.2 2.5 0.4
v -0.2 2.6 0.4
v 0.4 2.4 0.4
v 0.4 2.5 0.4
v 0.4 2.6 0.4
v 0.6 2.4 0.4
v 0.6 2.5 0.4
v 0.6 2.6 0.4
v -0.4 2.6 0.3
v -0.4 2.7 0.3
v -0.4 2.8 0.3
v -0.1 2.6 0.3
v -0.1 2.7 0.3
v -0.1 2.8 0.3
v 0.3 2.6 0.3
v 0.3 2.7 0.3
v 0.3 2.8 0.3
v 0.6 2.6 0.3
v 0.6 2.7 0.3
v 0.6 2.8 0.3
v -0.6 2.7 -0.1
v -0.6 3.4 -0.1
v -0.5 2.6 -0.1
v -0.5 2.7 -0.1
v -0.5 3.4 -0.1
v 0.7 2.6 -0.1
v 0.7 2.7 -0.1
v 0.7 3.4 -0.1
v 0.8 2.7 -0.1
v 0.8 3.4 -0.1
v -0.5 2.7 -0.2
v -0.5 3.4 -0.2
v 0.7 2.7 -0.2
v 0.7 3.4 -0.2
v -0.4 2.4 0.5
v -0.2 2.4 0.5
v 0.4 2.4 0.5
v 0.6 2.4 0.5
v -0.4 2.4 0.4
v -0.2 2.4 0.4
v 0.4 2.4 0.4
v 0.6 2.4 0.4
v -0.5 2.6 0.4
v -0.4 2.6 0.4
v -0.2 2.6 0.4
v -0.1 2.6 0.4
v 0.3 2.6 0.4
v 0.4 2.6 0.4
v 0.6 2.6 0.4
v 0.7 2.6 0.4
v -0.4 2.6 0.3
v -0.1 2.6 0.3
v 0.3 2.6 0.3
v 0.6 2.6 0.3
v -0.4 2.6 -1.19209e-07
v 0.6 2.6 -1.19209e-07
v -0.5 2.6 -0.1
v 0.7 2.6 -0.1
v -0.5 2.7 0.5
v -0.4 2.7 0.5
v -0.2 2.7 0.5
v -0.1 2.7 0.5
v 0.3 2.7 0.5
v 0.4 2.7 0.5
v 0.6 2.7 0.5
v 0.7 2.7 0.5
v -0.6 2.7 0.4
v -0.5 2.7 0.4
v -0.4 2.7 0.4
v -0.2 2.7 0.4
v -0.1 2.7 0.4
v 0.3 2.7 0.4
v 0.4 2.7 0.4
v 0.6 2.7 0.4
v 0.7 2.7 0.4
v 0.8 2.7 0.4
v -0.6 2.7 -0.1
v -0.5 2.7 -0.1
v 0.7 2.7 -0.1
v 0.8 2.7 -0.1
v -0.5 2.7 -0.2
v 0.7 2.7 -0.2
v -0.4 2.8 0.3
v -0.1 2.8 0.3
v 0.3 2.8 0.3
v 0.6 2.8 0.3
v -0.4 2.8 -1.19209e-07
v 0.6 2.8 -1.19209e-07
v -0.5 3.4 0.5
v -0.1 3.4 0.5
v 0.3 3.4 0.5
v 0.7 3.4 0.5
v -0.6 3.4 0.4
v -0.5 3.4 0.4
v 0.7 3.4 0.4
v 0.8 3.4 0.4
v -0.4 3.4 0.3
v -0.1 3.4 0.3
v 0.3 3.4 0.3
v 0.6 3.4 0.3
v -0.1 3.4 0.2
v 0.3 3.4 0.2
v -0.4 3.4 -1.19209e-07
v 0.6 3.4 -1.19209e-07
v -0.6 3.4 -0.1
v -0.5 3.4 -0.1
v 0.7 3.4 -0.1
v 0.8 3.4 -0.1
v -0.5 3.4 -0.2
v 0.7 3.4 -0.2

# faces
f 3/3/1 2/3/1 1/3/1
f 4/3/1 2/3/1 3/3/1
f 8/4/1 6/4/1 5/4/1
f 9/4/1 6/4/1 8/4/1
f 11/3/1 8/3/1 7/3/1
f 12/3/1 8/3/1 11/3/1
f 13/4/1 12/4/1 11/4/1
f 14/4/1 12/4/1 13/4/1
f 15/3/1 14/3/1 13/3/1
f 16/3/1 14/3/1 15/3/1
f 17/3/1 10/3/1 9/3/1
f 18/3/1 10/3/1 17/3/1
f 21/5/1 20/5/1 19/5/1
f 22/5/1 20/5/1 21/5/1
f 23/2/1 22/2/1 21/2/1
f 24/2/1 23/2/1 21/2/1
f 25/2/1 23/2/1 24/2/1
f 29/4/1 27/4/1 26/4/1
f 30/4/1 27/4/1 29/4/1
f 31/3/1 29/3/1 28/3/1
f 31/3/1 30/3/1 29/3/1
f 32/3/1 31/3/1 28/3/1
f 33/3/1 31/3/1 32/3/1
f 34/3/1 31/3/1 33/3/1
f 35/4/1 33/4/1 32/4/1
f 36/3/1 34/3/1 33/3/1
f 36/4/1 33/4/1 35/4/1
f 37/3/1 34/3/1 36/3/1
f 38/3/1 36/3/1 35/3/1
f 38/3/1 37/3/1 36/3/1
f 39/3/1 38/3/1 35/3/1
f 40/3/1 38/3/1 39/3/1
f 43/5/1 42/5/1 41/5/1
f 44/5/1 42/5/1 43/5/1
f 45/2/1 44/2/1 43/2/1
f 46/2/1 45/2/1 43/2/1
f 47/2/1 45/2/1 46/2/1
f 50/4/1 49/4/1 48/4/1
f 51/4/1 49/4/1 50/4/1
f 52/3/1 51/3/1 50/3/1
f 53/3/1 51/3/1 52/3/1
f 54/4/2 55/4/2 56/4/2
f 56/4/2 55/4/2 57/4/2
f 56/3/2 57/3/2 58/3/2
f 58/3/2 57/3/2 59/3/2
f 60/5/2 61/5/2 62/5/2
f 62/5/2 61/5/2 63/5/2
f 62/2/2 63/2/2 64/2/2
f 62/2/2 64/2/2 65/2/2
f 65/2/2 64/2/2 66/2/2
f 67/4/2 68/4/2 70/4/2
f 70/4/2 68/4/2 71/4/2
f 69/3/2 70/3/2 72/3/2
f 70/3/2 71/3/2 72/3/2
f 69/3/2 72/3/2 73/3/2
f 73/3/2 72/3/2 74/3/2
f 74/3/2 72/3/2 75/3/2
f 73/4/2 74/4/2 76/4/2
f 74/3/2 75/3/2 77/3/2
f 76/4/2 74/4/2 77/4/2
f 77/3/2 75/3/2 78/3/2
f 76/3/2 77/3/2 79/3/2
f 77/3/2 78/3/2 79/3/2
f 76/3/2 79/3/2 80/3/2
f 80/3/2 79/3/2 81/3/2
f 82/5/2 83/5/2 84/5/2
f 84/5/2 83/5/2 85/5/2
f 84/2/2 85/2/2 86/2/2
f 84/2/2 86/2/2 87/2/2
f 87/2/2 86/2/2 88/2/2
f 89/4/2 90/4/2 92/4/2
f 92/4/2 90/4/2 93/4/2
f 91/3/2 92/3/2 95/3/2
f 95/3/2 92/3/2 96/3/2
f 95/4/2 96/4/2 97/4/2
f 97/4/2 96/4/2 98/4/2
f 97/3/2 98/3/2 99/3/2
f 99/3/2 98/3/2 100/3/2
f 93/3/2 94/3/2 101/3/2
f 101/3/2 94/3/2 102/3/2
f 103/3/2 104/3/2 105/3/2
f 105/3/2 104/3/2 106/3/2
f 113/3/3 108/3/3 107/3/3
f 114/4/3 109/4/3 108/4/3
f 114/3/3 108/3/3 113/3/3
f 115/4/3 109/4/3 114/4/3
f 116/5/3 112/5/3 111/5/3
f 117/2/3 113/2/3 112/2/3
f 117/5/3 112/5/3 116/5/3
f 117/2/3 114/2/3 113/2/3
f 118/2/3 114/2/3 117/2/3
f 119/5/3 115/5/3 114/5/3
f 119/2/3 114/2/3 118/2/3
f 120/4/3 109/4/3 115/4/3
f 120/5/3 115/5/3 119/5/3
f 121/3/3 119/3/3 118/3/3
f 122/4/3 120/4/3 119/4/3
f 122/3/3 119/3/3 121/3/3
f 123/4/3 109/4/3 120/4/3
f 123/4/3 120/4/3 122/4/3
f 123/3/3 110/3/3 109/3/3
f 124/3/3 110/3/3 123/3/3
f 131/3/3 126/3/3 125/3/3
f 132/4/3 127/4/3 126/4/3
f 132/3/3 126/3/3 131/3/3
f 133/4/3 127/4/3 132/4/3
f 134/5/3 130/5/3 129/5/3
f 135/2/3 131/2/3 130/2/3
f 135/5/3 130/5/3 134/5/3
f 135/2/3 132/2/3 131/2/3
f 136/2/3 132/2/3 135/2/3
f 137/5/3 133/5/3 132/5/3
f 137/2/3 132/2/3 136/2/3
f 138/4/3 127/4/3 133/4/3
f 138/5/3 133/5/3 137/5/3
f 139/3/3 137/3/3 136/3/3
f 140/4/3 138/4/3 137/4/3
f 140/3/3 137/3/3 139/3/3
f 141/4/3 127/4/3 138/4/3
f 141/4/3 138/4/3 140/4/3
f 141/3/3 128/3/3 127/3/3
f 142/3/3 128/3/3 141/3/3
f 146/3/3 144/3/3 143/3/3
f 147/3/3 144/3/3 146/3/3
f 148/3/3 144/3/3 147/3/3
f 149/3/3 144/3/3 148/3/3
f 150/4/3 146/4/3 145/4/3
f 151/4/3 146/4/3 150/4/3
f 154/4/3 153/4/3 152/4/3
f 155/4/3 153/4/3 154/4/3
f 158/4/3 157/4/3 156/4/3
f 159/4/3 157/4/3 158/4/3
f 162/4/3 161/4/3 160/4/3
f 163/4/3 161/4/3 162/4/3
f 167/3/3 166/3/3 165/3/3
f 167/3/3 165/3/3 164/3/3
f 167/3/3 164/3/3 163/3/3
f 168/3/3 166/3/3 167/3/3
f 174/1/3 170/1/3 169/1/3
f 175/6/3 171/6/3 170/6/3
f 175/1/3 170/1/3 174/1/3
f 176/1/3 172/1/3 171/1/3
f 176/6/3 171/6/3 175/6/3
f 177/6/3 173/6/3 172/6/3
f 177/1/3 172/1/3 176/1/3
f 178/6/3 173/6/3 177/6/3
f 182/4/3 180/4/3 179/4/3
f 183/3/3 181/3/3 180/3/3
f 183/4/3 180/4/3 182/4/3
f 184/3/3 181/3/3 183/3/3
f 185/5/4 186/5/4 188/5/4
f 186/2/4 187/2/4 189/2/4
f 188/5/4 186/5/4 189/5/4
f 189/2/4 187/2/4 190/2/4
f 191/5/4 192/5/4 194/5/4
f 192/2/4 193/2/4 195/2/4
f 194/5/4 192/5/4 195/5/4
f 195/2/4 193/2/4 196/2/4
f 197/4/4 198/4/4 200/4/4
f 198/3/4 199/3/4 201/3/4
f 200/4/4 198/4/4 201/4/4
f 201/3/4 199/3/4 202/3/4
f 203/4/4 204/4/4 206/4/4
f 204/3/4 205/3/4 207/3/4
f 206/4/4 204/4/4 207/4/4
f 207/3/4 205/3/4 208/3/4
f 209/3/4 210/3/4 212/3/4
f 212/3/4 210/3/4 213/3/4
f 211/4/4 212/4/4 214/4/4
f 214/4/4 212/4/4 215/4/4
f 215/3/4 216/3/4 217/3/4
f 217/3/4 216/3/4 218/3/4
f 219/3/4 220/3/4 221/3/4
f 221/3/4 220/3/4 222/3/4
f 227/5/5 224/5/5 223/5/5
f 228/5/5 224/5/5 227/5/5
f 229/5/5 226/5/5 225/5/5
f 230/5/5 226/5/5 229/5/5
f 239/4/5 232/4/5 231/4/5
f 239/4/5 233/4/5 232/4/5
f 239/4/5 234/4/5 233/4/5
f 240/4/5 234/4/5 239/4/5
f 241/4/5 238/4/5 237/4/5
f 241/4/5 237/4/5 236/4/5
f 241/4/5 236/4/5 235/4/5
f 242/4/5 238/4/5 241/4/5
f 243/4/5 239/4/5 231/4/5
f 244/4/5 238/4/5 242/4/5
f 245/4/5 243/4/5 231/4/5
f 245/4/5 244/4/5 243/4/5
f 246/4/5 238/4/5 244/4/5
f 246/4/5 244/4/5 245/4/5
f 256/3/5 248/3/5 247/3/5
f 257/3/5 248/3/5 256/3/5
f 258/3/5 250/3/5 249/3/5
f 259/3/5 250/3/5 258/3/5
f 260/3/5 252/3/5 251/3/5
f 261/3/5 252/3/5 260/3/5
f 262/3/5 254/3/5 253/3/5
f 263/3/5 254/3/5 262/3/5
f 265/3/5 256/3/5 255/3/5
f 266/3/5 256/3/5 265/3/5
f 267/3/5 264/3/5 263/3/5
f 268/3/5 264/3/5 267/3/5
f 269/3/5 267/3/5 266/3/5
f 270/3/5 267/3/5 269/3/5
f 275/1/5 272/1/5 271/1/5
f 275/1/5 274/1/5 273/1/5
f 275/1/5 273/1/5 272/1/5
f 276/1/5 274/1/5 275/1/5
f 277/3/6 278/3/6 282/3/6
f 279/3/6 280/3/6 283/3/6
f 281/3/6 282/3/6 285/3/6
f 282/3/6 278/3/6 285/3/6
f 285/3/6 278/3/6 286/3/6
f 283/3/6 284/3/6 287/3/6
f 279/3/6 283/3/6 287/3/6
f 287/3/6 284/3/6 288/3/6
f 285/1/6 286/1/6 289/1/6
f 286/6/6 287/6/6 289/6/6
f 287/1/6 288/1/6 290/1/6
f 289/6/6 287/6/6 290/6/6
f 281/3/6 285/3/6 291/3/6
f 285/1/6 289/1/6 291/1/6
f 289/1/6 290/1/6 291/1/6
f 288/3/6 284/3/6 292/3/6
f 291/1/6 290/1/6 292/1/6
f 290/1/6 288/1/6 292/1/6
f 281/3/6 291/3/6 293/3/6
f 291/3/6 292/3/6 293/3/6
f 293/3/6 292/3/6 294/3/6
f 292/3/6 284/3/6 295/3/6
f 294/3/6 292/3/6 295/3/6
f 295/3/6 284/3/6 296/3/6
f 294/3/6 295/3/6 297/3/6
f 297/3/6 295/3/6 298/3/6
