# MagicaVoxel @ Ephtracy

# group
o 

# material
mtllib character thighs modeling.mtl
usemtl palette

# normals
vn -1 0 0
vn 1 0 0
vn 0 0 1
vn 0 0 -1
vn 0 -1 0
vn 0 1 0

# texcoords
vt 0.423828 0.5
vt 0.994141 0.5

# verts
v -0.4 1.5 0.3
v -0.4 1.5 -1.49012e-07
v -0.4 2.2 0.3
v -0.4 2.2 -1.49012e-07
v 0.3 1.5 0.3
v 0.3 1.5 -1.49012e-07
v 0.3 1.6 0.3
v 0.3 1.6 -1.49012e-07
v 0.3 2.2 0.3
v 0.3 2.2 -1.49012e-07
v -0.1 1.5 0.3
v -0.1 1.5 -1.49012e-07
v -0.1 2.2 0.3
v -0.1 2.2 -1.49012e-07
v 0.6 1.5 0.3
v 0.6 1.5 -1.49012e-07
v 0.6 1.6 0.3
v 0.6 1.6 -1.49012e-07
v 0.6 2.2 0.3
v 0.6 2.2 -1.49012e-07
v -0.4 1.5 0.3
v -0.4 2.2 0.3
v -0.1 1.5 0.3
v -0.1 2.2 0.3
v 0.3 1.5 0.3
v 0.3 1.6 0.3
v 0.3 2.2 0.3
v 0.6 1.5 0.3
v 0.6 1.6 0.3
v 0.6 2.2 0.3
v -0.4 1.5 -1.49012e-07
v -0.4 2.2 -1.49012e-07
v -0.1 1.5 -1.49012e-07
v -0.1 2.2 -1.49012e-07
v 0.3 1.5 -1.49012e-07
v 0.3 1.6 -1.49012e-07
v 0.3 2.2 -1.49012e-07
v 0.6 1.5 -1.49012e-07
v 0.6 1.6 -1.49012e-07
v 0.6 2.2 -1.49012e-07
v -0.4 1.5 0.3
v -0.1 1.5 0.3
v 0.3 1.5 0.3
v 0.6 1.5 0.3
v 0.4 1.5 0.2
v 0.5 1.5 0.2
v 0.4 1.5 0.0999998
v 0.5 1.5 0.0999998
v -0.4 1.5 -1.49012e-07
v -0.1 1.5 -1.49012e-07
v 0.3 1.5 -1.49012e-07
v 0.6 1.5 -1.49012e-07
v -0.4 2.2 0.3
v -0.1 2.2 0.3
v 0.3 2.2 0.3
v 0.6 2.2 0.3
v -0.4 2.2 -1.49012e-07
v -0.1 2.2 -1.49012e-07
v 0.3 2.2 -1.49012e-07
v 0.6 2.2 -1.49012e-07

# faces
f 3/2/1 2/2/1 1/2/1
f 4/2/1 2/2/1 3/2/1
f 7/1/1 6/1/1 5/1/1
f 8/1/1 6/1/1 7/1/1
f 9/2/1 8/2/1 7/2/1
f 10/2/1 8/2/1 9/2/1
f 11/2/2 12/2/2 13/2/2
f 13/2/2 12/2/2 14/2/2
f 15/1/2 16/1/2 17/1/2
f 17/1/2 16/1/2 18/1/2
f 17/2/2 18/2/2 19/2/2
f 19/2/2 18/2/2 20/2/2
f 23/2/3 22/2/3 21/2/3
f 24/2/3 22/2/3 23/2/3
f 28/1/3 26/1/3 25/1/3
f 29/2/3 27/2/3 26/2/3
f 29/1/3 26/1/3 28/1/3
f 30/2/3 27/2/3 29/2/3
f 31/2/4 32/2/4 33/2/4
f 33/2/4 32/2/4 34/2/4
f 35/1/4 36/1/4 38/1/4
f 36/2/4 37/2/4 39/2/4
f 38/1/4 36/1/4 39/1/4
f 39/2/4 37/2/4 40/2/4
f 45/1/5 44/1/5 43/1/5
f 46/1/5 44/1/5 45/1/5
f 47/1/5 45/1/5 43/1/5
f 47/2/5 46/2/5 45/2/5
f 48/1/5 44/1/5 46/1/5
f 48/2/5 46/2/5 47/2/5
f 49/2/5 42/2/5 41/2/5
f 50/2/5 42/2/5 49/2/5
f 51/1/5 47/1/5 43/1/5
f 51/1/5 48/1/5 47/1/5
f 52/1/5 44/1/5 48/1/5
f 52/1/5 48/1/5 51/1/5
f 53/2/6 54/2/6 57/2/6
f 57/2/6 54/2/6 58/2/6
f 55/2/6 56/2/6 59/2/6
f 59/2/6 56/2/6 60/2/6
